---
---
<svg xmlns="http://www.w3.org/2000/svg" xmlns:xlink="http://www.w3.org/1999/xlink" viewBox="0 0 959 593"><defs><style>.state{fill:#DDD}.filled.state{fill:{{ site.secondarycolor }}}#AL_HI_Lines{fill:none;stroke:#a9a9a9;stroke-width:2px;}</style><symbol id="Pin" viewBox="0 0 15.705 20.277"><path fill="{{ site.themecolor }}" d="M7.8523.5A7.35229,7.35229,0,0,0,.5,7.8523c0,4.06056,7.3523,11.7034,7.3523,11.7034s7.3523-7.64284,7.3523-11.7034A7.3523,7.3523,0,0,0,7.8523.5Z"/><path fill="black" opacity=".3" d="M7.8523,11.92128a4.069,4.069,0,1,1,4.069-4.069A4.069,4.069,0,0,1,7.8523,11.92128Z"/></symbol></defs><g id="States"><path id="AK" class="state" d="M161.1,453.7l-.3,85.4,1.6,1,3.1.2,1.5-1.1h2.6l.2,2.9,7,6.8.5,2.6,3.4-1.9.6-.2.3-3.1,1.5-1.6,1.1-.2,1.9-1.5,3.1,2.1.6,2.9,1.9,1.1,1.1,2.4,3.9,1.8,3.4,6,2.7,3.9,2.3,2.7,1.5,3.7,5,1.8,5.2,2.1,1,4.4.5,3.1-1,3.4-1.8,2.3-1.6-.8-1.5-3.1-2.7-1.5-1.8-1.1-.8.8,1.5,2.7.2,3.7-1.1.5-1.9-1.9-2.1-1.3.5,1.6,1.3,1.8-.8.8a3.14073,3.14073,0,0,1-1.3-1c-.5-.6-2.1-3.4-2.1-3.4l-1-2.3s-.3,1.3-1,1a4.88474,4.88474,0,0,1-1.3-1.5l1.8-1.9-1.5-1.5v-5h-.8l-.8,3.4-1.1.5-1-3.7-.6-3.7-.8-.5.3,5.7v1.1l-1.5-1.3-3.6-6-2.1-.5-.6-3.7-1.6-2.9-1.6-1.1v-2.3l2.1-1.3-.5-.3-2.6.6-3.4-2.4-2.6-2.9-4.8-2.6-4-2.6,1.3-3.2V542l-1.8,1.6-2.9,1.1-3.7-1.1-5.7-2.4h-5.5l-.6.5-6.5-3.9-2.1-.3-2.7-5.8-3.6.3-3.6,1.5.5,4.5,1.1-2.9,1,.3-1.5,4.4,3.2-2.7.6,1.6-3.9,4.4-1.3-.3-.5-1.9-1.3-.8-1.3,1.1-2.7-1.8-3.1,2.1-1.8,2.1-3.4,2.1-4.7-.2-.5-2.1,3.7-.6v-1.3l-2.3-.6,1-2.4,2.3-3.9v-1.8l.2-.8,4.4-2.3,1,1.3h2.7l-1.3-2.6-3.7-.3-5,2.7-2.4,3.4-1.8,2.6-1.1,2.3-4.2,1.5-3.1,2.6-.3,1.6,2.3,1,.8,2.1-2.7,3.2-6.5,4.2-7.8,4.2-2.1,1.1-5.3,1.1-5.3,2.3,1.8,1.3-1.5,1.5-.5,1.1-2.7-1-3.2.2-.8,2.3h-1l.3-2.4-3.6,1.3-2.9,1-3.4-1.3-2.9,1.9h-3.2l-2.1,1.3-1.6.8-2.1-.3-2.6-1.1-2.3.6-1,1-1.6-1.1v-1.9l3.1-1.3,6.3.6,4.4-1.6,2.1-2.1,2.9-.6,1.8-.8,2.7.2,1.6,1.3,1-.3,2.3-2.7,3.1-1,3.4-.6,1.3-.3.6.5h.8l1.3-3.7,4-1.5,1.9-3.7,2.3-4.5,1.6-1.5.3-2.6-1.6,1.3-3.4.6-.6-2.4-1.3-.3-1,1-.2,2.9-1.5-.2-1.5-5.8-1.3,1.3-1.1-.5-.3-1.9-4,.2-2.1,1.1-2.6-.3,1.5-1.5.5-2.6-.6-1.9,1.5-1,1.3-.2-.6-1.8v-4.4l-1-1-.8,1.5H58.3l-1.5-1.3-.6-3.9-2.1-3.6v-1l2.1-.8.2-2.1,1.1-1.1-.8-.5-1.3.5-1.1-2.7,1-5,4.5-3.2,2.6-1.6,1.9-3.7,2.7-1.3,2.6,1.1.3,2.4,2.4-.3,3.2-2.4,1.6.6,1,.6h1.6l2.3-1.3.8-4.4s.3-2.9,1-3.4a7.84253,7.84253,0,0,0,1-1l-1.1-1.9-2.6.8-3.2.8-1.9-.5-3.6-1.8-5-.2-3.6-3.7.5-3.9.6-2.4-2.1-1.8-1.9-3.7.5-.8,6.8-.5h2.1l1,1h.6l-.2-1.6,3.9-.6,2.6.3,1.5,1.1-1.5,2.1-.5,1.5,2.7,1.6,5,1.8,1.8-1-2.3-4.4-1-3.2,1-.8-3.4-1.9-.5-1.1.5-1.6-.8-3.9-2.9-4.7-2.4-4.2,2.9-1.9h3.2l1.8.6,4.2-.2,3.7-3.6,1.1-3.1,3.7-2.4,1.6,1,2.7-.6,3.7-2.1,1.1-.2,1,.8,4.5-.2,2.7-3.1h1.1l3.6,2.4,1.9,2.1-.5,1.1.6,1.1,1.6-1.6,3.9.3.3,3.7,1.9,1.5,7.1.6,6.3,4.2,1.5-1,5.2,2.6,2.1-.6,1.9-.8,4.8,1.9ZM46,482.6l2.1,5.3-.2,1-2.9-.3-1.8-4-1.8-1.5H39l-.2-2.6,1.8-2.4,1.1,2.4,1.5,1.5Zm-2.6,33.5,3.7.8,3.7,1,.8,1L50,522.6l-3.1-.2-3.4-3.6ZM22.7,502l1.1,2.6,1.1,1.6-1.1.8-2.1-3.1V502ZM9,575.1l3.4-2.3,3.4-1,2.6.3.5,1.6,1.9.5,1.9-1.9-.3-1.6,2.7-.6,2.9,2.6-1.1,1.8-4.4,1.1-2.7-.5-3.7-1.1-4.4,1.5-1.6.3Zm48.9-4.5,1.6,1.9,2.1-1.6-1.5-1.3Zm2.9,3,1.1-2.3,2.1.3-.8,1.9H60.8Zm23.6-1.9,1.5,1.8,1-1.1-.8-1.9Zm8.8-12.5,1.1,5.8,2.9.8,5-2.9,4.4-2.6-1.6-2.4.5-2.4-2.1,1.3-2.9-.8,1.6-1.1,1.9.8,3.9-1.8.5-1.5-2.4-.8.8-1.9-2.7,1.9-4.7,3.6-4.8,2.9Zm42.3-19.8,2.4-1.5-1-1.8-1.8,1Z"><title>Alaska</title></path><path id="HI" class="filled state" d="M233.1,519.3l1.9-3.6,2.3-.3.3.8-2.1,3.1Zm10.2-3.7,6.1,2.6,2.1-.3,1.6-3.9-.6-3.4-4.2-.5-4,1.8Zm30.7,10,3.7,5.5,2.4-.3,1.1-.5,1.5,1.3,3.7-.2,1-1.5-2.9-1.8-1.9-3.7-2.1-3.6-5.8,2.9Zm20.2,8.9,1.3-1.9,4.7,1,.6-.5,6.1.6-.3,1.3-2.6,1.5-4.4-.3Zm5.3,5.2,1.9,3.9,3.1-1.1.3-1.6-1.6-2.1-3.7-.3Zm7-1.2,2.3-2.9,4.7,2.4,4.4,1.1,4.4,2.7v1.9l-3.6,1.8-4.8,1-2.4-1.5Zm16.6,15.6,1.6-1.3,3.4,1.6,7.6,3.6,3.4,2.1,1.6,2.4,1.9,4.4,4,2.6-.3,1.3-3.9,3.2-4.2,1.5-1.5-.6-3.1,1.8-2.4,3.2-2.3,2.9-1.8-.2-3.6-2.6-.3-4.5.6-2.4-1.6-5.7-2.1-1.8-.2-2.6,2.3-1,2.1-3.1.5-1-1.6-1.8Z"><title>Hawaii</title></path><path id="AL" class="state" d="M628.5,466.4l.6.2,1.3-2.7,1.5-4.4,2.3.6,3.1,6v1l-2.7,1.9,2.7.3,5.2-2.5-.3-7.6-2.5-1.8-2-2,.4-4,10.5-1.5,25.7-2.9,6.7-.6,5.6.1-.5-2.2-1.5-.8-.9-1.1,1-2.6-.4-5.2-1.6-4.5.8-5.1,1.7-4.8-.2-1.7-1.8-.7-.5-3.6-2.7-3.4-2-6.5-1.4-6.7-1.8-5-3.8-16-3.5-7.9-.8-5.6.1-2.2-9,.8-23.4,2.2-12.2.8-.2,6.4.2,16.7-.7,31-.3,14.1,2.8,18.8,1.6,14.7Z"><title>Alabama</title></path><path id="AR" class="state" d="M587.3,346.1l-6.4-.7.9-3.1,3.1-2.6.6-2.3-1.8-2.9-31.9,1.2-23.3.7-23.6.3,1.5,6.9.1,8.5,1.4,10.9.3,38.2,2.1,1.6,3-1.2,2.9,1.2.4,10.1,25.2-.2,26.8-.8.9-1.9-.3-3.8-1.7-3.1,1.5-1.4-1.4-2.2.7-2.4,1.1-5.9,2.7-2.3-.8-2.2,4-5.6,2.5-1.1-.1-1.7-.5-1.7,2.9-5.8,2.5-1.1.2-3.3,2.1-1.4.9-4.1-1.4-4,4.2-2.4.3-2.1,1.2-4.2.9-3.1Z"><title>Arkansas</title></path><path id="AZ" class="filled state" d="M135.1,389.7l-.3,1.5.5,1,18.9,10.7,12.1,7.6,14.7,8.6,16.8,10,12.3,2.4,25.4,2.7,6-39.6,7-53.1,4.4-31-24.6-3.6-60.7-11-.2,1.1-2.6,16.5-2.1,3.8-2.8-.2-1.2-2.6-2.6-.4-1.2-1.1-1.1.1-2.1,1.7-.3,6.8-.3,1.5-.5,12.5-1.5,2.4-.4,3.3,2.8,5,1.1,5.5.7,1.1,1.1.9-.4,2.4-1.7,1.2-3.4,1.6-1.6,1.8-1.6,3.6-.5,4.9-3,2.9-1.9.9-.1,5.8-.6,1.6.5.8,3.9.4-.9,3-1.7,2.4-3.7.4Z"><title>Arizona</title></path><path id="CA" class="filled state" d="M122.7,385.9,103,383.2l-10-1.5-.5-1.8v-9.4l-.3-3.2-2.6-4.2-.8-2.3-3.9-4.2L82,351.9l-2.7-.2-3.2-.8-.3-1,1.5-.6-.6-3.2-1.5-2.1-4.8-.8-3.9-2.1-1.1-2.3L62.8,334l-2.9-3.1H57l-3.9-2.1L48.6,327l-4.2-.5L42,323.8l.5-1.9,1.8-7.1.8-1.9v-2.4l-1.6-1-.5-2.9L41.5,304l-3.4-5.8-1.3-3.1-1.5-4.7-1.6-5.3-3.2-4.4-.5-2.9.8-3.9h1.1l2.1-1.6,1.1-3.6-1-2.7-2.7-.5-1.9-2.6-2.1-3.7-.2-8.2.6-1.9.6-2.3.5-2.4-5.7-6.3V236l.3-.5.3-3.2-1.3-4-2.3-4.8L17.5,219l-1.8-3.9,1-3.7.6-5.8,1.8-3.1.3-6.5-1.1-3.6-1.6-4.2L14,184l.8-3.2,1.5-4.2,1.8-.8.3-1.1,3.1-2.6,5.2-11.8.2-7.4,1.69-4.9,38.69,11.8,25.6,6.6-8,31.3-8.67,33.1L88.84,250,131,312.3l17.1,26.1-.4,3.1,2.8,5.2,1.1,5.4,1,1.5.7.6-.2,1.4-1.4,1-3.4,1.6-1.9,2.1-1.7,3.9-.5,4.7-2.6,2.5-2.3,1.1-.1,6.2-.6,1.9,1,1.7,3,.3-.4,1.6-1.4,2-3.9.6ZM48.8,337l1.3,1.5-.2,1.3-3.2-.1-.6-1.2-.6-1.5Zm1.9,0,1.2-.6,3.6,2.1,3.1,1.2-.9.6-4.5-.2-1.6-1.6Zm20.7,19.8,1.8,2.3.8,1,1.5.6.6-1.5-1-1.8-2.7-2-1.1.2v1.2ZM70,365.5l1.8,3.2,1.2,1.9-1.5.2-1.3-1.2a9.7191,9.7191,0,0,1-.7-1.9v-2.2Z"><title>California</title></path><path id="CO" class="filled state" d="M380.2,235.5l-36-3.5-79.1-8.6-2.2,22.1-7,50.4L254,309.6l34,3.9,37.5,4.4,34.7,3,14.3.6Z"><title>Colorado</title></path><path id="CT" class="filled state" d="M852,190.9l3.6-3.2,1.9-2.1.8.6,2.7-1.5,5.2-1.1,7-3.5-.6-4.2-.8-4.4-1.6-6-4.3,1.1-21.8,4.7.6,3.1,1.5,7.3V190l-.9,2.1,1.7,2.2Z"><title>Connecticut</title></path><path id="DE" class="state" d="M834.4,247.2l-1,.5-3.6-2.4-1.8-4.7-1.9-3.6-2.3-1-2.1-3.6.5-2,.5-2.3.1-1.1-.6.1-1.7,1-2,1.7-.2.3,1.4,4.1,2.3,5.6,3.7,16.1,5-.3,6-1.1Z"><title>Delaware</title></path><path id="FL" class="filled state" d="M750.2,445.2l-5.2-.7-.7.8,1.5,4.4-.4,5.2-4.1-1-.2-2.8H737l-5.3.7-32.4,1.9-8.2-.3-1.7-1.7-2.5-4.2H681l-6.6.5L639,452.2l-.3,2.8,1.6,1.6,2.9,2,.3,8.4,3.3-.6,6-2.1,6-.5,4.4-.6,7.6,1.8,8.1,3.9,1.6,1.5,2.9,1.1,1.6,1.9.3,2.7,3.2-1.3h3.9l3.6-1.9,3.7-3.6,3.1.2.5-1.1-.8-1,.2-1.9,4-.8h2.6l2.9,1.5,4.2,1.5,2.4,3.7,2.7,1,1.1,3.4,3.4,1.6,1.6,2.6,1.9.6,5.2,1.3L736,485l3,3.7v9.5l-1.5,4.7.3,2.7,1.3,4.8,1.8,4,.8-.5,1.5-4.5-2.6-1-.3-.6,1.6-.6,4.5,1,.2,1.6-3.2,5.5-2.1,2.4,3.6,3.7,2.6,3.1,2.9,5.3,2.9,3.9,2.1,5,1.8.3,1.6-2.1,1.8,1.1,2.6,4,.6,3.6,3.1,4.4.8-1.3,3.9.3,3.6,2.3,3.4,5.2.8,3.4.3,2.9,1.1,1,1.3.5,2.4-1,1.5-1.6,3.9-.2,3.1-1.5,2.7-3.2-.5-1.9-.3-2.4.6-1.9-.3-1.9,2.4-1.3.3-3.4-.6-1.8-.5-12-1.3-7.6-4.5-8.2-3.6-5.8-2.6-5.3-2.9-2.9-2.9-7.4.7-1.4,1.1-1.3-1.6-2.9-4-3.7-4.8-5.5-3.7-6.3-5.3-9.4-3.7-9.7-2.3-7.3Zm17.7,132.7,2.4-.6,1.3-.2,1.5-2.3,2.3-1.6,1.3.5,1.7.3.4,1.1-3.5,1.2-4.2,1.5-2.3,1.2Zm13.5-5,1.2,1.1,2.7-2.1,5.3-4.2,3.7-3.9,2.5-6.6,1-1.7.2-3.4-.7.5-1,2.8-1.5,4.6-3.2,5.3-4.4,4.2-3.4,1.9Z"><title>Florida</title></path><path id="GA" class="filled state" d="M750.2,444.2l-5.6-.7-1.4,1.6,1.6,4.7-.3,3.9-2.2-.6-.2-3h-5.2l-5.3.7-32.3,1.9-7.7-.3-1.4-1.2-2.5-4.3-.8-3.3-1.6-.9-.5-.5.9-2.2-.4-5.5-1.6-4.5.8-4.9,1.7-4.8-.2-2.5-1.9-.7-.4-3.2-2.8-3.5-1.9-6.2-1.5-7-1.7-4.8-3.8-16-3.5-8-.8-5.3.1-2.3,3.3-.3,13.6-1.6,18.6-2,6.3-1.1.5,1.4-2.2.9-.9,2.2.4,2,1.4,1.6,4.3,2.7,3.2-.1,3.2,4.7.6,1.6,2.3,2.8.5,1.7,4.7,1.8,3,2.2,2.3,3,2.3,1.3,2,1.8,1.4,2.7,2.1,1.9,4.1,1.8,2.7,6,1.7,5.1,2.8.7,2.1,1.9,2,5.7,2.9,1.6,1.7-.8.4,1.2-3.3,6.2.5,2.6-1.5,4.2-2.3,10,.8,6.3Z"><title>Georgia</title></path><path id="IA" class="state" d="M556.8,183.6l2.1,2.1.3.7-2,3,.3,4,2.6,4.1,3.1,1.6,2.4.3.9,1.8.2,2.4,2.5,1,.9,1.1.5,1.6,3.8,3.3.6,1.9-.7,3-1.7,3.7-.6,2.4-2.1,1.6-1.6.5-5.7,1.5L561,230l.8,1.8,1.7,1.5-.2,3.5-1.9,1.4-.7,1.8v2.4l-1.4.4-1.7,1.4-.5,1.7.4,1.7-1.3,1-2.3-2.7-1.4-2.8-8.3.8-10,.6-49.2,1.2-1.6-4.3-.4-6.7-1.4-4.2-.7-5.2-2.2-3.7-1-4.6-2.7-7.8-1.1-5.6-1.4-1.9-1.3-2.9,1.7-3.8,1.2-6.1-2.7-2.2-.3-2.4.7-2.4,1.8-.3,61.1-.6,21.2-.7Z"><title>Iowa</title></path><path id="ID" class="state" d="M175.3,27.63l-4.8,17.41L166,65.9l-3.4,16.22-.4,9.67,1.2,4.44,3.5,2.66-.2,3.91-3.9,4.4-4.5,6.6-.9,2.9-1.2,1.1-1.8.8-4.3,5.3-.4,3.1-.4,1.1.6,1,2.6-.1,1.1,2.3-2.4,5.8-1.2,4.2-8.8,35.3,20.7,4.5,39.5,7.9,34.8,6.1,4.9-29.2,3.8-24.1-2.7-2.4-.4-2.6-.8-1.1-2.1,1-.7,2.6-3.2.5-3.9-1.6-3.8.1-2.5.7-3.4-1.5-2.4.2-2.4,2-2-1.1-.7-4,.7-2.9-2.5-2.9-3.3-2.6-2.7-13.1-.1-4.7-.3-.1-.2.4-5.1,3.5-1.7-.2-2.9-3.4-.2-3.1,7-17.13-.4-1.94-3.4-1.15-.6-1.18-2.6-3.46-4.6-10.23-3.2-1.53-2-4.95,1.3-4.63-3.2-7.58,4.4-21.52Z"><title>Idaho</title></path><path id="IL" class="filled state" d="M618.7,214.3l-.8-2.6-1.3-3.7-1.6-1.8-1.5-2.6-.4-5.5-15.9,1.8-17.4,1H567.5l.2,2.1,2.2.9,1.1,1.4.4,1.4,3.9,3.4.7,2.4-.7,3.3-1.7,3.7-.8,2.7-2.4,1.9-1.9.6-5.2,1.3-1.3,4.1.6,1.1,1.9,1.8-.2,4.3-2.1,1.6-.5,1.3V243l-1.8.6-1.4,1.2-.4,1.2.4,2-1.6,1.3-.9,2.8.3,3.9,2.3,7,7,7.6,5.7,3.7v4.4l.7,1.2,6.6.6,2.7,1.4-.7,3.5-2.2,6.2-.8,3,2,3.7,6.4,5.3,4.8.8,2.2,5.1,2,3.4-.9,2.8,1.5,3.8,1.7,2.1,1.6-.3,1-2.2,2.4-1.7,2.8-1,6.1,2.5.5-.2v-1.1l-1.2-2.7.4-2.8,2.4-1.6,3.4-1.2-.5-1.3-.8-2,1.2-1.3,1-2.7v-4l.4-4.9,2.5-3,1.8-3.8,2.5-4-.5-5.3-1.8-3.2-.3-3.3.8-5.3-.7-7.2-1.1-15.8-1.4-15.3-.9-11.7Z"><title>Illinois</title></path><path id="IN" class="filled state" d="M622.9,216.1l1.5,1,1.1-.3,2.1-1.9,2.5-1.8,14.3-1.1,18.4-1.8,1.6,15.5,4.9,42.6-.6,2.9,1.3,1.6.2,1.3-2.3,1.6-3.6,1.7-3.2.4-.5,4.8-4.7,3.6-2.9,4,.2,2.4-.5,1.4h-3.5l-1.4-1.7-5.2,3,.2,3.1-.9.2-.5-.9-2.4-1.7-3.6,1.5-1.4,2.9-1.2-.6-1.6-1.8-4.4.5-5.7,1-2.5,1.3v-2.6l.4-4.7,2.3-2.9,1.8-3.9,2.7-4.2-.5-5.8-1.8-3.1-.3-3.2.8-5.3-.7-7.1-.9-12.6-2.5-30.1Z"><title>Indiana</title></path><path id="KS" class="state" d="M485.9,259.5l-43.8-.6-40.6-1.2-21.7-.9-4.3,64.8,24.3,1,44.7,2.1,46.3.6,12.6-.3.7-35-1.2-11.1-2.5-2-2.4-3-2.3-3.6.6-3,1.7-1.4v-2.1l-.8-.7-2.6-.2-3.5-3.4Z"><title>Kansas</title></path><path id="KY" class="filled state" d="M607.2,331.8l12.6-.7.1-4.1h4.3l30.4-3.2,45.1-4.3,5.6-3.6,3.9-2.1.1-1.9,6-7.8,4.1-3.6,2.1-2.4-3.3-2-2.5-2.7-3-3.8-.5-2.2-2.6-1.4-.9-1.9-.2-6.1-2.6-2-1.9-1.1-.5-2.3-1.3.2-2,1.2-2.5,2.7-1.9-1.7-2.5-.5-2.4,1.4h-2.3l-1.8-2-5.6-.1-1.8-4.5-2.9-1.5-2.1.8-4.2.2-.5,2.1,1.2,1.5.3,2.1-2.8,2-3.8,1.8-2.6.4-.5,4.5-4.9,3.6-2.6,3.7.2,2.2-.9,2.3-4.5-.1-1.3-1.3-3.9,2.2.2,3.3-2.4.6-.8-1.4-1.7-1.2-2.7,1.1-1.8,3.5-2.2-1-1.4-1.6-3.7.4-5.6,1-2.8,1.3-1.2,3.4-1,1,1.5,3.7-4.2,1.4-1.9,1.4-.4,2.2,1.2,2.4v2.2l-1.6.4-6.1-2.5-2.3.9-2,1.4-.8,1.8,1.7,2.4-.9,1.8-.1,3.3-2.4,1.3-2.1,1.7Z"><title>Kentucky</title></path><path id="LA" class="state" d="M526.9,485.9l8.1-.3,10.3,3.6,6.5,1.1,3.7-1.5,3.2,1.1,3.2,1,.8-2.1-3.2-1.1-2.6.5-2.7-1.6.8-1.5,3.1-1,1.8,1.5,1.8-1,3.2.6,1.5,2.4.3,2.3,4.5.3,1.8,1.8-.8,1.6-1.3.8,1.6,1.6,8.4,3.6,3.6-1.3,1-2.4,2.6-.6,1.8-1.5,1.3,1,.8,2.9-2.3.8.6.6,3.4-1.3,2.3-3.4.8-.5-2.1-.3.8-1.6-.2-1.5,2.1-.5,1.1-1.3.6.8.6,3.1,4.2.6,4,1.9,1,1.5h2.9l1.1,1,2.3-3.1V493h-1.3l-3.4-2.7-5.8-.8-3.2-2.3,1.1-2.7,2.3.3.2-.6-1.8-1v-.5h3.2l1.8-3.1-1.3-1.9-.3-2.7-1.5.2-1.9,2.1-.6,2.6-3.1-.6-1-1.8,1.8-1.9,1.9-1.7-2.2-6.5-3.4-3.4,1-7.3-.2-.5-1.3.2-33.1,1.4-.8-2.4.8-8.5,8.6-14.8-.9-2.6,1.4-.4.4-2-2.2-2,.1-1.9-2-4.5-.4-5.1.1-.7-26.4.8-25.2.1.4,9.7.7,9.5.5,3.7,2.6,4.5.9,4.4,4.3,6,.3,3.1.6.8-.7,8.3-2.8,4.6,1.2,2.4-.5,2.6-.8,7.3-1.3,3,.2,3.7Z"><title>Louisiana</title></path><path id="MA" class="filled state" d="M887.5,172.5l-.5-2.3.8-1.5,2.9-1.5.8,3.1-.5,1.8-2.4,1.5v1l1.9-1.5,3.9-4.5,3.9-1.9,4.2-1.5-.3-2.4-1-2.9-1.9-2.4-1.8-.8-2.1.2-.5.5,1,1.3,1.5-.8,2.1,1.6.8,2.7-1.8,1.8-2.3,1-3.6-.5-3.9-6-2.3-2.6h-1.8l-1.1.8-1.9-2.6.3-1.5,2.4-5.2-2.9-4.4-3.7,1.8-1.8,2.9-18.3,4.7-13.8,2.5-.6,10.6.7,4.9,22-4.8,11.2-2.8,2,1.6,3.4,4.3,2.9,4.7Zm12.5,1.4,2.2-.7.5-1.7,1,.1,1,2.3-1.3.5-3.9.1Zm-9.4.8,2.3-2.6h1.6l1.8,1.5-2.4,1-2.2,1Z"><title>Massachuesetts</title></path><path id="MD" class="state" d="M834.8,264.1l1.7-3.8.5-4.8-6.3,1.1-5.8.3-3.8-16.8-2.3-5.5-1.5-4.6-22.2,4.3-37.6,7.6,2,10.4,4.8-4.9,2.5-.7,1.4-1.5,1.8-2.7,1.6.7,2.6-.2,2.6-2.1,2-1.5,2.1-.6,1.5,1.1,2.7,1.4,1.9,1.8,1.3,1.4,4.8,1.6-.6,2.9,5.8,2.1,2.1-2.6,3.7,2.5-2.1,3.3-.7,3.3-1.8,2.6v2.1l.3.8,2,1.3,3.4,1.1,4.3-.1,3.1,1,2.1.3,1-2.1-1.5-2.1v-1.8l-2.4-2.1-2.1-5.5,1.3-5.3-.2-2.1-1.3-1.3s1.5-1.6,1.5-2.3a10.74588,10.74588,0,0,1,.5-2.1l1.9-1.3,1.9-1.6.5,1-1.5,1.6-1.3,3.7.3,1.1,1.8.3.5,5.5-2.1,1,.3,3.6.5-.2,1.1-1.9,1.6,1.8-1.6,1.3-.3,3.4,2.6,3.4,3.9.5,1.6-.8,3.2,4.2,1,.4Zm-14.5.2,1.1,2.5.2,1.8,1.1,1.9s.9-.9.9-1.2-.7-3.1-.7-3.1l-.7-2.3Z"><title>Maryland</title></path><path id="ME" class="state" d="M865.8,91.9l1.5.4V89.7l.8-5.5,2.6-4.7,1.5-4-1.9-2.4v-6l.8-1,.8-2.7-.2-1.5-.2-4.8,1.8-4.8,2.9-8.9,2.1-4.2h1.3l1.3.2v1.1l1.3,2.3,2.7.6.8-.8v-1l4-2.9,1.8-1.8,1.5.2,6,2.4,1.9,1,9.1,29.9h6l.8,1.9.2,4.8,2.9,2.3h.8l.2-.5-.5-1.1,2.8-.5,1.9,2.1,2.3,3.7V85l-2.1,4.7-1.9.6-3.4,3.1-4.8,5.5h-1.3c-.6,0-1-2.1-1-2.1l-1.8.2-1,1.5-2.4,1.5-1,1.5,1.6,1.5-.5.6-.5,2.7-1.9-.2v-1.6l-.3-1.3-1.5.3-1.8-3.2-2.1,1.3,1.3,1.5.3,1.1-.8,1.3.3,3.1.2,1.6-1.6,2.6-2.9.5-.3,2.9-5.3,3.1-1.3.5-1.6-1.5-3.1,3.6,1,3.2-1.5,1.3-.2,4.4-1.1,6.3-2.2-.9-.5-3.1-4-1.1-.2-2.5-11.7-37.43Zm36.5,15.6,1.5-1.5,1.4,1.1.6,2.4-1.7.9Zm6.7-5.9,1.8,1.9s1.3.1,1.3-.2.2-2,.2-2l.9-.8-.8-1.8-2,.7Z"><title>Maine</title></path><path id="MI" class="filled state" d="M644.5,211l19.1-1.9.2,1.1,9.9-1.5,12-1.7.1-.6.2-1.5,2.1-3.7,2-1.7-.2-5.1,1.6-1.6,1.1-.3.2-3.6,1.5-3,1.1.6.2.6.8.2,1.9-1-.4-9.1-3.2-8.2-2.3-9.1-2.4-3.2-2.6-1.8-1.6,1.1-3.9,1.8-1.9,5-2.7,3.7-1.1.6-1.5-.6s-2.6-1.5-2.4-2.1.5-5,.5-5l3.4-1.3.8-3.4.6-2.6,2.4-1.6-.3-10-1.6-2.3-1.3-.8-.8-2.1.8-.8,1.6.3.2-1.6-2.6-2.2-1.3-2.6h-2.6l-4.5-1.5-5.5-3.4h-2.7l-.6.6-1-.5-3.1-2.3-2.9,1.8-2.9,2.3.3,3.6,1,.3,2.1.5.5.8-2.6.8-2.6.3-1.5,1.8-.3,2.1.3,1.6.3,5.5-3.6,2.1-.6-.2v-4.2l1.3-2.4.6-2.4-.8-.8-1.9.8-1,4.2-2.7,1.1-1.8,1.9-.2,1,.6.8-.6,2.6-2.3.5v1.1l.8,2.4-1.1,6.1-1.6,4,.6,4.7.5,1.1-.8,2.4-.3.8-.3,2.7,3.6,6,2.9,6.5,1.5,4.8-.8,4.7-1,6-2.4,5.2-.3,2.7-3.2,3.1Zm-33.3-72.4-1.3-1.1-1.8-10.4-3.7-1.3-1.7-2.3-12.6-2.8-2.8-1.1-8.1-2.2-7.8-1-3.9-5.3.7-.5,2.7-.8,3.6-2.3v-1l.6-.6,6-1,2.4-1.9,4.4-2.1.2-1.3,1.9-2.9,1.8-.8,1.3-1.8,2.3-2.3,4.4-2.4,4.7-.5,1.1,1.1-.3,1-3.7,1-1.5,3.1-2.3.8-.5,2.4-2.4,3.2-.3,2.6.8.5,1-1.1,3.6-2.9,1.3,1.3h2.3l3.2,1,1.5,1.1,1.5,3.1,2.7,2.7,3.9-.2,1.5-1,1.6,1.3,1.6.5,1.3-.8h1.1l1.6-1,4-3.6,3.4-1.1,6.6-.3,4.5-1.9,2.6-1.3,1.5.2v5.7l.5.3,2.9.8,1.9-.5,6.1-1.6,1.1-1.1,1.5.5v7l3.2,3.1,1.3.6,1.3,1-1.3.3-.8-.3-3.7-.5-2.1.6-2.3-.2-3.2,1.5h-1.8l-5.8-1.3-5.2.2-1.9,2.6-7,.6-2.4.8-1.1,3.1-1.3,1.1-.5-.2-1.5-1.6-4.5,2.4h-.6l-1.1-1.6-.8.2-1.9,4.4-1,4-3.2,6.9ZM581.6,82.1l1.8-2.1,2.2-.8,5.4-3.9,2.3-.6.5.5-5.1,5.1-3.3,1.9-2.1.9Zm86.2,32.1.6,2.5,3.2.2,1.3-1.2s-.1-1.5-.4-1.6a20.23144,20.23144,0,0,1-1.6-1.9l-2.2.2-1.6.2-.3,1.1Z"><title>Michigan</title></path><path id="MN" class="state" d="M464.6,66.79,464,70.7V80.97L465.6,86l1.9,3.32.5,9.93,1.8,13.45,1.8,7.3.4,6.4v5.3l-1.6,1.8-1.8,1.3v1.5l.9,1.7,4.1,3.5.7,3.2v35.9l60.3-.6,21.2-.7-.5-6-1.8-2.1-7.2-4.6-3.6-5.3-3.4-.9-2-2.8h-3.2l-3.5-3.8-.5-7,.1-3.9,1.5-3-.7-2.7-2.8-3.1,2.2-6.1,5.4-4,1.2-1.4-.2-8,.2-3,2.6-3,3.8-2.9,1.3-.2,4.5-5,1.8-.8,2.3-3.9,2.4-3.6,3.1-2.6,4.8-2,9.2-4.1,3.9-1.8.6-2.3-4.4.4-.7,1.1h-.6l-1.8-3.1-8.9.3-1,.8h-1l-.5-1.3-.8-1.8-2.6.5-3.2,3.2-1.6.8h-3.1l-2.6-1V77.2l-1.3-.2-.5.5-2.6-1.3-.5-2.9-1.5.5-.5,1-2.4-.5-5.3-2.4L526,69.3h-2.9l-1.3-1-2.3.6L518.4,70l-.3,1.3h-4.8V69.2l-6.3-.3-.3-1.5h-4.8l-1.6-1.6-1.5-6.1-.8-5.5-1.9-.8-2.3-.5-.6.2-.3,8.2-30.1-.03Z"><title>Minnesota</title></path><path id="MO" class="state" d="M593.1,338.7l.5-5.9,4.2-3.4,1.9-1v-2.9l.7-1.6-1.1-1.6-2.4.3-2.1-2.5-1.7-4.5.9-2.6-2-3.2-1.8-4.6-4.6-.7-6.8-5.6-2.2-4.2.8-3.3,2.2-6,.6-3-1.9-1-6.9-.6-1.1-1.9v-4.1l-5.3-3.5-7.2-7.8-2.3-7.3-.5-4.2.7-2.4-2.6-3.1-1.2-2.4-7.7.8-10,.6-48.8,1.2,1.3,2.6-.1,2.2,2.3,3.6,3,3.9,3.1,3,2.6.2,1.4,1.1v2.9l-1.8,1.6-.5,2.3,2.1,3.2,2.4,3,2.6,2.1,1.3,11.6-.8,40,.5,5.7,23.7-.2,23.3-.7,32.5-1.3,2.2,3.7-.8,3.1-3.1,2.5-.5,1.8,5.2.5,4.1-1.1Z"><title>Missouri</title></path><path id="MS" class="filled state" d="M604.3,472.5l2.6-4.2,1.8.8,6.8-1.9,2.1.3,1.5.8h5.2l.4-1.6-1.7-14.8-2.8-19,1-45.1-.2-16.7.2-6.3-4.8.3-19.6,1.6-13,.4-.2,3.2-2.8,1.3-2.6,5.1.5,1.6.1,2.4-2.9,1.1-3.5,5.1.8,2.3-3,2.5-1,5.7-.6,1.9,1.6,2.5-1.5,1.4,1.5,2.8.3,4.2-1.2,2.5-.2.9.4,5,2,4.5-.1,1.7,2.3,2-.7,3.1-.9.3.6,1.9-8.6,15-.8,8.2.5,1.5,24.2-.7,8.2-.7,1.9-.3.6,1.4-1,7.1,3.3,3.3,2.2,6.4Z"><title>Mississippi</title></path><path id="MT" class="state" d="M361.1,70.77l-5.3,57.13-1.3,15.2-59.1-6.6-49-7.1L245,140.6l-1.9-1.7-.4-2.5-1.3-1.9-3.3,1.5-.7,2.5-2.3.3-3.8-1.6-4.1.1-2.4.7-3.2-1.5-3,.2-2.1,1.9-.9-.6-.7-3.4.7-3.2-2.7-3.2-3.3-2.5-2.5-12.6-.1-5.3-1.6-.8-.6,1-4.5,3.2-1.2-.1-2.3-2.8-.2-2.8,7-17.15-.6-2.67-3.5-1.12-.4-.91-2.7-3.5-4.6-10.41-3.2-1.58-1.8-4.26,1.3-4.63-3.2-7.57,4.4-21.29L222,37.3l18.4,3.4L272.7,46,302,50l29.2,3.5L362,56.57Z"><title>Montana</title></path><path id="NC" class="filled state" d="M786.7,357.7,774,350l-3.1-.8-16.6,2.1-1.6-3-2.8-2.2-16.7.5-7.4.9-9.2,4.5-6.8,2.7-6.5,1.2-13.4,1.4.1-4.1,1.7-1.3,2.7-.7.7-3.8,3.9-2.5,3.9-1.5,4.5-3.7,4.4-2.3.7-3.2,4.1-3.8.7,1,2.5.2,2.4-3.6,1.7-.4,2.6.3,1.8-4,2.5-2.4.5-1.8.1-3.5,4.4.1,38.5-5.6,57.5-12.3,2,4.8,3.6,6.5,2.4,2.4.6,2.3-2.4.2.8.6-.3,4.2-2.6,1.3-.6,2.1-1.3,2.9-3.7,1.6-2.4-.3-1.5-.2-1.6-1.3.3,1.3v1h1.9l.8,1.3-1.9,6.3h4.2l.6,1.6,2.3-2.3,1.3-.5-1.9,3.6-3.1,4.8H828l-1.1-.5-2.7.6-5.2,2.4-6.5,5.3-3.4,4.7-1.9,6.5-.5,2.4-4.7.5-5.1,1.5ZM836,331.5l2.6-2.5,3.2-2.6,1.5-.6.2-2-.6-6.1-1.5-2.3-.6-1.9.7-.2,2.7,5.5.4,4.4-.2,3.4-3.4,1.5-2.8,2.4-1.1,1.2Z"><title>North Carolina</title></path><path id="ND" class="state" d="M471,126.4l-.4-6.2-1.8-7.3L467,99.29l-.5-9.7-1.9-3.18L463,81.09V70.68l.6-3.85-1.8-5.54-28.6-.59-18.6-.6-26.5-1.3-25.2-2.16L362,71.06,357.3,122l56.8,3.9,56.9,1.7Z"><title>North Dakota</title></path><path id="NE" class="filled state" d="M470.3,204.3l-1-2.3-.5-1.6-2.9-1.6-4.8-1.5-2.2-1.2-2.6.1-3.7.4-4.2,1.2-6-4.1-2.2-2-10.7.6-41.5-2.4-35.6-2.2-4.3,43.7,33.1,3.3-1.4,21.1,21.7,1,40.6,1.2,43.8.6h4.5l-2.2-3-2.6-3.9.1-2.3-1.4-2.7-1.9-5.2-.4-6.7-1.4-4.1-.5-5-2.3-3.7-1-4.7-2.8-7.9-1-5.3Z"><title>Nebraska</title></path><path id="NH" class="state" d="M881.7,141.3l1.1-3.2-2.7-1.2-.5-3.1-4.1-1.1-.3-3L863.5,92.22l-.7.08-.6,1.6-.6-.5-1-1-1.5,1.9-.2,2.29.5,8.41,1.9,2.8v4.3l-3.9,4.8-2.4.9v.7l1.1,1.9V129l-.8,9.2-.2,4.7,1,1.4-.2,4.7-.5,1.5,1,1.1,5.1-1.2,13.8-3.5,1.7-2.9,4-1.9Z"><title>New Hampshire</title></path><path id="NJ" class="filled state" d="M823.7,228.3l.1-1.5,2.7-1.3,1.7-2.8,1.7-2.4,3.3-3.2v-1.2l-6.1-4.1-1-2.7-2.7-.3-.1-.9-.7-2.2,2.2-1.1.2-2.9-1.3-1.3.2-1.2,1.9-3.1V193l2.5-3.1,5.6,2.5,6.4,1.9,2.5,1.2.1,1.8-.5,2.7.4,4.5-2.1,1.9-1.1,1,.5.5,2.7-.3,1.1-.8,1.6,3.4.2,9.4.6,1.1-1.1,5.5-3.1,6.5-2.7,4-.8,4.8-2.1,2.4h-.8l-.3-2.7.8-1-.2-1.5-4-.6-4.8-2.3-3.2-2.9-1-2Z"><title>New Jersey</title></path><path id="NM" class="state" d="M270.2,429.4l-16.7-2.6-1.2,9.6-15.8-2,6-39.7,7-53.2,4.4-30.9,34,3.9,37.4,4.4,32,2.8-.3,10.8-1.4-.1-7.4,97.7-28.4-1.8-38.1-3.7.7,6.3Z"><title>New Mexico</title></path><path id="NV" class="filled state" d="M123.1,173.6l38.7,8.5,26,5.2-10.6,53.1-5.4,29.8-3.3,15.5-2.1,11.1-2.6,16.4-1.7,3.1-1.6-.1-1.2-2.6-2.8-.5-1.3-1.1-1.8.1-.9.8-1.8,1.3-.3,7.3-.3,1.5-.5,12.4-1.1,1.8-16.7-25.5-42.1-62.1-12.43-19,8.55-32.6,8.01-31.3Z"><title>Nevada</title></path><path id="NY" class="filled state" d="M843.4,200l.5-2.7-.2-2.4-3-1.5-6.5-2-6-2.6-.6-.4-2.7-.3-2-1.5-2.1-5.9-3.3-.5-2.4-2.4-38.4,8.1-31.6,6-.5-6.5,1.6-1.2,1.3-1.1,1-1.6,1.8-1.1,1.9-1.8.5-1.6,2.1-2.7,1.1-1-.2-1-1.3-3.1-1.8-.2-1.9-6.1,2.9-1.8,4.4-1.5,4-1.3,3.2-.5,6.3-.2,1.9,1.3,1.6.2,2.1-1.3,2.6-1.1,5.2-.5,2.1-1.8,1.8-3.2,1.6-1.9h2.1l1.9-1.1.2-2.3-1.5-2.1-.3-1.5,1.1-2.1v-1.5h-1.8l-1.8-.8-.8-1.1-.2-2.6,5.8-5.5.6-.8,1.5-2.9,2.9-4.5,2.7-3.7,2.1-2.4,2.4-1.8,3.1-1.2,5.5-1.3,3.2.2,4.5-1.5,7.4-2.2.7,4.9,2.4,6.5.8,5-1,4.2,2.6,4.5.8,2-.9,3.2,3.7,1.7,2.7,10.2v5.8l-.6,10.9.8,5.4.7,3.6,1.5,7.3v8.1l-1.1,2.3,2.1,2.7.5.9-1.9,1.8.3,1.3,1.3-.3,1.5-1.3,2.3-2.6,1.1-.6,1.6.6,2.3.2,7.9-3.9,2.9-2.7,1.3-1.5,4.2,1.6-3.4,3.6-3.9,2.9-7.1,5.3-2.6,1-5.8,1.9-4,1.1-1-.4Z"><title>New York</title></path><path id="OH" class="state" d="M663.8,211.2l1.7,15.5,4.8,41.1,3.9-.2,2.3-.8,3.6,1.8,1.7,4.2,5.4.1,1.8,2h1.7l2.4-1.4,3.1.5,1.5,1.3,1.8-2,2.3-1.4,2.4-.4.6,2.7,1.6,1,2.6,2,.8.2,2-.1,1.2-.6v-2.1l1.7-1.5.1-4.8,1.1-4.2,1.9-1.3,1,.7,1,1.1.7.2.4-.4-.9-2.7v-2.2l1.1-1.4,2.5-3.6,1.3-1.5,2.2.5,2.1-1.5,3-3.3,2.2-3.7.2-5.4.5-5V230l-1.2-3.2,1.2-1.8,1.3-1.2-.6-2.8-4.3-25.6-6.2,3.7-3.9,2.3-3.4,3.7-4,3.9-3.2.8-2.9.5-5.5,2.6-2.1.2-3.4-3.1-5.2.6-2.6-1.5-2.2-1.3Z"><title>Ohio</title></path><path id="OK" class="filled state" d="M411.9,334.9l-1.8,24.3-.9,18,.2,1.6,4,3.6,1.7.9h.9l.9-2.1,1.5,1.9,1.6.1.3-.2.2-1.1,2.8,1.4-.4,3.5,3.8.5,2.5,1,4.2.6,2.3,1.6,2.5-1.7,3.5.7,2.2,3.1,1.2.1V395l2.1.7,2.5-2.1,1.8.6,2.7.1.7,2.3,4.4,1.8,1.7-.3,1.9-4.2h1.3l1.1,2.1,4.2.8,3.4,1.3,3,.8,1.6-.7.7-2.7h4.5l1.9.9,2.7-1.9h1.4l.6,1.4h3.6l2-1.8,2.3.6,1.7,2.2,3,1.7,3.4.9,1.9,1.2-.3-37.6-1.4-10.9-.1-8.6-1.5-6.6-.6-6.8.1-4.3-12.6.3-46.3-.5-44.7-2.1-41.5-1.8-.4,10.7Z"><title>Oklahoma</title></path><path id="OR" class="filled state" d="M67.44,158.9l28.24,7.2,27.52,6.5,17,3.7,8.8-35.1,1.2-4.4,2.4-5.5-.7-1.3-2.5.1-1.3-1.8.6-1.5.4-3.3,4.7-5.7,1.9-.9.9-.8.7-2.7.8-1.1,3.9-5.7,3.7-4,.2-3.26-3.4-2.49-1.2-4.55-13.1-3.83L132.9,85l-14.8.37L117,84.06l-5.1,1.84-4.5-.48L105,83.84l-1.3.54-4.68-.29-1.96-1.43-4.84-1.77-1.1-.07-4.45-1.27-1.76,1.52-6.26-.24-5.31-3.85.21-9.28L71.5,64.2l-4.1-.6-.7-2.5-2.4-.5-5.8,2.1-2.3,6.5L53,79.2l-3.2,6.5-5,14.1-6.5,13.6L30.2,126l-1.9,2.9-.8,8.6-1.3,6,2.71,3.5Z"><title>Oregon</title></path><path id="PA" class="state" d="M736.6,192.2l1.3-.5,5.7-5.5.7,6.9,33.5-6.5,36.9-7.8,2.3,2.3,3.1.4,2,5.6,2.4,1.9,2.8.4.1.1-2.6,3.2v3.1l-1.9,3.1-.2,1.9,1.3,1.3-.2,1.9-2.4,1.1,1,3.4.2,1.1,2.8.3.9,2.5,5.9,3.9v.4l-3.1,3-1.5,2.2-1.7,2.8-2.7,1.2-1.4.3-2.1,1.3-1.6,1.4-22.4,4.3L757,241l-11.3,1.4-3.9.7-5.1-22.4-4.3-25.9Z"><title>Pennsylvania</title></path><path id="RI" class="state" d="M873.6,175.7l-.8-4.4-1.6-6,5.7-1.5,1.5,1.3,3.4,4.3,2.8,4.4-2.8,1.4-1.3-.2-1.1,1.8-2.4,1.9-2.8,1.1Z"><title>Rhode Island</title></path><path id="SC" class="state" d="M759,413.6l-2.1-1L755,407l-2.5-2.3-2.5-.5-1.5-4.6-3-6.5-4.2-1.8-1.9-1.8-1.2-2.6-2.4-2-2.3-1.3-2.2-2.9-3.2-2.4-4.4-1.7-.4-1.4-2.3-2.8-.5-1.5-3.8-5.4-3.4.1-3.9-2.5-1.2-1.2-.2-1.4.6-1.6,2.7-1.3-.8-2,6.4-2.7,9.2-4.5,7.1-.9,16.4-.5,2.3,1.9,1.8,3.5,4.6-.8,12.6-1.5,2.7.8,12.5,7.4,10.1,8.3-5.3,5.4-2.6,6.1-.5,6.3-1.6.8-1.1,2.7-2.4.6-2.1,3.6-2.7,2.7-2.3,3.4-1.6.8-3.6,3.4-2.9.2,1,3.2-5,5.3-2.3,1.6Z"><title>South Carolina</title></path><path id="SD" class="state" d="M471,181.1l-.9,3.2.4,3,2.6,2-1.2,5.4-1.8,4.1,1.5,3.3.7,1.1-1.3.1-.7-1.6-.6-2-3.3-1.8-4.8-1.5-2.5-1.3-2.9.1-3.9.4-3.8,1.2-5.3-3.8-2.7-2.4-10.9.8-41.5-2.4-35.6-2.2L354,162l2.8-34,.4-5,56.9,3.9,56.9,1.7v2.7l-1.3,1.5-2,1.5-.1,2.2,1.1,2.2,4.1,3.4.5,2.7v35.9Z"><title>South Dakota</title></path><path id="TN" class="state" d="M670.8,359.6l-13.1,1.2L634.4,363l-37.6,2.7-11.8.4.9-.6.9-4.5-1.2-3.6,3.9-2.3.4-2.5,1.2-4.3,3-9.5.5-5.6.3-.2,12.3-.2,13.6-.8.1-3.9,3.5-.1,30.4-3.3,54-5.2,10.3-1.5,7.6-.2,2.4-1.9,1.3.3-.1,3.3-.4,1.6-2.4,2.2-1.6,3.6-2-.4-2.4.9-2.2,3.3-1.4-.2-.8-1.2-1.1.4-4.3,4-.8,3.1-4.2,2.2-4.3,3.6-3.8,1.5-4.4,2.8-.6,3.6-2.5.5-2,1.7-.2,4.8Z"><title>Tennessee</title></path><path id="TX" class="filled state" d="M282.8,425.6l37,3.6,29.3,1.9,7.4-97.7,54.4,2.4-1.7,23.3-1,18,.2,2,4.4,4.1,2,1.1h1.8l.5-1.2.7.9,2.4.2,1.1-.6v-.2l1,.5-.4,3.7,4.5.7,2.4.9,4.2.7,2.6,1.8,2.8-1.9,2.7.6,2.2,3.1.8.1v2.1l3.3,1.1,2.5-2.1,1.5.5,2.1.1.6,2.1,5.2,2,2.3-.5,1.9-4h.1l1.1,1.9,4.6.9,3.4,1.3,3.2,1,2.4-1.2.7-2.3h3.6l2.1,1,3-2h.4l.5,1.4h4.7l1.9-1.8,1.3.4,1.7,2.1,3.3,1.9,3.4,1,2.5,1.4,2.7,2,3.1-1.2,2.1.8.7,20,.7,9.5.6,4.1,2.6,4.4.9,4.5,4.2,5.9.3,3.1.6.8-.7,7.7-2.9,4.8,1.3,2.6-.5,2.4-.8,7.2-1.3,3,.3,4.2-5.6,1.6-9.9,4.5-1,1.9-2.6,1.9-2.1,1.5-1.3.8-5.7,5.3-2.7,2.1-5.3,3.2-5.7,2.4-6.3,3.4-1.8,1.5-5.8,3.6-3.4.6-3.9,5.5-4,.3-1,1.9,2.3,1.9-1.5,5.5-1.3,4.5-1.1,3.9-.8,4.5.8,2.4,1.8,7,1,6.1,1.8,2.7-1,1.5-3.1,1.9-5.7-3.9-5.5-1.1-1.3.5-3.2-.6-4.2-3.1-5.2-1.1-7.6-3.4-2.1-3.9-1.3-6.5-3.2-1.9-.6-2.3.6-.6.3-3.4-1.3-.6-.6-1,1.3-4.4-1.6-2.3-3.2-1.3-3.4-4.4-3.6-6.6-4.2-2.6.2-1.9-5.3-12.3-.8-4.2-1.8-1.9-.2-1.5-6-5.3-2.6-3.1v-1.1l-2.6-2.1-6.8-1.1-7.4-.6-3.1-2.3-4.5,1.8-3.6,1.5-2.3,3.2-1,3.7-4.4,6.1-2.4,2.4-2.6-1-1.8-1.1-1.9-.6-3.9-2.3v-.6l-1.8-1.9-5.2-2.1-7.4-7.8-2.3-4.7v-8.1l-3.2-6.5-.5-2.7-1.6-1-1.1-2.1-5-2.1-1.3-1.6-7.1-7.9-1.3-3.2-4.7-2.3-1.5-4.4-2.6-2.9-1.7-.5ZM457.2,567.3l-.6-7.1-2.7-7.2-.6-7,1.5-8.2,3.3-6.9,3.5-5.4,3.2-3.6.6.2-4.8,6.6-4.4,6.5-2,6.6-.3,5.2.9,6.1,2.6,7.2.5,5.2.2,1.5Z"><title>Texas</title></path><path id="UT" class="state" d="M228.4,305.9l24.6,3.6,1.9-13.7,7-50.5,2.3-22L232,219.8l2.2-13.1,1.8-10.6L201.3,190l-12.5-2.5-10.6,52.9-5.4,30-3.3,15.4-1.7,9.2Z"><title>Utah</title></path><path id="VA" class="state" d="M834.7,265.2l-.2,2.8-2.9,3.8-.4,4.6.5,3.4-1.8,5-2.2,1.9-1.5-4.6.4-5.4,1.6-4.2.7-3.3-.1-1.7Zm-60.3,44.6-38.6,5.6-4.8-.1-2.2-.3-2.5,1.9-7.3.1-10.3,1.6-6.7.6,4.1-2.6,4.1-2.3v-2.1l5.7-7.3,4.1-3.7,2.2-2.5,3.6,4.3,3.8.9,2.7-1,2-1.5,2.4,1.2,4.6-1.3,1.7-4.4,2.4.7,3.2-2.3,1.6.4,2.8-3.2.2-2.7-.8-1.2,4.8-10.5,1.8-5.2.5-4.7.7-.2,1.1,1.7,1.5,1.2,3.9-.2,1.7-8.1,3-.6.8-2.6,2.8-2.2,1.1-2.1,1.8-4.3.1-4.6,3.6,1.4,6.6,3.1.3-5.2,3.4,1.2-.6,2.9,8.6,3.1,1.4,1.8-.8,3.3-1.3,1.3-.5,1.7.5,2.4,2,1.3,3.9,1.4,2.9,1,4.9.9,2.2,2.1,3.2.4.9,1.2-.4,4.7,1.4,1.1-.5,1.9,1.2.8-.2,1.4-2.7-.1.1,1.6,2.3,1.5.1,1.4,1.8,1.8.5,2.5-2.6,1.4,1.6,1.5,5.8-1.7,3.7,6.2Z"><title>Virginia</title></path><path id="VT" class="state" d="M832.7,111.3l2.4,6.5.8,5.3-1,3.9,2.5,4.4.9,2.3-.7,2.6,3.3,1.5,2.9,10.8v5.3l11.5-2.1-1-1.1.6-1.9.2-4.3-1-1.4.2-4.7.8-9.3v-8.5l-1.1-1.8v-1.6l2.8-1.1,3.5-4.4v-3.6l-1.9-2.7-.3-5.79-26.1,6.79Z"><title>Vermont</title></path><path id="WA" class="filled state" d="M74.5,67.7l-2.3-4.3-4.1-.7-.4-2.4-2.5-.6-2.9-.5-1.8,1-2.3-2.9.3-2.9,2.7-.3,1.6-4L60.2,49l.2-3.7,4.4-.6L62.1,42l-1.5-7.1.6-2.9V24.1l-1.8-3.2,2.3-9.4,2.1.5,2.4,2.9,2.7,2.6,3.2,1.9,4.5,2.1,3.1.6,2.9,1.5,3.4,1,2.3-.2V22l1.3-1.1,2.1-1.3.3,1.1.3,1.8L90,23l-.3,2.1,1.8,1.5L92.6,29l.6,1.9,1.5-.2.2-1.3-1-1.3-.5-3.2.8-1.8-.6-1.5V19l1.8-3.6-1.1-2.6L91.9,8l.3-.8,1.4-.8L98,7.9l9.7,2.7,8.6,1.9,20,5.7,23,5.7,15,3.49-4.8,17.56L165,65.78l-3.4,16.25-.4,9.18-12.9-3.72L133,84.02l-14.5.32-1.1-1.53-5.7,2.09-3.9-.42-2.6-1.79-1.7.65-4.15-.25-1.72-1.32-5.16-1.82-1.18-.16-4.8-1.39-1.92,1.65-5.65-.25-4.61-3.35Zm9.6-55.4,2-.2.5,1.4,1.5-1.6h2.3l.8,1.5-1.5,1.7.6.8-.7,2-1.4.4s-.9.1-.9-.2a19.97724,19.97724,0,0,1,1.5-2.6l-1.7-.6-.3,1.5-.7.6-1.5-2.3Z"><title>Washington</title></path><path id="WI" class="state" d="M541.4,109.9l2.9.5,2.9-.6,7.4-3.2,2.9-1.9,2.1-.8,1.9,1.5-1.1,1.1-1.9,3.1-.6,1.9,1,.6,1.8-1,1.1-.2,2.7.8.6,1.1,1.1.2.6-1.1,4,5.3,8.2,1.2,8.2,2.2,2.6,1.1,12.3,2.6,1.6,2.3,3.6,1.2L609,138l1.6,1.4,1.5.9-1.1,2.3-1.8,1.6-2.1,4.7-1.3,2.4.2,1.8,1.5.3,1.1-1.9,1.5-.8.8-2.3,1.9-1.8,2.7-4,4.2-6.3.8-.5.3,1-.2,2.3-2.9,6.8-2.7,5.7-.5,3.2-.6,2.6.8,1.3-.2,2.7-1.9,2.4-.5,1.8.6,3.6.6,3.4-1.5,2.6-.8,2.9-1,3.1,1.1,2.4.6,6.1,1.6,4.5-.2,3-15.9,1.8-17.5,1H567l-.7-1.5-2.9-.4-2.6-1.3-2.3-3.7-.3-3.6,2-2.9-.5-1.4-2.1-2.2-.8-3.3-.6-6.8-2.1-2.5-7-4.5-3.8-5.4-3.4-1-2.2-2.8h-3.2l-2.9-3.3-.5-6.5.1-3.8,1.5-3.1-.8-3.2-2.5-2.8,1.8-5.4,5.2-3.8,1.6-1.9-.2-8.1.2-2.8,2.4-2.8Z"><title>Wisconsin</title></path><path id="WV" class="state" d="M758.9,254.3l5.8-6,2.6-.8,1.6-1.5,1.5-2.2,1.1.3,3.1-.2,4.6-3.6,1.5-.5,1.3,1,2.6,1.2,3,3-.4,4.3-5.4-2.6-4.8-1.8-.1,5.9-2.6,5.7-2.9,2.4-.8,2.3-3,.5-1.7,8.1-2.8.2-1.1-1-1.2-2-2.2.5-.5,5.1-1.8,5.1-5,11,.9,1.4-.1,2-2.2,2.5-1.6-.4-3.1,2.3-2.8-.8-1.8,4.9-3.8,1-2.5-1.3-2.5,1.9-2.3.7-3.2-.8-3.8-4.5-3.5-2.2-2.5-2.5-2.9-3.7-.5-2.3-2.8-1.7-.6-1.3-.2-5.6.3.1,2.4-.2,1.8-1V275l1.7-1.5.1-5.2.9-3.6,1.1-.7.4.3,1,1.1,1.7.5,1.1-1.3-1-3.1v-1.6l3.1-4.6,1.2-1.3,2,.5,2.6-1.8,3.1-3.4,2.4-4.1.2-5.6.5-4.8v-4.9l-1.1-3,.9-1.3.8-.7,4.3,19.3,4.3-.8,11.2-1.3Z"><title>West Virginia</title></path><path id="WY" class="state" d="M353,161.9l-1.5,25.4-4.4,44-2.7-.3-83.3-9.1-27.9-3,2-12,6.9-41,3.8-24.2,1.3-11.2,48.2,7,59.1,6.5Z"><title>Wyoming</title></path><circle id="DC" class="filled state" stroke-width="1.5px" stroke="#FFF" cx="801.29999" cy="251.8" r="4.99999"><title>Washington, DC</title></circle></g><g id="Pins"><use width="15.7046" height="20.27691" transform="translate(89.47529 310.25589)" xlink:href="#Pin"/><use width="15.7046" height="20.27691" transform="translate(18.84769 211.72323)" xlink:href="#Pin"/><use width="15.7046" height="20.27691" transform="translate(838.29776 160.31884)" xlink:href="#Pin"/><use width="15.7046" height="20.27691" transform="translate(850.79776 165.93577)" xlink:href="#Pin"/><use width="15.7046" height="20.27691" transform="translate(846.15005 162.48248)" xlink:href="#Pin"/><use width="15.7046" height="20.27691" transform="translate(841.82474 171.89973)" xlink:href="#Pin"/><use width="15.7046" height="20.27691" transform="translate(58.47532 275.5125)" xlink:href="#Pin"/><use width="15.7046" height="20.27691" transform="translate(38.12921 205.92484)" xlink:href="#Pin"/><use width="15.7046" height="20.27691" transform="translate(33.31784 218.15141)" xlink:href="#Pin"/><use width="15.7046" height="20.27691" transform="translate(83.65001 327.25837)" xlink:href="#Pin"/><use width="15.7046" height="20.27691" transform="translate(78.59534 326.26154)" xlink:href="#Pin"/><use width="15.7046" height="20.27691" transform="translate(79.59534 330.6365)" xlink:href="#Pin"/><use width="15.7046" height="20.27691" transform="translate(708.72222 424.9443)" xlink:href="#Pin"/><use width="15.7046" height="20.27691" transform="translate(71.24305 327.36898)" xlink:href="#Pin"/><use width="15.7046" height="20.27691" transform="translate(667.49994 177.09322)" xlink:href="#Pin"/><use width="15.7046" height="20.27691" transform="translate(30.27691 217.76201)" xlink:href="#Pin"/><use width="15.7046" height="20.27691" transform="translate(679.74768 362.39373)" xlink:href="#Pin"/><use width="15.7046" height="20.27691" transform="translate(61.6477 288.25161)" xlink:href="#Pin"/><use width="15.7046" height="20.27691" transform="translate(832.19995 182.2594)" xlink:href="#Pin"/><use width="15.7046" height="20.27691" transform="translate(873.74942 136.43723)" xlink:href="#Pin"/><use width="15.7046" height="20.27691" transform="translate(102.48777 334.95757)" xlink:href="#Pin"/><use width="15.7046" height="20.27691" transform="translate(182.38407 365.05003)" xlink:href="#Pin"/><use width="15.7046" height="20.27691" transform="translate(743.74749 327.00193)" xlink:href="#Pin"/><use width="15.7046" height="20.27691" transform="translate(609.31299 192.21913)" xlink:href="#Pin"/><use width="15.7046" height="20.27691" transform="translate(323.41243 262.31154)" xlink:href="#Pin"/><use width="15.7046" height="20.27691" transform="translate(681.34111 176.98262)" xlink:href="#Pin"/><use width="15.7046" height="20.27691" transform="translate(779.74755 302.22307)" xlink:href="#Pin"/><use width="15.7046" height="20.27691" transform="translate(276.70674 410.31548)" xlink:href="#Pin"/><use width="15.7046" height="20.27691" transform="translate(20.92988 222.19351)" xlink:href="#Pin"/><use width="15.7046" height="20.27691" transform="translate(50.3477 90.36688)" xlink:href="#Pin"/><use width="15.7046" height="20.27691" transform="translate(25.46554 227.17926)" xlink:href="#Pin"/><use width="15.7046" height="20.27691" transform="translate(51.12302 270.489)" xlink:href="#Pin"/><use width="15.7046" height="20.27691" transform="translate(457.54766 404.9615)" xlink:href="#Pin"/><use width="15.7046" height="20.27691" transform="translate(604.94204 447.67886)" xlink:href="#Pin"/><use width="15.7046" height="20.27691" transform="translate(487.89541 470.27697)" xlink:href="#Pin"/><use width="15.7046" height="20.27691" transform="translate(637.138 234.76494)" xlink:href="#Pin"/><use width="15.7046" height="20.27691" transform="translate(77.70765 335.45757)" xlink:href="#Pin"/><use width="15.7046" height="20.27691" transform="translate(49.51416 310.36649)" xlink:href="#Pin"/><use width="15.7046" height="20.27691" transform="translate(842.94546 180.81697)" xlink:href="#Pin"/><use width="15.7046" height="20.27691" transform="translate(836.634 181.53818)" xlink:href="#Pin"/><use width="15.7046" height="20.27691" transform="translate(88.19768 12.51187)" xlink:href="#Pin"/><use width="15.7046" height="20.27691" transform="translate(74.81778 305.25674)" xlink:href="#Pin"/><use width="15.7046" height="20.27691" transform="translate(135.3 293.2331)" xlink:href="#Pin"/><use width="15.7046" height="20.27691" transform="translate(671.86824 272.21155)" xlink:href="#Pin"/><use width="15.7046" height="20.27691" transform="translate(648.09539 270.07804)" xlink:href="#Pin"/><use width="15.7046" height="20.27691" transform="translate(123.44649 38.66654)" xlink:href="#Pin"/><use width="15.7046" height="20.27691" transform="translate(83.65001 345.26154)" xlink:href="#Pin"/><use width="15.7046" height="20.27691" transform="translate(86.94764 360.66156)" xlink:href="#Pin"/><use width="15.7046" height="20.27691" transform="translate(89.47529 360.55095)" xlink:href="#Pin"/><use width="15.7046" height="20.27691" transform="translate(58.47532 319.78374)" xlink:href="#Pin"/><use width="15.7046" height="20.27691" transform="translate(669.72215 447.58144)" xlink:href="#Pin"/><use width="15.7046" height="20.27691" transform="translate(73.42384 199.89718)" xlink:href="#Pin"/><use width="15.7046" height="20.27691" transform="translate(682.04773 364.27882)" xlink:href="#Pin"/><use width="15.7046" height="20.27691" transform="translate(82.12299 288.141)" xlink:href="#Pin"/><use width="15.7046" height="20.27691" transform="translate(582.54773 183.78277)" xlink:href="#Pin"/><use width="15.7046" height="20.27691" transform="translate(454.94781 207.41038)" xlink:href="#Pin"/><use width="15.7046" height="20.27691" transform="translate(42.16186 228.17926)" xlink:href="#Pin"/><use width="15.7046" height="20.27691" transform="translate(49.02244 232.44257) scale(0.99947 1.03454)" xlink:href="#Pin"/><use width="15.7046" height="20.27691" transform="translate(469.69549 322.54035)" xlink:href="#Pin"/><use width="15.7046" height="20.27691" transform="translate(67.8524 56.66978)" xlink:href="#Pin"/><use width="15.7046" height="20.27691" transform="translate(271.84771 509.16153)" xlink:href="#Pin"/><use width="15.7046" height="20.27691" transform="translate(793.49771 231.52308)" xlink:href="#Pin"/><use width="15.7046" height="20.27691" transform="translate(28.28218 245.77317)" xlink:href="#Pin"/><use width="15.7046" height="20.27691" transform="translate(28.78218 251.34074)" xlink:href="#Pin"/><use width="15.7046" height="20.27691" transform="translate(788.60949 513.76239)" xlink:href="#Pin"/><use width="15.7046" height="20.27691" transform="translate(41.1397 127.72309)" xlink:href="#Pin"/></g><path id="AL_HI_Lines" d="M215,493v55l36,45M0,425H147l68,68h85l54,54v46"/></svg>