<?xml version="1.0" encoding="utf-8"?>
<!-- Generator: Adobe Illustrator 23.0.6, SVG Export Plug-In . SVG Version: 6.00 Build 0)  -->
<svg version="1.1" id="Layer_1" xmlns="http://www.w3.org/2000/svg" xmlns:xlink="http://www.w3.org/1999/xlink" x="0px" y="0px"
	 viewBox="0 0 100 100" style="enable-background:new 0 0 100 100;" xml:space="preserve">
<style type="text/css">
	.st0{fill:#FF0000;}
	.st1{fill:#FFFFFF;}
</style>
<g>
	<path class="st0" d="M54.874,56.324c-0.068,0-0.212-0.011-0.285-0.021c-0.117-0.014-0.234-0.036-0.352-0.065
		c-0.14-0.049-0.276-0.105-0.409-0.168c-0.083-0.039-0.245-0.119-0.321-0.166c-0.054-0.035-0.138-0.1-0.21-0.154l-0.137-0.107
		c-0.096-0.071-0.233-0.179-0.303-0.243c-0.099-0.097-0.192-0.198-0.28-0.306c-0.09-0.11-0.257-0.347-0.342-0.476
		c-0.114-0.174-0.333-0.534-0.435-0.721c-0.125-0.226-0.354-0.7-0.514-1.039c-0.064-0.139-0.832-1.869-0.832-1.869
		s-0.385-0.777-0.405-0.822c-0.041-0.086-0.1-0.22-0.16-0.359c-0.074-0.17-0.151-0.346-0.206-0.458
		c-0.074-0.153-0.213-0.415-0.325-0.625l-0.509-0.957c-0.119-0.23-0.352-0.695-0.465-0.929c-0.097-0.202-0.288-0.608-0.376-0.814
		c-0.099-0.23-0.293-0.716-0.388-0.977c-0.052-0.143-0.132-0.39-0.198-0.59l-0.116-0.35c-0.063-0.188-0.146-0.437-0.188-0.579
		c-0.059-0.197-0.159-0.554-0.199-0.734c-0.052-0.23-0.134-0.667-0.162-0.881c-0.038-0.278-0.059-0.563-0.062-0.845
		c0.01-0.164,0.038-0.324,0.08-0.475c0.067-0.161,0.149-0.306,0.243-0.438c0.109-0.13,0.224-0.243,0.34-0.339
		c0.127-0.097,0.264-0.183,0.406-0.257c0.232-0.104,0.472-0.183,0.721-0.238c0.122-0.013,0.235-0.019,0.351-0.019
		s0.235,0.006,0.35,0.019c0.262,0.056,0.51,0.135,0.752,0.238c0.199,0.101,0.391,0.213,0.572,0.333l0.565,0.343
		c0.243,0.147,0.521,0.312,0.693,0.408c0.114,0.063,0.582,0.319,0.821,0.422c0.167,0.069,0.341,0.129,0.515,0.178
		c0.107,0.026,0.222,0.042,0.337,0.046c0.169-0.024,0.334-0.074,0.495-0.157c0.167-0.103,0.324-0.235,0.458-0.39
		c0.1-0.138,0.178-0.291,0.23-0.457c0.045-0.242,0.067-0.494,0.064-0.753l0.003-0.132c0.015-0.277,0.015-0.554,0.002-0.831
		c-0.031-0.211-0.076-0.433-0.134-0.651c-0.07-0.273-0.159-0.539-0.267-0.793c-0.031-0.056-0.071-0.121-0.118-0.188l-0.062-0.09
		l0.265-0.352c0.057-0.081,0.177-0.253,0.232-0.34c0.045-0.071,0.109-0.183,0.172-0.292c0.04-0.069,0.4-0.688,0.464-0.789
		c0.08-0.127,0.232-0.37,0.316-0.479c0.066-0.086,0.21-0.248,0.403-0.456c0.118-0.125,0.344-0.35,0.458-0.45
		c0.146-0.127,0.461-0.363,0.627-0.482c0.146-0.104,0.41-0.284,0.543-0.361c0.1-0.058,0.282-0.146,0.424-0.214l0.118-0.057
		c0.218-0.109,0.406-0.202,0.515-0.245c0.142-0.056,0.432-0.144,0.616-0.2c0.207-0.062,0.484-0.143,0.626-0.175
		c0.148-0.035,0.444-0.09,0.584-0.107c0.19-0.022,0.575-0.041,0.758-0.041c0.198,0,0.588,0.021,0.786,0.041
		c0.195,0.02,0.394,0.051,0.579,0.089c0.162,0.045,0.312,0.096,0.456,0.154c0.169,0.069,0.336,0.147,0.486,0.229
		c0.169,0.105,0.324,0.215,0.466,0.329c0.131,0.112,0.253,0.231,0.364,0.355c0.072,0.085,0.2,0.266,0.353,0.501
		c0.087,0.134,0.25,0.408,0.327,0.547c0.116,0.213,0.315,0.617,0.399,0.818c0.104,0.248,0.28,0.769,0.366,1.05
		c0.076,0.243,0.213,0.736,0.269,0.981c0.04,0.179,0.099,0.541,0.122,0.712c0.025,0.182,0.067,0.548,0.081,0.732
		c0.015,0.194,0.029,0.583,0.033,0.78c0.009,0.37,0.014,1.08-0.002,1.43c-0.005,0.185-0.035,0.532-0.056,0.773
		c-0.034,0.396-0.092,1.022-0.128,1.333c-0.035,0.298-0.114,0.897-0.161,1.194c-0.033,0.206-0.092,0.518-0.15,0.824l-0.141,0.74
		c0,0-0.15,0.903-0.176,1.042c-0.037,0.2-0.442,2.178-0.442,2.178c-0.046,0.213-0.141,0.634-0.194,0.842
		c-0.036,0.141-0.234,0.838-0.315,1.118l-0.195,0.667l-0.292-0.066c0.054-0.315,0.101-0.592,0.121-0.753
		c0.025-0.231,0.059-0.7,0.079-1.005c0.024-0.382,0.052-0.811,0.051-1.049c-0.001-0.245-0.029-0.732-0.059-0.984
		c-0.013-0.188-0.042-0.374-0.089-0.553c-0.072-0.181-0.166-0.358-0.282-0.527c-0.112-0.145-0.238-0.283-0.38-0.409
		c-0.215-0.165-0.443-0.321-0.683-0.463c-0.119-0.073-0.41-0.243-0.569-0.317c-0.216-0.097-0.442-0.182-0.668-0.252
		c-0.149-0.041-0.416-0.084-0.681-0.125c-0.107-0.017-0.264-0.035-0.425-0.053c-0.176-0.02-0.354-0.041-0.472-0.06
		c-0.208-0.035-0.62-0.122-0.825-0.167l-0.345-0.08c-0.311-0.075-0.554-0.133-0.708-0.165c-0.114-0.022-0.289-0.048-0.462-0.075
		l-0.729-0.122c-0.25-0.05-0.504-0.099-0.666-0.113c-0.069-0.006-0.17-0.008-0.274-0.008c-0.149,0-0.309,0.004-0.409,0.007
		c-0.297,0.01-0.528,0.026-0.649,0.046c-0.197,0.037-0.397,0.087-0.588,0.15c-0.167,0.061-0.328,0.135-0.482,0.225
		c-0.205,0.14-0.368,0.33-0.476,0.559c-0.044,0.113-0.075,0.23-0.091,0.349c-0.01,0.111-0.008,0.224,0.007,0.338
		c0.021,0.104,0.056,0.206,0.103,0.3c0.075,0.12,0.166,0.233,0.271,0.331c0.088,0.07,0.185,0.139,0.291,0.2
		c0.062,0.038,0.164,0.09,0.26,0.14l0.24,0.126c0.16,0.087,0.422,0.23,0.558,0.309l0.859,0.502c0.171,0.1,0.51,0.309,0.679,0.414
		c0.441,0.27,0.641,0.393,0.731,0.464c0.118,0.07,0.231,0.141,0.292,0.191c0.125,0.105,0.246,0.224,0.354,0.347
		c0.064,0.087,0.121,0.177,0.17,0.272c0.043,0.096,0.079,0.195,0.108,0.296c0.028,0.097,0.05,0.191,0.066,0.288
		c0.011,0.122,0.013,0.245,0.005,0.366c-0.003,0.078-0.025,0.228-0.041,0.331c-0.03,0.189-0.079,0.448-0.104,0.577
		c-0.024,0.117-0.071,0.347-0.097,0.459c-0.03,0.125-0.095,0.375-0.13,0.502c-0.044,0.165-0.137,0.491-0.187,0.652
		c-0.028,0.093-0.349,1.028-0.381,1.117c-0.048,0.128-0.146,0.376-0.2,0.497c-0.027,0.063-0.283,0.581-0.283,0.581
		c-0.059,0.125-0.106,0.225-0.141,0.285c-0.074,0.134-0.158,0.262-0.252,0.388c-0.171,0.213-0.383,0.391-0.617,0.52
		c-0.098,0.059-0.196,0.109-0.299,0.152c-0.112,0.038-0.229,0.068-0.348,0.09c-0.113,0.018-0.228,0.026-0.346,0.031h-0.002H54.874z"
		/>
	<path d="M61.235,31.958c0.194,0,0.576,0.02,0.771,0.04c0.19,0.02,0.384,0.049,0.564,0.087c0.146,0.041,0.292,0.09,0.431,0.146
		c0.163,0.066,0.324,0.143,0.471,0.222c0.155,0.097,0.306,0.204,0.443,0.314c0.122,0.104,0.239,0.22,0.347,0.338
		c0.067,0.079,0.19,0.255,0.338,0.482c0.086,0.132,0.246,0.401,0.321,0.538c0.114,0.209,0.311,0.606,0.393,0.803
		c0.104,0.245,0.276,0.759,0.361,1.036c0.076,0.241,0.211,0.728,0.266,0.97c0.039,0.176,0.097,0.531,0.12,0.699
		c0.025,0.18,0.066,0.542,0.08,0.723c0.015,0.192,0.028,0.578,0.032,0.771c0.009,0.368,0.014,1.073-0.001,1.421
		c-0.006,0.194-0.038,0.562-0.059,0.801c-0.031,0.36-0.089,0.984-0.125,1.294c-0.034,0.297-0.113,0.893-0.16,1.188
		c-0.035,0.222-0.102,0.568-0.164,0.897l-0.126,0.663c0,0-0.15,0.904-0.176,1.042c-0.037,0.199-0.106,0.54-0.164,0.82l-0.277,1.355
		c-0.046,0.21-0.14,0.628-0.193,0.835c-0.036,0.141-0.233,0.835-0.314,1.114c-0.048,0.167-0.194,0.667-0.194,0.667l0.01-0.059
		c0.044-0.259,0.091-0.537,0.111-0.7c0.026-0.234,0.06-0.707,0.08-1.013c0.025-0.387,0.053-0.819,0.052-1.06
		c-0.001-0.249-0.03-0.745-0.06-1c-0.013-0.189-0.044-0.385-0.093-0.574c-0.081-0.206-0.18-0.394-0.304-0.575
		c-0.123-0.159-0.256-0.304-0.404-0.436c-0.228-0.175-0.461-0.335-0.706-0.48c-0.12-0.074-0.419-0.249-0.583-0.324
		c-0.223-0.1-0.455-0.188-0.686-0.259c-0.158-0.043-0.432-0.088-0.703-0.13c-0.108-0.017-0.268-0.035-0.431-0.053
		c-0.173-0.02-0.349-0.04-0.465-0.059c-0.205-0.034-0.613-0.121-0.816-0.166c-0.091-0.02-0.212-0.048-0.342-0.08l-0.053-0.013
		c-0.26-0.063-0.505-0.122-0.661-0.153c-0.129-0.025-0.333-0.055-0.526-0.084l-0.669-0.113c-0.252-0.05-0.512-0.1-0.678-0.115
		c-0.074-0.006-0.179-0.009-0.288-0.009c-0.151,0-0.312,0.004-0.414,0.008c-0.306,0.01-0.544,0.028-0.669,0.048
		c-0.207,0.039-0.414,0.091-0.61,0.155c-0.18,0.065-0.349,0.144-0.511,0.238c-0.233,0.159-0.417,0.371-0.536,0.625
		c-0.052,0.132-0.086,0.26-0.104,0.394c-0.012,0.126-0.01,0.251,0.007,0.377c0.025,0.125,0.062,0.238,0.116,0.347
		c0.088,0.142,0.187,0.265,0.303,0.374c0.102,0.083,0.205,0.155,0.318,0.221c0.068,0.042,0.189,0.104,0.298,0.16l0.208,0.109
		c0.157,0.085,0.417,0.228,0.552,0.306l0.859,0.501c0.169,0.1,0.507,0.308,0.675,0.412c0.434,0.265,0.629,0.385,0.718,0.455
		l0.001-0.001c0.124,0.077,0.231,0.143,0.288,0.19c0.118,0.099,0.234,0.213,0.337,0.33c0.052,0.071,0.104,0.154,0.149,0.242
		c0.037,0.083,0.071,0.176,0.099,0.27c0.026,0.091,0.047,0.18,0.062,0.271c0.008,0.102,0.01,0.217,0.003,0.332
		c-0.004,0.084-0.029,0.248-0.044,0.347c-0.025,0.157-0.074,0.413-0.1,0.541c-0.023,0.116-0.07,0.344-0.096,0.455
		c-0.029,0.122-0.094,0.37-0.128,0.496c-0.044,0.164-0.136,0.487-0.186,0.646c-0.028,0.093-0.346,1.022-0.378,1.11
		c-0.047,0.125-0.143,0.368-0.196,0.486c-0.028,0.066-0.281,0.577-0.281,0.577c-0.058,0.123-0.103,0.219-0.136,0.276
		c-0.072,0.13-0.152,0.253-0.242,0.373c-0.156,0.194-0.352,0.358-0.569,0.479c-0.096,0.057-0.188,0.104-0.285,0.146
		c-0.095,0.031-0.204,0.06-0.316,0.08c-0.103,0.016-0.212,0.024-0.323,0.028c-0.063,0-0.197-0.01-0.266-0.019
		c-0.112-0.014-0.224-0.035-0.335-0.062c-0.121-0.043-0.253-0.098-0.382-0.158c-0.078-0.037-0.233-0.113-0.307-0.158
		c-0.048-0.031-0.128-0.093-0.196-0.146l-0.137-0.106c-0.093-0.07-0.226-0.173-0.293-0.235c-0.092-0.09-0.182-0.188-0.266-0.29
		c-0.087-0.107-0.25-0.338-0.333-0.464c-0.112-0.171-0.328-0.525-0.428-0.709c-0.124-0.225-0.352-0.695-0.51-1.031
		c-0.063-0.138-0.491-1.107-0.491-1.107l-0.036-0.084c-0.106-0.238-0.229-0.514-0.305-0.677c-0.019-0.04-0.077-0.158-0.145-0.293
		l-0.065-0.132c-0.086-0.174-0.171-0.345-0.194-0.396c-0.042-0.088-0.1-0.22-0.159-0.357c-0.075-0.172-0.153-0.351-0.208-0.464
		c-0.077-0.158-0.221-0.428-0.334-0.642l-0.503-0.944c-0.118-0.228-0.35-0.69-0.462-0.924c-0.096-0.201-0.286-0.604-0.374-0.808
		c-0.098-0.228-0.291-0.71-0.385-0.969c-0.051-0.142-0.131-0.386-0.196-0.585l-0.116-0.35c-0.063-0.188-0.145-0.434-0.188-0.575
		c-0.058-0.193-0.156-0.545-0.196-0.724c-0.051-0.227-0.132-0.656-0.159-0.868c-0.038-0.273-0.058-0.552-0.061-0.827
		c0.01-0.146,0.036-0.295,0.075-0.434c0.059-0.137,0.136-0.272,0.221-0.392c0.096-0.113,0.204-0.22,0.313-0.311
		c0.116-0.088,0.245-0.169,0.379-0.239c0.216-0.097,0.45-0.173,0.683-0.224c0.099-0.009,0.208-0.015,0.319-0.015
		c0.11,0,0.223,0.005,0.333,0.018c0.244,0.053,0.484,0.131,0.711,0.227c0.185,0.094,0.371,0.203,0.549,0.32l0.569,0.346
		c0.246,0.148,0.525,0.315,0.699,0.411c0.115,0.064,0.591,0.324,0.834,0.428c0.175,0.072,0.354,0.135,0.533,0.185
		c0.123,0.03,0.247,0.047,0.373,0.051c0.22-0.029,0.399-0.087,0.568-0.173c0.188-0.115,0.356-0.256,0.503-0.424
		c0.116-0.161,0.201-0.326,0.26-0.51c0.051-0.266,0.075-0.525,0.072-0.8l0.003-0.127c0.015-0.278,0.015-0.56,0.001-0.842
		c-0.033-0.231-0.079-0.458-0.138-0.682c-0.072-0.279-0.164-0.552-0.273-0.813c-0.041-0.075-0.084-0.144-0.133-0.215
		c0,0,0.025-0.033,0.034-0.045c0.041-0.055,0.165-0.221,0.165-0.221c0.061-0.086,0.183-0.261,0.239-0.35
		c0.046-0.072,0.111-0.186,0.175-0.297l0.04-0.068c0,0,0.357-0.615,0.421-0.715c0.073-0.117,0.226-0.36,0.309-0.468
		c0.064-0.084,0.205-0.242,0.394-0.445c0.115-0.121,0.335-0.341,0.447-0.438c0.144-0.125,0.453-0.356,0.616-0.474
		c0.143-0.101,0.4-0.278,0.53-0.354c0.103-0.059,0.295-0.151,0.436-0.219l0.096-0.046c0.216-0.107,0.399-0.199,0.506-0.241
		c0.141-0.056,0.432-0.144,0.612-0.198c0.195-0.059,0.469-0.139,0.607-0.17c0.146-0.034,0.433-0.088,0.569-0.104
		C60.681,31.977,61.057,31.958,61.235,31.958 M61.235,31.658c-0.187,0-0.574,0.019-0.774,0.042c-0.146,0.018-0.449,0.075-0.602,0.11
		c-0.142,0.033-0.424,0.115-0.626,0.175c-0.197,0.06-0.493,0.15-0.637,0.207c-0.112,0.045-0.304,0.139-0.529,0.252l-0.092,0.044
		c-0.167,0.081-0.354,0.171-0.456,0.23c-0.137,0.08-0.405,0.263-0.554,0.369c-0.166,0.119-0.484,0.357-0.64,0.492
		c-0.117,0.102-0.347,0.331-0.468,0.458c-0.2,0.215-0.347,0.381-0.414,0.469c-0.086,0.111-0.243,0.36-0.321,0.485
		c-0.067,0.107-0.43,0.73-0.43,0.73l-0.039,0.066c-0.063,0.111-0.126,0.22-0.17,0.289c-0.055,0.086-0.173,0.255-0.231,0.338
		l-0.16,0.214l-0.033,0.043l-0.132,0.174l0.125,0.179c0.043,0.062,0.08,0.122,0.116,0.188c0.09,0.219,0.178,0.479,0.246,0.744
		c0.056,0.213,0.1,0.431,0.131,0.649c0.011,0.246,0.01,0.519-0.004,0.783l-0.003,0.136c0.003,0.259-0.019,0.501-0.067,0.751
		c-0.04,0.118-0.109,0.253-0.208,0.39c-0.107,0.121-0.253,0.244-0.416,0.344c-0.126,0.063-0.275,0.109-0.451,0.132
		c-0.056-0.006-0.16-0.02-0.262-0.045c-0.158-0.045-0.326-0.103-0.49-0.171c-0.212-0.091-0.652-0.329-0.803-0.413
		c-0.172-0.095-0.448-0.26-0.69-0.405l-0.568-0.345c-0.184-0.121-0.378-0.234-0.569-0.331c-0.27-0.115-0.527-0.197-0.783-0.253
		c-0.15-0.018-0.275-0.025-0.396-0.025c-0.121,0-0.239,0.006-0.347,0.016c-0.295,0.063-0.545,0.145-0.778,0.249
		c-0.169,0.088-0.31,0.177-0.438,0.274c-0.136,0.114-0.258,0.234-0.361,0.356c-0.116,0.161-0.203,0.316-0.267,0.467
		c-0.058,0.198-0.087,0.369-0.098,0.531c0.002,0.312,0.024,0.603,0.063,0.888c0.028,0.218,0.109,0.652,0.164,0.893
		c0.041,0.183,0.142,0.545,0.201,0.743c0.043,0.144,0.127,0.394,0.191,0.585l0.115,0.349c0.066,0.201,0.147,0.45,0.199,0.593
		c0.096,0.263,0.292,0.753,0.391,0.985c0.089,0.208,0.281,0.616,0.379,0.82c0.113,0.236,0.347,0.703,0.466,0.932l0.505,0.948
		c0.117,0.22,0.255,0.48,0.329,0.632c0.053,0.11,0.129,0.284,0.203,0.453c0.061,0.141,0.12,0.276,0.163,0.367
		c0.018,0.039,0.083,0.172,0.157,0.32l0.04,0.08l0.066,0.132c0.066,0.132,0.123,0.247,0.141,0.286
		c0.075,0.162,0.197,0.436,0.303,0.673l0.034,0.08c0.001,0.002,0.431,0.976,0.494,1.114c0.17,0.361,0.395,0.825,0.52,1.051
		c0.102,0.189,0.325,0.554,0.44,0.729c0.087,0.133,0.259,0.375,0.351,0.488c0.092,0.113,0.19,0.218,0.289,0.316
		c0.079,0.073,0.221,0.184,0.322,0.26l0.134,0.104c0.076,0.059,0.164,0.126,0.217,0.16c0.087,0.054,0.257,0.137,0.342,0.178
		c0.139,0.065,0.28,0.124,0.41,0.17c0.152,0.039,0.275,0.062,0.399,0.078c0.076,0.01,0.229,0.021,0.302,0.021
		c0.134-0.005,0.255-0.014,0.368-0.032c0.135-0.025,0.258-0.057,0.365-0.092c0.132-0.055,0.236-0.109,0.344-0.172
		c0.243-0.134,0.471-0.325,0.65-0.549c0.104-0.139,0.192-0.274,0.271-0.415c0.034-0.058,0.083-0.162,0.145-0.295l0,0
		c0,0,0.257-0.519,0.286-0.587c0.053-0.116,0.153-0.369,0.201-0.499c0.033-0.091,0.355-1.034,0.384-1.128
		c0.05-0.16,0.144-0.489,0.188-0.656c0.035-0.127,0.1-0.38,0.13-0.504c0.027-0.116,0.074-0.348,0.098-0.466
		c0.026-0.131,0.076-0.392,0.102-0.553c0.021-0.141,0.044-0.297,0.047-0.381c0.007-0.124,0.005-0.254-0.003-0.368
		c-0.021-0.13-0.044-0.229-0.073-0.331c-0.031-0.108-0.071-0.214-0.113-0.309c-0.059-0.116-0.12-0.213-0.181-0.295
		c-0.129-0.149-0.257-0.275-0.387-0.384c-0.065-0.054-0.184-0.129-0.323-0.215l-0.004-0.002c-0.11-0.081-0.303-0.199-0.716-0.452
		c-0.168-0.104-0.508-0.314-0.679-0.415l-0.861-0.502c-0.138-0.079-0.401-0.224-0.56-0.31l-0.212-0.111
		c-0.126-0.065-0.224-0.116-0.282-0.151c-0.104-0.061-0.196-0.124-0.285-0.197c-0.079-0.075-0.161-0.178-0.237-0.299
		c-0.027-0.058-0.056-0.145-0.077-0.248c-0.01-0.082-0.012-0.184-0.002-0.29c0.013-0.095,0.041-0.201,0.084-0.312
		c0.088-0.185,0.234-0.355,0.426-0.486c0.127-0.073,0.278-0.143,0.444-0.204c0.172-0.056,0.365-0.105,0.563-0.142
		c0.106-0.017,0.342-0.034,0.624-0.043c0.099-0.003,0.256-0.007,0.404-0.007c0.1,0,0.195,0.002,0.263,0.007
		c0.147,0.013,0.397,0.061,0.645,0.11l0.678,0.115l0.063,0.01c0.171,0.026,0.344,0.052,0.457,0.074
		c0.152,0.03,0.392,0.088,0.647,0.15l0.053,0.013c0.133,0.032,0.256,0.061,0.349,0.081c0.206,0.045,0.621,0.133,0.83,0.168
		c0.122,0.019,0.303,0.041,0.48,0.061c0.159,0.018,0.314,0.036,0.419,0.052c0.234,0.036,0.521,0.082,0.669,0.123
		c0.214,0.067,0.433,0.15,0.642,0.244c0.142,0.065,0.428,0.232,0.549,0.306c0.235,0.139,0.456,0.29,0.68,0.462
		c0.115,0.104,0.235,0.233,0.35,0.382c0.099,0.146,0.188,0.314,0.262,0.501c0.032,0.133,0.061,0.312,0.073,0.484
		c0.029,0.255,0.058,0.743,0.059,0.982c0.001,0.227-0.025,0.638-0.051,1.039c-0.02,0.302-0.053,0.768-0.079,0.999
		c-0.02,0.156-0.066,0.429-0.109,0.683l-0.01,0.06l0.584,0.133l0.194-0.667c0.082-0.282,0.281-0.981,0.317-1.123
		c0.054-0.209,0.149-0.632,0.196-0.845l0.278-1.359c0.058-0.282,0.128-0.625,0.165-0.825c0.026-0.14,0.177-1.048,0.177-1.048
		l0.125-0.656l0.015-0.079c0.059-0.308,0.118-0.621,0.151-0.828c0.047-0.298,0.127-0.9,0.162-1.201
		c0.036-0.312,0.094-0.939,0.126-1.302c0.024-0.277,0.054-0.629,0.06-0.818c0.015-0.348,0.01-1.059,0.001-1.437
		c-0.004-0.197-0.018-0.591-0.033-0.787c-0.014-0.186-0.056-0.557-0.082-0.742c-0.024-0.173-0.084-0.541-0.124-0.722
		c-0.058-0.259-0.197-0.756-0.272-0.995c-0.086-0.279-0.263-0.806-0.371-1.063c-0.086-0.208-0.286-0.61-0.406-0.83
		c-0.078-0.143-0.244-0.422-0.333-0.558c-0.111-0.171-0.264-0.399-0.361-0.513c-0.122-0.135-0.248-0.259-0.38-0.372
		c-0.156-0.126-0.315-0.238-0.479-0.341c-0.172-0.094-0.343-0.175-0.517-0.246c-0.15-0.06-0.306-0.113-0.463-0.157
		c-0.21-0.044-0.414-0.076-0.615-0.096C61.829,31.678,61.44,31.658,61.235,31.658L61.235,31.658z"/>
</g>
<title>FGF.silhouette</title>
<g>
	<path class="st1" d="M18.497,66.865c-0.327,0-0.651-0.008-0.868-0.023c-0.437-0.039-0.87-0.1-1.29-0.182
		c-0.325-0.073-0.642-0.161-0.954-0.265c-0.229-0.081-0.449-0.178-0.66-0.292c-0.166-0.108-0.311-0.225-0.443-0.354
		c-0.125-0.139-0.232-0.282-0.325-0.433c-0.168-0.271-0.252-0.582-0.241-0.9c0-0.161,0.015-0.327,0.045-0.491
		c0.045-0.169,0.101-0.32,0.168-0.468c0.066-0.143,0.225-0.409,0.309-0.541c0.056-0.087,0.155-0.224,0.242-0.343l0.192-0.266
		c0.069-0.094,0.15-0.206,0.193-0.275c0.12-0.195,0.227-0.399,0.319-0.609c0.069-0.22,0.128-0.459,0.172-0.701
		c0.041-0.211,0.098-0.636,0.117-0.848c0.021-0.241,0.039-0.724,0.042-0.965c0.005-0.362-0.011-1.089-0.023-1.451
		c-0.017-0.499-0.061-1.25-0.105-1.999c-0.044-0.758-0.085-1.465-0.102-1.943c-0.029-0.804-0.057-2.413-0.062-3.219
		c-0.006-0.898-0.006-2.696,0-3.595c0.003-0.483,0.012-1.448,0.026-1.931c0.009-0.302,0.033-0.779,0.056-1.227l0.042-0.836
		c0.02-0.445,0.057-1.335,0.062-1.781c0.004-0.378-0.006-1.136-0.018-1.514c-0.008-0.258-0.034-0.775-0.052-1.034
		c-0.017-0.231-0.058-0.693-0.088-0.924c-0.023-0.224-0.058-0.443-0.104-0.661c-0.043-0.143-0.101-0.296-0.168-0.444
		c-0.058-0.125-0.203-0.365-0.275-0.485c-0.057-0.094-0.171-0.268-0.244-0.378l-0.125-0.185c-0.076-0.109-0.161-0.233-0.207-0.313
		c-0.081-0.14-0.151-0.288-0.209-0.439c-0.035-0.125-0.056-0.239-0.068-0.354c-0.01-0.117-0.01-0.233,0-0.348
		c0.051-0.2,0.125-0.366,0.222-0.517c0.13-0.175,0.28-0.32,0.451-0.439c0.186-0.121,0.378-0.226,0.578-0.313
		c0.221-0.081,0.438-0.141,0.659-0.185c0.316-0.049,0.629-0.081,0.942-0.097c0.254-0.014,0.646-0.017,1.028-0.017l0.839,0.004
		c0.336,0.002,0.799,0.018,1.292,0.034c0.642,0.021,1.271,0.042,1.769,0.042c0.15,0,0.288-0.002,0.409-0.006
		c1.305-0.048,2.432-0.058,3.345-0.058l0.687,0.001c0.629,0.002,1.567,0.028,2.511,0.055c1.023,0.028,1.956,0.055,2.582,0.058
		c0.529-0.007,1.065-0.044,1.591-0.11c0.376-0.045,0.75-0.122,1.113-0.229c0.094-0.05,0.208-0.118,0.317-0.196l0.252-0.166
		c0.09-0.067,0.195-0.128,0.305-0.177c0.17-0.062,0.335-0.094,0.503-0.101l0.123,0.01c0.283,0.094,0.505,0.243,0.679,0.439
		c0.204,0.334,0.341,0.673,0.423,1.029c0.104,0.56,0.168,1.126,0.193,1.69c0.044,0.686,0.041,2.152,0.04,2.214
		c-0.001,0.521-0.007,1.589-0.037,2.11c-0.014,0.472-0.063,0.953-0.147,1.423c-0.083,0.362-0.225,0.697-0.425,1.002
		c-0.208,0.207-0.442,0.333-0.696,0.392c-0.009,0-0.019,0-0.028,0c-0.363,0-0.669-0.073-0.943-0.206
		c-0.191-0.136-0.335-0.285-0.453-0.456c-0.07-0.116-0.128-0.23-0.176-0.349c-0.036-0.081-0.056-0.126-0.073-0.159l-0.051-0.097
		c-0.058-0.126-0.127-0.24-0.207-0.344c-0.071-0.051-0.178-0.113-0.294-0.157c-0.129-0.029-0.281-0.05-0.433-0.055
		c-0.094-0.005-0.198-0.007-0.312-0.007c-0.558,0-1.343,0.05-1.828,0.081L30.498,40c-0.793,0.049-2.373,0.206-3.163,0.288
		c-0.193,0.02-0.878,0.104-0.878,0.104c-0.29,0.035-0.574,0.07-0.768,0.089c-0.28,0.027-0.841,0.076-1.122,0.089
		c-0.085,0.004-0.603,0.004-0.603,0.004c-0.166,0-0.326,0.001-0.437,0.011c-0.153,0.007-0.301,0.029-0.444,0.066
		c-0.058,0.03-0.134,0.083-0.201,0.149c-0.069,0.118-0.138,0.274-0.184,0.439c-0.095,0.317-0.167,0.643-0.214,0.971
		c-0.042,0.327-0.033,1.064-0.03,1.306c0.004,0.281,0.019,0.818,0.054,1.083c0.016,0.213,0.058,0.417,0.126,0.613
		c0.029,0.027,0.091,0.083,0.163,0.127c0.101,0.025,0.241,0.051,0.381,0.059c0.377,0.044,0.982,0.063,1.285,0.071l0.142,0.006
		c0.082,0.005,0.172,0.01,0.255,0.01c0.003,0,0.007,0,0.01,0c0.058,0,0.094-0.004,0.13-0.01c0.107-0.04,0.23-0.102,0.343-0.181
		c0.015-0.014,0.041-0.041,0.065-0.069c0.049-0.058,0.105-0.113,0.166-0.16c0.154-0.095,0.303-0.164,0.457-0.216
		c0.203-0.064,0.409-0.11,0.617-0.138c0.046-0.004,0.172-0.007,0.176-0.007c0.115,0,0.2,0.01,0.282,0.03
		c0.212,0.077,0.393,0.181,0.553,0.313c0.181,0.175,0.329,0.367,0.448,0.578c0.116,0.272,0.2,0.542,0.257,0.815
		c0.091,0.396,0.163,0.799,0.212,1.206c0.039,0.49,0.05,0.985,0.031,1.476c-0.032,0.504-0.104,1.006-0.215,1.495l-0.028,0.137
		c-0.041,0.204-0.151,0.604-0.216,0.804c-0.038,0.117-0.113,0.308-0.175,0.464l-0.058,0.146c-0.089,0.225-0.211,0.435-0.364,0.623
		c-0.154,0.173-0.332,0.307-0.533,0.404c-0.162,0.063-0.318,0.1-0.477,0.112c-0.17-0.006-0.318-0.035-0.461-0.086
		c-0.199-0.098-0.36-0.221-0.495-0.374c-0.107-0.146-0.19-0.293-0.257-0.447l-0.175-0.354c-0.064-0.135-0.132-0.278-0.181-0.363
		c-0.075-0.139-0.16-0.266-0.255-0.387c-0.087-0.086-0.201-0.174-0.327-0.248c-0.16-0.061-0.351-0.11-0.546-0.139
		c-0.031-0.003-0.071-0.004-0.11-0.004c-0.063,0-0.13,0.002-0.173,0.006c-0.153,0.015-0.307,0.04-0.458,0.076
		c-0.133,0.043-0.274,0.099-0.414,0.162c-0.111,0.047-0.214,0.1-0.314,0.161c-0.042,0.031-0.089,0.075-0.128,0.124
		c-0.053,0.115-0.105,0.268-0.137,0.425c-0.051,0.242-0.081,0.487-0.089,0.731c0.007,0.524-0.021,1.238-0.044,1.653
		c-0.014,0.24-0.049,0.613-0.083,0.973c-0.027,0.289-0.054,0.57-0.067,0.765c-0.03,0.445-0.082,1.339-0.091,1.785
		c-0.009,0.444,0.001,1.336,0.023,1.782c0.018,0.36,0.077,1.082,0.118,1.44c0.02,0.175,0.091,0.765,0.157,1.033
		c0.059,0.228,0.135,0.453,0.227,0.673c0.053,0.101,0.118,0.208,0.188,0.313c0.069,0.107,0.134,0.21,0.174,0.284
		c0.084,0.158,0.241,0.48,0.306,0.649c0.061,0.154,0.108,0.314,0.143,0.479c0.021,0.174,0.021,0.338,0.001,0.5
		c-0.034,0.184-0.09,0.354-0.169,0.515c-0.102,0.165-0.213,0.302-0.34,0.42c-0.159,0.129-0.324,0.234-0.501,0.323
		c-0.304,0.128-0.606,0.232-0.915,0.318c-0.261,0.076-0.794,0.202-1.063,0.252c-0.172,0.032-0.521,0.079-0.696,0.09
		C19.172,66.856,18.833,66.865,18.497,66.865z"/>
	<path d="M35.252,31.583l0.103,0.01c0.224,0.077,0.424,0.212,0.581,0.389c0.18,0.299,0.311,0.624,0.39,0.963
		c0.102,0.549,0.165,1.105,0.189,1.663c0.043,0.664,0.041,2.051,0.04,2.208c-0.001,0.519-0.007,1.583-0.037,2.102
		c-0.014,0.471-0.062,0.941-0.145,1.405c-0.077,0.337-0.214,0.657-0.403,0.947c-0.168,0.162-0.377,0.275-0.604,0.328l-0.028,0
		c-0.293,0-0.581-0.067-0.844-0.195c-0.154-0.112-0.287-0.249-0.394-0.406c-0.062-0.102-0.116-0.21-0.161-0.321
		c-0.03-0.067-0.057-0.131-0.081-0.174l-0.05-0.095c-0.06-0.13-0.134-0.253-0.221-0.366c-0.108-0.087-0.23-0.156-0.36-0.206
		c-0.158-0.038-0.319-0.059-0.481-0.064c-0.092-0.005-0.199-0.007-0.317-0.007c-0.561,0-1.35,0.05-1.837,0.081l-0.106,0.007
		c-0.794,0.05-2.377,0.206-3.168,0.289c-0.194,0.02-0.479,0.055-0.769,0.09c-0.326,0.04-0.658,0.081-0.876,0.102
		c-0.278,0.027-0.835,0.075-1.114,0.088c-0.084,0.004-0.596,0.004-0.596,0.004c-0.17,0-0.335,0.001-0.449,0.011
		c-0.158,0.007-0.316,0.031-0.469,0.07c-0.1,0.047-0.191,0.111-0.269,0.189c-0.098,0.157-0.172,0.327-0.222,0.505
		c-0.097,0.324-0.17,0.655-0.218,0.99c-0.044,0.345-0.034,1.096-0.031,1.342c0.004,0.272,0.019,0.818,0.055,1.088
		c0.016,0.219,0.061,0.435,0.134,0.643c0.062,0.082,0.138,0.152,0.226,0.206c0.146,0.045,0.297,0.072,0.45,0.081
		c0.373,0.043,0.985,0.063,1.291,0.071l0.139,0.006c0.082,0.005,0.176,0.01,0.262,0.01c0.009,0,0.018,0,0.027,0
		c0.047,0,0.094-0.004,0.141-0.013c0.143-0.05,0.278-0.119,0.401-0.206c0.033-0.029,0.064-0.06,0.093-0.094
		c0.043-0.052,0.092-0.099,0.145-0.14c0.13-0.078,0.269-0.143,0.413-0.192c0.192-0.061,0.388-0.105,0.588-0.131
		c0.037-0.003,0.09-0.006,0.147-0.006c0.01,0,0.021,0,0.031,0c0.076,0,0.152,0.009,0.226,0.026c0.179,0.066,0.345,0.162,0.492,0.283
		c0.163,0.158,0.302,0.338,0.414,0.536c0.105,0.249,0.185,0.508,0.241,0.772c0.091,0.394,0.161,0.792,0.21,1.193
		c0.038,0.483,0.048,0.968,0.03,1.453c-0.032,0.494-0.103,0.985-0.211,1.468l-0.028,0.14c-0.04,0.199-0.148,0.592-0.211,0.786
		c-0.038,0.115-0.111,0.303-0.172,0.456l-0.058,0.146c-0.083,0.211-0.198,0.408-0.341,0.584c-0.136,0.151-0.299,0.275-0.482,0.363
		c-0.136,0.053-0.278,0.086-0.423,0.098c-0.136-0.006-0.27-0.032-0.398-0.078c-0.164-0.081-0.311-0.194-0.433-0.331
		c-0.092-0.127-0.17-0.264-0.232-0.408l-0.178-0.361c-0.065-0.137-0.135-0.284-0.186-0.372c-0.078-0.142-0.167-0.277-0.268-0.404
		c-0.11-0.11-0.234-0.205-0.368-0.284c-0.194-0.076-0.396-0.129-0.602-0.158c-0.038-0.004-0.077-0.006-0.115-0.006
		c-0.005,0-0.011,0-0.016,0c-0.068,0-0.14,0.003-0.186,0.006c-0.162,0.016-0.322,0.042-0.48,0.079
		c-0.15,0.049-0.298,0.106-0.441,0.172c-0.114,0.048-0.225,0.105-0.331,0.17c-0.062,0.045-0.118,0.098-0.167,0.157
		c-0.077,0.156-0.133,0.32-0.167,0.49c-0.053,0.249-0.083,0.502-0.092,0.756c0.007,0.528-0.021,1.237-0.044,1.649
		c-0.014,0.239-0.048,0.61-0.082,0.968c-0.027,0.29-0.054,0.572-0.067,0.768c-0.03,0.447-0.083,1.345-0.091,1.793
		c-0.009,0.447,0.001,1.344,0.023,1.792c0.018,0.363,0.077,1.09,0.119,1.451c0.021,0.178,0.093,0.777,0.16,1.051
		c0.061,0.238,0.14,0.47,0.235,0.696c0.061,0.116,0.128,0.229,0.202,0.338c0.065,0.102,0.128,0.2,0.166,0.271
		c0.083,0.154,0.235,0.469,0.298,0.633c0.058,0.148,0.103,0.3,0.136,0.455c0.018,0.15,0.018,0.301,0,0.451
		c-0.031,0.162-0.083,0.319-0.155,0.468c-0.086,0.138-0.189,0.264-0.308,0.376c-0.144,0.116-0.3,0.216-0.466,0.299
		c-0.289,0.121-0.585,0.224-0.887,0.308c-0.259,0.075-0.785,0.2-1.05,0.249c-0.168,0.031-0.507,0.077-0.678,0.088
		c-0.221,0.015-0.556,0.023-0.889,0.023c-0.323,0-0.643-0.007-0.857-0.022c-0.427-0.038-0.851-0.098-1.272-0.18
		c-0.316-0.071-0.628-0.158-0.935-0.26c-0.219-0.077-0.432-0.171-0.636-0.281c-0.147-0.096-0.284-0.207-0.41-0.33
		c-0.113-0.125-0.214-0.261-0.302-0.404c-0.153-0.244-0.229-0.529-0.219-0.816c0-0.158,0.015-0.315,0.042-0.47
		c0.04-0.148,0.093-0.292,0.157-0.432c0.064-0.137,0.218-0.396,0.299-0.522c0.054-0.085,0.152-0.219,0.237-0.335l0.192-0.267
		c0.071-0.097,0.155-0.213,0.2-0.285c0.124-0.201,0.233-0.411,0.329-0.627c0.076-0.241,0.137-0.486,0.183-0.734
		c0.042-0.213,0.1-0.646,0.119-0.861c0.021-0.244,0.039-0.732,0.042-0.977c0.005-0.364-0.011-1.094-0.023-1.458
		c-0.017-0.5-0.061-1.253-0.105-2.003c-0.042-0.729-0.085-1.453-0.102-1.939c-0.029-0.803-0.057-2.41-0.062-3.214
		c-0.006-0.898-0.006-2.695,0-3.594c0.003-0.482,0.012-1.446,0.026-1.928c0.01-0.321,0.037-0.84,0.061-1.312l0.037-0.748
		c0.02-0.447,0.057-1.34,0.062-1.787c0.004-0.38-0.006-1.14-0.018-1.52c-0.008-0.26-0.034-0.78-0.053-1.04
		c-0.017-0.234-0.059-0.7-0.088-0.932c-0.024-0.226-0.059-0.45-0.105-0.672c-0.049-0.162-0.108-0.321-0.178-0.475
		c-0.061-0.13-0.209-0.377-0.284-0.5c-0.06-0.099-0.184-0.286-0.256-0.396l-0.118-0.173c-0.074-0.106-0.156-0.226-0.2-0.303
		c-0.078-0.134-0.144-0.274-0.199-0.418c-0.028-0.104-0.048-0.209-0.059-0.316c-0.009-0.106-0.009-0.213,0-0.32
		c0.043-0.159,0.11-0.311,0.199-0.449c0.114-0.154,0.253-0.288,0.411-0.396c0.176-0.115,0.361-0.215,0.553-0.3
		c0.204-0.075,0.414-0.133,0.628-0.174c0.305-0.047,0.613-0.079,0.921-0.094c0.252-0.014,0.642-0.017,1.02-0.017l0.838,0.004
		c0.335,0.002,0.799,0.018,1.293,0.034c0.606,0.02,1.257,0.042,1.769,0.042c0.152,0,0.292-0.002,0.414-0.006
		c1.303-0.048,2.428-0.058,3.339-0.058l0.686,0.001c0.645,0.002,1.615,0.03,2.582,0.057c0.941,0.026,1.88,0.053,2.51,0.056h0.001
		c0.538-0.007,1.076-0.044,1.61-0.111c0.385-0.046,0.765-0.124,1.137-0.233c0.126-0.063,0.247-0.136,0.362-0.218l0.248-0.163
		c0.088-0.065,0.183-0.121,0.284-0.166C34.949,31.619,35.1,31.589,35.252,31.583 M35.26,31.282l-0.021,0.001
		c-0.183,0.008-0.364,0.043-0.536,0.105c-0.141,0.062-0.255,0.129-0.361,0.207l-0.234,0.153c-0.104,0.074-0.204,0.135-0.308,0.188
		c-0.347,0.1-0.704,0.173-1.062,0.216c-0.523,0.066-1.053,0.102-1.578,0.109c-0.621-0.003-1.554-0.03-2.489-0.056l-0.084-0.002
		c-0.945-0.026-1.884-0.052-2.514-0.055l-0.686-0.001c-0.764,0-1.943,0.006-3.351,0.058c-0.119,0.004-0.255,0.006-0.403,0.006
		c-0.494,0-1.119-0.021-1.707-0.04l-0.051-0.002c-0.497-0.017-0.964-0.032-1.301-0.034l-0.839-0.004
		c-0.386,0-0.781,0.004-1.038,0.018c-0.316,0.016-0.637,0.049-0.951,0.097c-0.24,0.046-0.466,0.109-0.685,0.189
		c-0.225,0.098-0.425,0.207-0.614,0.33c-0.191,0.132-0.353,0.288-0.487,0.469c-0.118,0.182-0.197,0.361-0.248,0.551l-0.007,0.025
		l-0.002,0.026c-0.011,0.124-0.011,0.248,0,0.372c0.013,0.127,0.036,0.249,0.068,0.368c0.07,0.187,0.144,0.343,0.229,0.491
		c0.046,0.081,0.134,0.209,0.213,0.323l0.116,0.171c0.079,0.119,0.192,0.291,0.248,0.383c0.07,0.116,0.211,0.349,0.268,0.472
		c0.063,0.139,0.118,0.286,0.163,0.434c0.038,0.187,0.072,0.403,0.094,0.617c0.03,0.235,0.071,0.693,0.088,0.923
		c0.018,0.256,0.044,0.771,0.052,1.028c0.012,0.376,0.022,1.13,0.017,1.506c-0.005,0.445-0.042,1.333-0.062,1.777l-0.037,0.746
		l-0.005,0.092c-0.023,0.448-0.047,0.924-0.056,1.226c-0.015,0.484-0.024,1.451-0.026,1.935c-0.006,0.899-0.006,2.698,0,3.598
		c0.006,0.846,0.034,2.439,0.062,3.223c0.017,0.477,0.058,1.182,0.099,1.897c0.047,0.797,0.091,1.547,0.108,2.045
		c0.013,0.361,0.028,1.083,0.023,1.444c-0.003,0.24-0.021,0.72-0.041,0.954c-0.018,0.203-0.075,0.626-0.115,0.83
		c-0.043,0.239-0.102,0.473-0.174,0.701c-0.078,0.173-0.182,0.372-0.298,0.561c-0.041,0.067-0.12,0.175-0.186,0.265l-0.194,0.268
		c-0.088,0.12-0.19,0.26-0.246,0.349c-0.086,0.135-0.247,0.405-0.318,0.557c-0.072,0.156-0.13,0.317-0.174,0.48
		c-0.037,0.198-0.053,0.373-0.053,0.548c-0.012,0.339,0.079,0.68,0.264,0.976c0.096,0.157,0.209,0.307,0.334,0.446
		c0.152,0.15,0.305,0.273,0.468,0.38c0.239,0.131,0.468,0.232,0.701,0.313c0.32,0.106,0.644,0.197,0.969,0.269
		c0.437,0.085,0.876,0.147,1.311,0.186c0.224,0.016,0.553,0.024,0.884,0.024c0.34,0,0.683-0.008,0.909-0.023
		c0.184-0.012,0.535-0.059,0.713-0.092c0.271-0.05,0.806-0.177,1.079-0.256c0.31-0.086,0.62-0.193,0.92-0.319
		c0.202-0.101,0.377-0.213,0.537-0.341c0.155-0.145,0.275-0.292,0.375-0.451c0.099-0.2,0.159-0.382,0.195-0.571
		c0.024-0.193,0.024-0.369,0.004-0.542c-0.04-0.197-0.09-0.366-0.154-0.529c-0.07-0.182-0.229-0.509-0.313-0.665
		c-0.041-0.077-0.108-0.183-0.178-0.292c-0.071-0.105-0.132-0.208-0.188-0.315c-0.078-0.189-0.153-0.409-0.21-0.632
		c-0.05-0.205-0.113-0.673-0.152-1.01c-0.041-0.353-0.1-1.075-0.118-1.431c-0.02-0.421-0.032-1.315-0.023-1.772
		c0.008-0.426,0.058-1.297,0.091-1.779c0.013-0.193,0.04-0.472,0.067-0.76c0.034-0.362,0.069-0.737,0.083-0.979
		c0.025-0.441,0.052-1.143,0.044-1.671c0.008-0.222,0.036-0.459,0.085-0.689c0.027-0.135,0.07-0.265,0.127-0.387
		c0.027-0.029,0.057-0.056,0.089-0.079c0.074-0.044,0.171-0.094,0.271-0.136c0.142-0.064,0.279-0.118,0.418-0.163
		c0.12-0.027,0.268-0.051,0.416-0.066c0.034-0.002,0.097-0.005,0.157-0.005c0.002,0,0.003,0,0.005,0
		c0.041,0,0.068,0.001,0.095,0.004c0.172,0.024,0.351,0.072,0.523,0.139c0.071,0.045,0.174,0.125,0.266,0.217
		c0.067,0.087,0.147,0.209,0.216,0.336c0.051,0.089,0.117,0.228,0.178,0.357l0.18,0.365c0.064,0.15,0.153,0.307,0.258,0.452
		c0.166,0.19,0.342,0.325,0.543,0.424c0.188,0.07,0.352,0.102,0.518,0.109c0.211-0.015,0.382-0.054,0.545-0.118
		c0.241-0.116,0.434-0.261,0.596-0.442c0.172-0.212,0.302-0.435,0.396-0.674l0.058-0.147c0.063-0.159,0.139-0.353,0.178-0.473
		c0.067-0.205,0.178-0.608,0.22-0.82l0.028-0.14c0.111-0.49,0.184-1,0.217-1.508c0.019-0.502,0.008-1.003-0.031-1.496
		c-0.052-0.423-0.124-0.835-0.217-1.237c-0.058-0.277-0.145-0.555-0.256-0.821c-0.141-0.254-0.298-0.457-0.481-0.635
		c-0.191-0.16-0.386-0.272-0.598-0.35c-0.131-0.033-0.231-0.045-0.33-0.045c-0.098,0-0.161,0.004-0.205,0.008
		c-0.228,0.03-0.443,0.078-0.651,0.144c-0.17,0.058-0.329,0.131-0.477,0.221c-0.1,0.075-0.163,0.137-0.22,0.204
		c-0.018,0.02-0.039,0.042-0.061,0.061c-0.075,0.051-0.186,0.107-0.302,0.148c0.008-0.003,0.004-0.004-0.007-0.004
		c-0.009,0-0.022,0.001-0.035,0.001c-0.107,0-0.195-0.006-0.271-0.01l-0.143-0.007c-0.561-0.014-1.01-0.039-1.269-0.069
		c-0.13-0.008-0.247-0.028-0.358-0.059c-0.031-0.022-0.06-0.048-0.086-0.077c-0.054-0.168-0.089-0.342-0.102-0.518
		c-0.035-0.265-0.05-0.796-0.054-1.07c-0.003-0.252-0.012-0.981,0.029-1.3c0.046-0.314,0.116-0.633,0.208-0.943
		c0.04-0.143,0.097-0.277,0.17-0.401c0.041-0.037,0.087-0.069,0.137-0.095c0.124-0.03,0.252-0.048,0.379-0.054
		c0.119-0.01,0.275-0.011,0.436-0.011c0,0,0.524-0.001,0.61-0.005c0.283-0.013,0.847-0.062,1.129-0.089
		c0.195-0.019,0.479-0.054,0.77-0.089l0.114-0.014c0.288-0.035,0.571-0.07,0.763-0.09c0.8-0.083,2.365-0.238,3.156-0.288
		l0.107-0.007c0.473-0.03,1.267-0.08,1.818-0.08c0.111,0,0.212,0.002,0.299,0.007c0.149,0.005,0.291,0.024,0.429,0.057
		c0.057,0.024,0.137,0.069,0.213,0.126c0.064,0.087,0.119,0.181,0.164,0.28l0.056,0.109c0.018,0.033,0.036,0.075,0.056,0.12
		c0.063,0.153,0.124,0.275,0.195,0.392c0.135,0.199,0.292,0.36,0.474,0.493l0.021,0.016l0.024,0.012
		c0.302,0.147,0.639,0.225,0.975,0.225l0.035,0l0.061-0.008c0.28-0.065,0.538-0.205,0.745-0.404l0.024-0.023l0.018-0.028
		c0.209-0.32,0.359-0.671,0.444-1.044c0.088-0.492,0.138-0.979,0.152-1.464c0.021-0.37,0.034-1.082,0.037-2.11
		c0-0.062,0.005-1.529-0.041-2.228c-0.024-0.564-0.089-1.137-0.193-1.698c-0.089-0.384-0.231-0.737-0.427-1.063l-0.014-0.023
		l-0.018-0.02c-0.191-0.216-0.435-0.38-0.707-0.474l-0.034-0.012l-0.036-0.003l-0.103-0.01L35.26,31.282L35.26,31.282z"/>
</g>
<g>
	<path class="st1" d="M53.728,65.188c-0.135-0.01-0.423-0.057-0.571-0.088c-0.154-0.029-0.462-0.099-0.601-0.142
		c-0.141-0.046-0.415-0.16-0.541-0.214c-0.124-0.054-0.442-0.192-0.586-0.272c-0.146-0.081-0.437-0.277-0.58-0.383
		c-0.132-0.095-0.379-0.291-0.492-0.394c-0.065-0.059-0.159-0.156-0.252-0.253l-0.552-0.561c-0.238-0.244-0.711-0.732-0.94-0.983
		c-0.146-0.159-0.394-0.447-0.585-0.67l-0.291-0.333c-0.158-0.181-0.359-0.411-0.47-0.547c-0.15-0.184-0.437-0.561-0.579-0.75
		c-0.158-0.211-0.47-0.639-0.621-0.857c-0.156-0.225-0.463-0.686-0.61-0.918c-0.129-0.207-0.374-0.626-0.493-0.837
		c-0.076-0.135-0.812-1.496-0.813-1.497c-0.146-0.264-1.273-2.238-1.273-2.238l-0.126-0.222c-0.152-0.265-0.348-0.606-0.451-0.805
		c-0.164-0.315-0.468-0.969-0.621-1.307c-0.123-0.271-0.341-0.767-0.439-1.018c-0.114-0.291-0.316-0.884-0.417-1.189
		c-0.076-0.226-0.222-0.68-0.29-0.909c-0.071-0.242-0.204-0.729-0.267-0.972c-0.073-0.284-0.214-0.85-0.278-1.134
		c-0.067-0.3-0.189-0.905-0.246-1.208c-0.069-0.372-0.197-1.098-0.246-1.465c-0.045-0.337-0.115-1.052-0.14-1.416
		c-0.024-0.367-0.058-1.094-0.053-1.448c0.004-0.29,0.043-0.88,0.075-1.195c0.037-0.361,0.137-1.093,0.204-1.459
		c0.033-0.179,0.12-0.559,0.173-0.748c0.056-0.199,0.191-0.593,0.259-0.777c0.062-0.167,0.197-0.496,0.27-0.658
		c0.079-0.175,0.245-0.519,0.335-0.683c0.065-0.118,0.208-0.346,0.283-0.457c0.087-0.127,0.266-0.375,0.359-0.49
		c0.095-0.115,0.299-0.331,0.404-0.437c0.087-0.088,0.266-0.261,0.361-0.339c0.205-0.167,0.419-0.322,0.628-0.456
		c0.254-0.14,0.509-0.261,0.764-0.366c0.146-0.062,0.447-0.172,0.599-0.218c0.168-0.051,0.534-0.145,0.719-0.174
		c0.362-0.053,0.727-0.086,1.093-0.098c0,0,0.001,0,0.001,0c0.404,0,0.932,0.034,1.193,0.065c0.34,0.044,0.68,0.106,1.006,0.183
		c0.351,0.097,0.695,0.214,1.021,0.347c0.356,0.166,0.699,0.347,1.023,0.543c0.158,0.098,0.409,0.279,0.637,0.445l0.556,0.387
		c0.22,0.145,0.495,0.329,0.633,0.444c0.228,0.207,0.443,0.422,0.647,0.646c0.157,0.172,0.477,0.555,0.626,0.757
		c0.092,0.122,0.252,0.368,0.35,0.518l0.543,0.846l0.068,0.097c0.057,0.075,0.111,0.158,0.151,0.227
		c0.116,0.274,0.205,0.542,0.274,0.812c0.058,0.217,0.103,0.437,0.132,0.636c0.016,0.29,0.016,0.569,0,0.849l-0.002,0.134
		c0.003,0.238-0.019,0.492-0.062,0.729c-0.057,0.18-0.133,0.334-0.226,0.464c-0.14,0.161-0.295,0.293-0.457,0.395
		c-0.159,0.083-0.321,0.136-0.478,0.161c-0.14,0-0.252-0.016-0.361-0.043c-0.181-0.05-0.353-0.11-0.516-0.179
		c-0.209-0.089-0.616-0.307-0.823-0.422c-0.172-0.095-0.45-0.262-0.694-0.408l-0.56-0.339c-0.187-0.123-0.379-0.235-0.585-0.34
		c-0.239-0.101-0.489-0.18-0.757-0.236c-0.102-0.011-0.217-0.018-0.334-0.018c-0.121,0-0.243,0.007-0.368,0.022
		c-0.231,0.051-0.476,0.132-0.713,0.239c-0.136,0.071-0.272,0.157-0.404,0.258c-0.117,0.098-0.231,0.212-0.34,0.343
		c-0.092,0.129-0.173,0.279-0.243,0.448c-0.038,0.139-0.064,0.298-0.074,0.469c0.003,0.274,0.024,0.557,0.062,0.832
		c0.028,0.222,0.11,0.656,0.162,0.883c0.042,0.185,0.143,0.547,0.199,0.735c0.041,0.137,0.119,0.371,0.181,0.555l0.123,0.373
		c0.065,0.201,0.146,0.449,0.198,0.591c0.088,0.241,0.28,0.725,0.388,0.977c0.088,0.206,0.279,0.612,0.376,0.814
		c0.113,0.234,0.346,0.699,0.466,0.931l0.502,0.943c0.113,0.211,0.255,0.479,0.332,0.636c0.054,0.112,0.131,0.289,0.208,0.464
		l0.159,0.359c0,0,0.377,0.763,0.403,0.819c0.061,0.127,0.77,1.729,0.834,1.869c0.089,0.188,0.361,0.76,0.513,1.035
		c0.104,0.193,0.323,0.552,0.435,0.721c0.076,0.116,0.248,0.359,0.344,0.48c0.086,0.104,0.18,0.205,0.28,0.303
		c0.067,0.063,0.205,0.17,0.301,0.243l0.102,0.078c0.077,0.061,0.184,0.144,0.246,0.184c0.075,0.046,0.238,0.127,0.32,0.165
		c0.134,0.062,0.27,0.119,0.421,0.172c0.104,0.024,0.222,0.047,0.342,0.062c0.072,0.009,0.216,0.019,0.291,0.019
		c0.111-0.003,0.228-0.014,0.347-0.031c0.112-0.021,0.23-0.051,0.357-0.094c0.091-0.04,0.189-0.092,0.281-0.146
		c0.242-0.134,0.451-0.31,0.624-0.525c0.088-0.118,0.173-0.249,0.249-0.385c0.033-0.058,0.076-0.148,0.125-0.25
		c0.016-0.034,0.27-0.549,0.3-0.616c0.054-0.121,0.151-0.369,0.198-0.494c0.037-0.099,0.351-1.02,0.38-1.117
		c0.052-0.163,0.145-0.489,0.188-0.652c0.035-0.128,0.1-0.379,0.131-0.507c0.024-0.11,0.072-0.339,0.095-0.453
		c0.026-0.132,0.076-0.393,0.097-0.523c0.016-0.096,0.045-0.29,0.051-0.391c0.006-0.12,0.005-0.242-0.007-0.375
		c-0.015-0.085-0.037-0.181-0.064-0.274c-0.03-0.102-0.066-0.201-0.112-0.304c-0.046-0.088-0.103-0.18-0.173-0.273
		c-0.103-0.116-0.223-0.234-0.353-0.343c-0.065-0.053-0.194-0.133-0.296-0.195c-0.002-0.001-0.566-0.36-0.722-0.455
		c-0.17-0.106-0.51-0.315-0.684-0.417l-0.856-0.5c-0.15-0.086-0.456-0.253-0.611-0.338l-0.156-0.081
		c-0.122-0.063-0.227-0.117-0.293-0.158c-0.097-0.056-0.194-0.123-0.278-0.19c-0.109-0.103-0.201-0.212-0.272-0.326
		c-0.054-0.108-0.089-0.208-0.108-0.304c-0.016-0.122-0.019-0.237-0.009-0.342c0.018-0.127,0.047-0.244,0.087-0.346
		c0.107-0.23,0.273-0.426,0.471-0.562c0.163-0.095,0.325-0.171,0.487-0.229c0.197-0.064,0.395-0.115,0.589-0.151
		c0.14-0.023,0.429-0.04,0.653-0.047c0.101-0.003,0.263-0.008,0.413-0.008c0.103,0,0.2,0.002,0.271,0.008
		c0.164,0.014,0.455,0.072,0.654,0.111l0.643,0.11c0.2,0.03,0.423,0.063,0.56,0.089c0.155,0.031,0.397,0.089,0.654,0.151
		l0.397,0.094c0.206,0.045,0.618,0.133,0.825,0.167c0.117,0.019,0.297,0.04,0.473,0.06c0.164,0.019,0.318,0.036,0.424,0.052
		c0.183,0.028,0.523,0.082,0.678,0.125c0.229,0.07,0.454,0.155,0.67,0.252c0.144,0.066,0.426,0.229,0.573,0.319
		c0.231,0.138,0.461,0.294,0.671,0.455c0.15,0.133,0.279,0.272,0.385,0.411c0.115,0.167,0.211,0.342,0.28,0.513
		c0.053,0.195,0.082,0.381,0.097,0.578c0.028,0.248,0.058,0.745,0.059,0.979c0.001,0.263-0.034,0.786-0.051,1.03
		c-0.023,0.355-0.055,0.8-0.08,1.023c-0.021,0.173-0.072,0.469-0.116,0.729l-0.068,0.396c-0.051,0.3-0.106,0.622-0.147,0.811
		c-0.032,0.149-0.103,0.423-0.157,0.632l-0.224,0.83c-0.052,0.188-0.097,0.351-0.127,0.448c-0.022,0.073-0.234,0.713-0.234,0.713
		l-0.081,0.264c-0.047,0.156-0.099,0.328-0.136,0.434c-0.05,0.14-0.154,0.397-0.224,0.566c0,0-0.853,1.977-0.903,2.085
		c-0.076,0.157-0.228,0.446-0.321,0.625l-0.484,0.896c-0.086,0.164-0.186,0.353-0.25,0.465c-0.091,0.156-0.287,0.462-0.388,0.614
		c-0.097,0.146-0.293,0.438-0.399,0.58c-0.103,0.139-0.321,0.414-0.435,0.548c-0.107,0.128-0.331,0.376-0.446,0.494
		c-0.128,0.129-0.389,0.376-0.522,0.495c-0.14,0.121-0.425,0.352-0.57,0.464c-0.114,0.089-0.345,0.262-0.464,0.343
		c-0.135,0.092-0.418,0.269-0.562,0.352c-0.152,0.088-0.452,0.243-0.6,0.313c-0.155,0.075-0.468,0.213-0.626,0.275
		c-0.129,0.053-0.387,0.152-0.518,0.192c-0.126,0.037-0.394,0.101-0.531,0.126c-0.104,0.018-0.31,0.043-0.412,0.049
		c-0.067,0.005-0.17,0.007-0.271,0.007C53.881,65.194,53.791,65.192,53.728,65.188z"/>
	<path d="M45.836,31.753c0.393,0,0.915,0.033,1.172,0.064c0.333,0.043,0.667,0.104,0.989,0.18c0.34,0.094,0.679,0.209,1,0.34
		c0.345,0.16,0.683,0.339,1.002,0.533c0.155,0.096,0.404,0.277,0.63,0.44l0.554,0.386c0.218,0.144,0.487,0.324,0.622,0.437
		c0.22,0.199,0.433,0.412,0.633,0.632c0.155,0.17,0.47,0.547,0.617,0.745c0.091,0.121,0.248,0.362,0.344,0.51l0.543,0.845
		l0.071,0.102c0.056,0.074,0.107,0.151,0.145,0.216c0.104,0.25,0.191,0.511,0.259,0.774c0.057,0.213,0.101,0.426,0.129,0.621
		c0.014,0.271,0.014,0.544-0.001,0.819l-0.003,0.138c0.003,0.241-0.019,0.484-0.059,0.706c-0.048,0.149-0.118,0.289-0.2,0.404
		c-0.123,0.141-0.266,0.262-0.414,0.354c-0.138,0.071-0.286,0.119-0.422,0.14c-0.103-0.002-0.205-0.017-0.302-0.041
		c-0.17-0.047-0.336-0.105-0.494-0.172c-0.204-0.087-0.604-0.302-0.809-0.415c-0.171-0.094-0.447-0.26-0.689-0.405l-0.559-0.339
		c-0.187-0.123-0.384-0.237-0.596-0.345c-0.252-0.107-0.515-0.19-0.794-0.249c-0.121-0.014-0.242-0.021-0.365-0.021
		c-0.127,0-0.255,0.008-0.386,0.023c-0.257,0.056-0.509,0.14-0.757,0.251c-0.151,0.078-0.295,0.169-0.434,0.275
		c-0.129,0.108-0.25,0.229-0.365,0.367c-0.104,0.145-0.191,0.303-0.266,0.487c-0.046,0.165-0.074,0.334-0.085,0.516
		c0.003,0.291,0.024,0.581,0.063,0.862c0.028,0.224,0.112,0.665,0.164,0.896c0.042,0.187,0.145,0.554,0.202,0.745
		c0.042,0.143,0.126,0.393,0.19,0.583l0.115,0.349c0.066,0.203,0.147,0.452,0.2,0.595c0.089,0.243,0.282,0.731,0.391,0.984
		c0.089,0.208,0.281,0.616,0.378,0.82c0.113,0.235,0.347,0.702,0.468,0.935l0.503,0.945c0.112,0.21,0.253,0.476,0.329,0.631
		c0.053,0.11,0.129,0.285,0.205,0.458c0.06,0.137,0.118,0.27,0.161,0.363c0.022,0.048,0.1,0.203,0.182,0.368
		c0.095,0.19,0.195,0.395,0.222,0.451c0.068,0.144,0.171,0.375,0.268,0.592l0.071,0.161c0,0,0.43,0.975,0.494,1.115
		c0.059,0.123,0.356,0.752,0.518,1.045c0.105,0.195,0.328,0.56,0.441,0.731c0.077,0.118,0.253,0.367,0.352,0.491
		c0.091,0.109,0.188,0.215,0.292,0.316c0.073,0.068,0.216,0.179,0.314,0.255l0.102,0.078c0.08,0.062,0.191,0.148,0.257,0.19
		c0.081,0.05,0.252,0.135,0.338,0.175c0.139,0.064,0.278,0.123,0.436,0.178c0.122,0.03,0.246,0.054,0.372,0.069
		c0.077,0.01,0.229,0.021,0.31,0.021c0.001,0,0.001,0,0.001,0c0.121-0.004,0.243-0.015,0.368-0.033
		c0.124-0.022,0.249-0.055,0.384-0.101c0.107-0.047,0.212-0.101,0.309-0.157c0.256-0.142,0.479-0.329,0.665-0.562
		c0.095-0.127,0.184-0.264,0.263-0.405c0.037-0.063,0.088-0.172,0.145-0.291c0,0,0.256-0.52,0.286-0.588
		c0.055-0.122,0.154-0.375,0.202-0.502c0.037-0.1,0.354-1.028,0.383-1.127c0.052-0.162,0.146-0.492,0.189-0.656
		c0.035-0.128,0.101-0.382,0.132-0.511c0.025-0.113,0.074-0.345,0.097-0.46c0.026-0.132,0.076-0.396,0.098-0.527
		c0.016-0.101,0.046-0.303,0.052-0.406c0.007-0.128,0.006-0.256-0.007-0.397c-0.018-0.103-0.041-0.204-0.07-0.303
		c-0.031-0.107-0.07-0.213-0.119-0.323c-0.053-0.103-0.114-0.202-0.19-0.302c-0.114-0.13-0.239-0.253-0.376-0.368
		c-0.07-0.057-0.206-0.142-0.313-0.208c0,0-0.565-0.359-0.722-0.455c-0.17-0.106-0.511-0.316-0.686-0.418l-0.857-0.5
		c-0.151-0.087-0.459-0.255-0.615-0.34L54.34,46.45c-0.102-0.052-0.215-0.11-0.284-0.152c-0.093-0.054-0.185-0.117-0.263-0.179
		c-0.094-0.088-0.177-0.189-0.239-0.289c-0.041-0.083-0.071-0.172-0.088-0.253c-0.014-0.103-0.016-0.206-0.007-0.298
		c0.015-0.107,0.041-0.213,0.077-0.305c0.095-0.202,0.242-0.374,0.416-0.494c0.146-0.084,0.299-0.156,0.453-0.211
		c0.187-0.061,0.378-0.11,0.565-0.145c0.133-0.022,0.413-0.037,0.631-0.044c0.099-0.003,0.26-0.008,0.408-0.008
		c0.098,0,0.191,0.002,0.257,0.008c0.163,0.014,0.454,0.072,0.648,0.111l0.637,0.109c0.201,0.03,0.422,0.062,0.557,0.088
		c0.153,0.03,0.393,0.088,0.647,0.149c0.152,0.037,0.297,0.072,0.401,0.094c0.207,0.045,0.623,0.134,0.832,0.168
		c0.119,0.02,0.302,0.041,0.48,0.061c0.158,0.018,0.312,0.036,0.418,0.052c0.178,0.027,0.51,0.079,0.66,0.121
		c0.22,0.067,0.438,0.15,0.648,0.244c0.139,0.064,0.413,0.222,0.556,0.31c0.229,0.136,0.453,0.289,0.659,0.446
		c0.134,0.12,0.256,0.251,0.356,0.383c0.107,0.156,0.197,0.323,0.261,0.479c0.044,0.168,0.072,0.345,0.086,0.532
		c0.028,0.25,0.057,0.739,0.058,0.969c0.001,0.268-0.036,0.809-0.052,1.04c-0.021,0.333-0.053,0.774-0.078,0.996
		c-0.021,0.175-0.074,0.481-0.119,0.744l-0.063,0.372c-0.046,0.269-0.104,0.608-0.146,0.804c-0.036,0.169-0.122,0.497-0.177,0.709
		l-0.202,0.746c-0.042,0.151-0.093,0.336-0.126,0.443c-0.031,0.101-0.233,0.708-0.234,0.712l-0.081,0.265
		c-0.046,0.154-0.097,0.323-0.134,0.427c-0.049,0.139-0.152,0.394-0.221,0.561l-0.704,1.632c-0.066,0.154-0.146,0.339-0.196,0.446
		c-0.083,0.171-0.26,0.507-0.347,0.673l-0.455,0.841c-0.086,0.164-0.185,0.351-0.248,0.461c-0.09,0.154-0.283,0.456-0.383,0.606
		c-0.096,0.145-0.289,0.433-0.395,0.572c-0.102,0.139-0.317,0.41-0.429,0.542c-0.106,0.126-0.326,0.37-0.439,0.486
		c-0.125,0.126-0.383,0.37-0.515,0.487c-0.137,0.119-0.419,0.347-0.562,0.458c-0.112,0.087-0.34,0.257-0.457,0.337
		c-0.132,0.09-0.41,0.264-0.553,0.346c-0.149,0.086-0.444,0.239-0.589,0.309c-0.153,0.073-0.462,0.209-0.617,0.271
		c-0.126,0.051-0.378,0.148-0.506,0.188c-0.121,0.036-0.381,0.098-0.515,0.122c-0.098,0.017-0.295,0.041-0.394,0.047
		c-0.065,0.004-0.165,0.007-0.262,0.007c-0.088,0-0.174-0.002-0.234-0.007c-0.131-0.01-0.409-0.056-0.553-0.085
		c-0.152-0.029-0.451-0.097-0.587-0.139c-0.135-0.044-0.402-0.155-0.525-0.208c-0.097-0.042-0.427-0.185-0.573-0.266
		c-0.142-0.079-0.424-0.271-0.564-0.373c-0.128-0.093-0.369-0.284-0.479-0.384c-0.068-0.062-0.169-0.167-0.266-0.268l-0.532-0.54
		c-0.236-0.242-0.708-0.729-0.937-0.979c-0.145-0.158-0.392-0.444-0.583-0.666l-0.291-0.334c-0.158-0.18-0.357-0.408-0.467-0.543
		c-0.149-0.183-0.434-0.557-0.575-0.745c-0.157-0.21-0.468-0.636-0.618-0.853c-0.155-0.224-0.46-0.682-0.606-0.913
		c-0.128-0.205-0.371-0.621-0.489-0.831c-0.076-0.134-0.809-1.489-0.809-1.49c-0.149-0.27-1.277-2.245-1.277-2.245l-0.126-0.222
		c-0.151-0.264-0.346-0.603-0.448-0.8c-0.163-0.313-0.465-0.963-0.618-1.299c-0.122-0.27-0.338-0.762-0.436-1.011
		c-0.113-0.289-0.314-0.878-0.415-1.182c-0.075-0.225-0.22-0.677-0.288-0.904c-0.071-0.241-0.203-0.725-0.266-0.968
		c-0.073-0.282-0.213-0.845-0.276-1.129c-0.067-0.299-0.189-0.901-0.245-1.203c-0.069-0.37-0.196-1.093-0.245-1.458
		c-0.044-0.335-0.114-1.044-0.139-1.406c-0.024-0.364-0.058-1.084-0.053-1.436c0.004-0.286,0.043-0.871,0.074-1.182
		c0.037-0.358,0.135-1.084,0.202-1.447c0.033-0.175,0.118-0.548,0.17-0.734c0.055-0.196,0.188-0.585,0.255-0.766
		c0.061-0.165,0.194-0.489,0.266-0.649c0.078-0.172,0.241-0.511,0.33-0.671c0.063-0.115,0.203-0.337,0.276-0.445
		c0.085-0.125,0.26-0.368,0.352-0.48c0.092-0.111,0.292-0.322,0.394-0.426c0.085-0.086,0.258-0.253,0.35-0.329
		c0.199-0.162,0.409-0.313,0.614-0.445c0.241-0.132,0.49-0.251,0.74-0.354c0.144-0.06,0.437-0.168,0.584-0.213
		c0.165-0.05,0.521-0.141,0.7-0.17C45.116,31.797,45.475,31.765,45.836,31.753 M45.836,31.453h-0.005l-0.005,0
		c-0.366,0.012-0.739,0.045-1.108,0.099c-0.2,0.033-0.573,0.128-0.744,0.18c-0.159,0.048-0.46,0.159-0.613,0.223
		c-0.259,0.107-0.518,0.231-0.768,0.368c-0.236,0.151-0.452,0.307-0.659,0.475c-0.1,0.083-0.284,0.26-0.374,0.351
		c-0.107,0.108-0.315,0.329-0.411,0.445c-0.098,0.119-0.28,0.373-0.369,0.503c-0.077,0.114-0.223,0.348-0.29,0.469
		c-0.092,0.166-0.261,0.515-0.341,0.693c-0.074,0.164-0.211,0.499-0.274,0.668c-0.068,0.184-0.205,0.583-0.263,0.789
		c-0.056,0.198-0.142,0.578-0.177,0.761c-0.069,0.374-0.169,1.111-0.206,1.472c-0.032,0.316-0.072,0.912-0.076,1.208
		c-0.005,0.36,0.028,1.079,0.053,1.46c0.025,0.369,0.096,1.088,0.141,1.425c0.048,0.359,0.173,1.078,0.247,1.473
		c0.057,0.304,0.179,0.912,0.247,1.214c0.064,0.286,0.205,0.853,0.279,1.138c0.064,0.246,0.197,0.735,0.269,0.978
		c0.068,0.23,0.215,0.687,0.291,0.914c0.102,0.307,0.306,0.903,0.42,1.195c0.099,0.253,0.319,0.752,0.442,1.026
		c0.163,0.36,0.465,1.005,0.625,1.314c0.104,0.2,0.301,0.544,0.454,0.811l0.126,0.221c0,0,1.126,1.973,1.275,2.242
		c0.012,0.025,0.76,1.404,0.81,1.493c0.12,0.213,0.366,0.634,0.496,0.842c0.149,0.236,0.457,0.699,0.615,0.925
		c0.151,0.219,0.465,0.649,0.624,0.861c0.142,0.191,0.431,0.57,0.582,0.755c0.112,0.137,0.314,0.369,0.474,0.551l0.29,0.333
		c0.191,0.223,0.441,0.512,0.588,0.672c0.23,0.251,0.705,0.742,0.943,0.986l0.533,0.541c0.114,0.119,0.211,0.219,0.279,0.28
		c0.121,0.109,0.37,0.307,0.504,0.404c0.144,0.105,0.439,0.305,0.594,0.392c0.149,0.082,0.474,0.224,0.588,0.274
		c0.142,0.061,0.423,0.177,0.564,0.223c0.157,0.048,0.467,0.118,0.623,0.148c0.142,0.029,0.436,0.078,0.587,0.09
		c0.065,0.005,0.16,0.007,0.256,0.007c0.105,0,0.211-0.003,0.281-0.007c0.106-0.006,0.319-0.033,0.425-0.051
		c0.146-0.027,0.422-0.092,0.55-0.13c0.136-0.041,0.4-0.144,0.532-0.197c0.159-0.064,0.477-0.204,0.634-0.279
		c0.15-0.072,0.455-0.23,0.609-0.319c0.148-0.085,0.436-0.265,0.572-0.358c0.121-0.083,0.356-0.258,0.472-0.348
		c0.147-0.114,0.436-0.347,0.576-0.469c0.138-0.122,0.402-0.373,0.531-0.502c0.119-0.122,0.346-0.374,0.456-0.504
		c0.115-0.136,0.337-0.416,0.442-0.558c0.106-0.14,0.304-0.436,0.403-0.584c0.102-0.154,0.3-0.463,0.392-0.621
		c0.066-0.114,0.167-0.305,0.255-0.473l0.453-0.837l0.03-0.057c0.094-0.179,0.247-0.472,0.323-0.628
		c0.053-0.114,0.134-0.302,0.202-0.459l0.704-1.632c0.072-0.176,0.178-0.438,0.228-0.58c0.038-0.106,0.091-0.281,0.138-0.441
		l0.08-0.262l0.038-0.113c0.061-0.185,0.174-0.524,0.196-0.597c0.031-0.099,0.076-0.263,0.116-0.407l0.215-0.793l0.022-0.085
		c0.055-0.212,0.126-0.489,0.159-0.64c0.042-0.189,0.097-0.514,0.143-0.781l0.069-0.407c0.049-0.288,0.1-0.586,0.121-0.758
		c0.026-0.227,0.058-0.676,0.08-1.013c0.018-0.27,0.053-0.79,0.052-1.06c-0.001-0.25-0.031-0.746-0.06-1.001
		c-0.014-0.194-0.046-0.391-0.094-0.574c-0.086-0.218-0.187-0.404-0.304-0.573c-0.12-0.158-0.257-0.305-0.403-0.436
		c-0.239-0.184-0.47-0.34-0.706-0.48c-0.142-0.088-0.43-0.254-0.584-0.325c-0.225-0.101-0.455-0.188-0.686-0.259
		c-0.156-0.044-0.429-0.088-0.703-0.13c-0.107-0.016-0.264-0.034-0.424-0.053c-0.179-0.02-0.356-0.04-0.471-0.059
		c-0.205-0.034-0.613-0.121-0.816-0.165c-0.091-0.02-0.212-0.049-0.341-0.08l-0.055-0.013c-0.259-0.063-0.503-0.121-0.659-0.152
		c-0.139-0.027-0.365-0.06-0.571-0.091l-0.63-0.108c-0.211-0.042-0.496-0.099-0.673-0.114c-0.073-0.006-0.175-0.009-0.283-0.009
		c-0.152,0-0.316,0.005-0.418,0.008c-0.143,0.005-0.494,0.019-0.67,0.048c-0.207,0.038-0.411,0.09-0.61,0.155
		c-0.179,0.064-0.348,0.143-0.51,0.237c-0.241,0.165-0.42,0.377-0.537,0.626c-0.052,0.13-0.085,0.259-0.103,0.392
		c-0.012,0.129-0.01,0.255,0.007,0.379c0.025,0.128,0.064,0.241,0.116,0.346c0.094,0.152,0.193,0.272,0.303,0.375
		c0.107,0.087,0.211,0.158,0.317,0.219c0.063,0.039,0.172,0.095,0.274,0.148l0.182,0.094c0.149,0.081,0.454,0.247,0.603,0.334
		l0.856,0.5c0.173,0.101,0.51,0.309,0.678,0.414c0.157,0.096,0.719,0.454,0.719,0.454c0.1,0.062,0.222,0.137,0.285,0.188
		c0.118,0.099,0.234,0.212,0.34,0.333c0.051,0.069,0.104,0.153,0.149,0.241c0.036,0.082,0.071,0.175,0.098,0.27
		c0.026,0.089,0.047,0.179,0.063,0.27c0.008,0.102,0.009,0.216,0.003,0.33c-0.005,0.095-0.034,0.283-0.049,0.376
		c-0.021,0.127-0.07,0.385-0.095,0.515c-0.022,0.115-0.07,0.342-0.095,0.453c-0.03,0.122-0.094,0.371-0.128,0.497
		c-0.044,0.163-0.135,0.486-0.186,0.645c-0.03,0.1-0.346,1.026-0.378,1.113c-0.046,0.122-0.142,0.366-0.195,0.484
		c-0.03,0.068-0.281,0.578-0.281,0.578c-0.063,0.133-0.104,0.22-0.134,0.272c-0.076,0.135-0.157,0.261-0.244,0.377
		c-0.154,0.192-0.348,0.356-0.57,0.478c-0.093,0.054-0.187,0.103-0.283,0.145c-0.096,0.032-0.207,0.06-0.317,0.08
		c-0.104,0.015-0.215,0.025-0.324,0.029c-0.062,0-0.195-0.01-0.263-0.018c-0.115-0.014-0.227-0.035-0.338-0.063
		c-0.121-0.043-0.251-0.098-0.381-0.159c-0.078-0.036-0.234-0.113-0.307-0.158c-0.055-0.035-0.156-0.114-0.229-0.171l-0.103-0.079
		c-0.091-0.071-0.224-0.173-0.293-0.236c-0.091-0.089-0.182-0.187-0.266-0.289c-0.09-0.113-0.258-0.351-0.331-0.464
		c-0.114-0.173-0.33-0.527-0.429-0.71c-0.099-0.181-0.267-0.519-0.499-1.007c-0.074-0.161-0.502-1.132-0.502-1.132l-0.071-0.161
		l-0.035-0.078c-0.087-0.196-0.175-0.393-0.236-0.522c-0.026-0.055-0.128-0.262-0.224-0.456c-0.081-0.162-0.157-0.315-0.179-0.362
		c-0.035-0.076-0.081-0.181-0.13-0.293l-0.028-0.063c-0.077-0.177-0.155-0.356-0.21-0.469c-0.077-0.159-0.221-0.429-0.335-0.642
		l-0.503-0.945c-0.118-0.228-0.35-0.691-0.462-0.924c-0.096-0.2-0.285-0.603-0.373-0.808c-0.107-0.25-0.298-0.73-0.385-0.969
		c-0.051-0.141-0.131-0.386-0.196-0.585l-0.116-0.35c-0.069-0.205-0.147-0.438-0.187-0.574c-0.055-0.186-0.156-0.544-0.197-0.725
		c-0.052-0.228-0.132-0.656-0.159-0.867c-0.038-0.273-0.058-0.55-0.061-0.827c0.009-0.139,0.034-0.287,0.074-0.432
		c0.053-0.125,0.13-0.265,0.221-0.393c0.088-0.105,0.195-0.213,0.313-0.311c0.114-0.086,0.245-0.169,0.379-0.239
		c0.213-0.095,0.448-0.173,0.683-0.224c0.09-0.009,0.207-0.016,0.322-0.016c0.111,0,0.221,0.006,0.331,0.019
		c0.231,0.05,0.473,0.125,0.711,0.227c0.182,0.093,0.367,0.201,0.548,0.32l0.568,0.345c0.247,0.148,0.527,0.316,0.7,0.411
		c0.058,0.032,0.573,0.316,0.835,0.428c0.174,0.073,0.352,0.135,0.532,0.185c0.129,0.032,0.252,0.049,0.375,0.051l0.027,0.001
		l0.027-0.004c0.172-0.027,0.349-0.086,0.512-0.17c0.196-0.121,0.363-0.263,0.503-0.424c0.12-0.165,0.203-0.334,0.26-0.509
		c0.054-0.284,0.076-0.548,0.073-0.801l0.003-0.128c0.015-0.272,0.015-0.558,0.001-0.841c-0.033-0.236-0.08-0.463-0.139-0.683
		c-0.07-0.275-0.162-0.549-0.272-0.813c-0.059-0.108-0.118-0.197-0.182-0.281l-0.065-0.093l-0.536-0.836
		c-0.1-0.154-0.263-0.403-0.357-0.528c-0.154-0.207-0.478-0.595-0.635-0.767c-0.205-0.226-0.425-0.445-0.653-0.652
		c-0.153-0.128-0.408-0.299-0.658-0.464l-0.548-0.382c-0.23-0.167-0.485-0.351-0.644-0.449c-0.33-0.199-0.677-0.384-1.034-0.55
		c-0.347-0.142-0.695-0.26-1.046-0.357c-0.344-0.082-0.687-0.144-1.03-0.189C46.778,31.487,46.241,31.453,45.836,31.453
		L45.836,31.453z"/>
</g>
<g>
	<path class="st1" d="M73.614,66.479l-0.894-0.029l-0.713-0.012c-0.455-0.007-0.866-0.013-1.129-0.024
		c-0.222-0.009-0.667-0.032-0.889-0.053c-0.16-0.014-0.483-0.05-0.643-0.08c-0.171-0.032-0.51-0.116-0.677-0.166
		c-0.149-0.044-0.444-0.149-0.587-0.213c-0.197-0.088-0.388-0.19-0.569-0.308c-0.143-0.106-0.265-0.222-0.37-0.348
		c-0.069-0.106-0.119-0.204-0.159-0.306c-0.037-0.077-0.07-0.169-0.096-0.261c-0.022-0.105-0.03-0.206-0.027-0.308
		c0.017-0.153,0.044-0.294,0.082-0.432c0.026-0.096,0.093-0.269,0.14-0.387l0.039-0.102c0.033-0.089,0.08-0.21,0.112-0.274
		c0.022-0.048,0.069-0.126,0.115-0.201c0.043-0.071,0.064-0.105,0.077-0.132c0.046-0.092,0.128-0.275,0.163-0.37
		c0.04-0.106,0.103-0.327,0.133-0.438c0.022-0.082,0.066-0.253,0.082-0.338c0.026-0.15,0.058-0.457,0.072-0.611
		c0.011-0.107,0.025-0.318,0.027-0.425c0.004-0.145-0.005-0.397-0.012-0.593l-0.057-1.541l-0.05-2.008l-0.105-3.337l-0.077-2.101
		c-0.02-0.535-0.05-1.402-0.06-1.857c-0.007-0.332-0.011-0.845-0.014-1.34l-0.011-1.046l-0.041-1.728
		c-0.004-0.294-0.016-2.081-0.016-2.081l-0.034-2.057c-0.008-0.462-0.018-0.999-0.015-1.32c0.004-0.253,0.022-0.696,0.037-1.042
		c0.003-0.062,0.038-0.842,0.04-0.952c0.008-0.14,0.008-0.273,0.002-0.407c-0.024-0.164-0.06-0.34-0.104-0.514
		c-0.027-0.109-0.086-0.3-0.13-0.445c-0.01-0.032-0.161-0.504-0.181-0.578c-0.01-0.034-0.018-0.083-0.025-0.133
		c-0.006-0.043-0.014-0.082-0.024-0.12c-0.018-0.033-0.053-0.088-0.096-0.138c-0.023-0.012-0.314-0.173-0.314-0.173
		c-0.078-0.042-0.167-0.092-0.219-0.127c-0.117-0.072-0.228-0.162-0.323-0.264c-0.09-0.119-0.149-0.239-0.188-0.371
		c-0.021-0.127-0.021-0.24-0.005-0.353c0.025-0.115,0.064-0.216,0.118-0.312c0.082-0.115,0.167-0.206,0.262-0.283
		c0.104-0.074,0.205-0.132,0.311-0.182c0.188-0.078,0.372-0.144,0.561-0.2c0.146-0.044,0.448-0.115,0.599-0.145
		c0.155-0.031,0.467-0.08,0.624-0.1c0.12-0.015,0.363-0.036,0.484-0.044c0.199-0.013,0.596-0.028,0.795-0.032
		c0.273-0.006,0.684-0.008,1.094-0.008c0.42,0,0.842,0.003,1.122,0.008c0.141,0.002,1.653,0.063,1.653,0.063
		c0.003,0,0.818,0.048,0.954,0.053c0.151,0.005,1.112,0.021,1.112,0.021c0.196,0.005,3.392,0.127,3.392,0.127
		c0.419,0.016,1.041,0.041,1.361,0.059c0,0,1.036,0.079,1.116,0.083c0.226,0.013,0.673,0.036,0.913,0.036
		c0.183-0.001,0.511-0.022,0.676-0.035c0.148-0.012,0.417-0.044,0.614-0.067l0.287-0.031c0.138-0.008,0.269-0.025,0.398-0.051
		c0.137-0.045,0.286-0.106,0.431-0.178c0.125-0.062,0.357-0.207,0.473-0.28c0.039-0.026,0.096-0.067,0.154-0.11
		c0.1-0.072,0.208-0.149,0.279-0.191c0.143-0.083,0.292-0.155,0.448-0.212c0.154-0.042,0.3-0.063,0.445-0.069
		c0.003,0,0.005,0,0.008,0c0.185,0,0.317,0.017,0.444,0.048c0.177,0.078,0.317,0.166,0.443,0.27c0.14,0.117,0.268,0.245,0.384,0.382
		c0.312,0.399,0.535,0.845,0.666,1.33c0.037,0.138,0.077,0.4,0.104,0.576c0.029,0.191,0.123,0.894,0.123,0.894
		c0.022,0.159,0.051,0.357,0.061,0.473c0.02,0.232,0.038,0.7,0.038,0.935c0,0.316-0.028,0.948-0.049,1.263
		c-0.019,0.274-0.068,0.821-0.101,1.093c-0.023,0.18-0.07,0.535-0.104,0.71c-0.034,0.167-0.078,0.332-0.132,0.494
		c-0.077,0.18-0.163,0.342-0.263,0.495c-0.102,0.137-0.205,0.26-0.315,0.377c-0.104,0.109-0.213,0.212-0.329,0.308
		c-0.099,0.068-0.189,0.123-0.284,0.17c-0.097,0.043-0.189,0.081-0.284,0.111c-0.076,0.021-0.145,0.035-0.215,0.045
		c-0.046,0.005-0.177,0.008-0.178,0.008c-0.064,0-0.115-0.002-0.166-0.007c-0.109-0.012-0.217-0.037-0.322-0.076
		c-0.104-0.053-0.184-0.111-0.256-0.18c-0.061-0.068-0.108-0.133-0.151-0.2c0,0-0.146-0.23-0.169-0.262
		c-0.038-0.053-0.119-0.15-0.162-0.197c-0.062-0.066-0.125-0.13-0.192-0.189c-0.08-0.06-0.172-0.121-0.268-0.178
		c-0.058-0.034-0.176-0.095-0.236-0.125c-0.062-0.031-0.193-0.088-0.261-0.114c-0.094-0.037-0.283-0.1-0.381-0.127
		c-0.102-0.03-0.305-0.075-0.408-0.098c-0.125-0.028-0.374-0.082-0.499-0.103c-0.156-0.026-0.466-0.064-0.621-0.079
		c-0.165-0.017-0.495-0.038-0.662-0.046c-0.32-0.016-0.965-0.034-1.285-0.039h-0.703c-0.236,0.006-0.715,0.032-0.955,0.047
		c-0.145,0.008-0.433,0.027-0.578,0.042c-0.104,0.01-1.073,0.127-1.172,0.143c-0.213,0.023-0.418,0.06-0.62,0.112
		c-0.076,0.027-0.16,0.069-0.239,0.122c-0.054,0.058-0.12,0.143-0.174,0.233c-0.053,0.102-0.102,0.215-0.145,0.331l-0.054,0.136
		c-0.062,0.152-0.126,0.305-0.155,0.389c-0.035,0.101-0.098,0.311-0.125,0.417c-0.034,0.131-0.1,0.396-0.119,0.531
		c-0.024,0.169-0.05,0.514-0.057,0.686c-0.004,0.146,0.002,0.382,0.008,0.602l0.01,0.393c0,0,0.005,1.171,0.008,1.199l-0.058,0.228
		l0.106-0.106c0.026,0.027,0.056,0.051,0.087,0.073c0.074,0.004,0.143,0.005,0.205,0.005c0.166,0,0.296-0.011,0.41-0.021
		l0.354-0.029c0.22-0.016,0.51-0.038,0.672-0.055c0.119-0.012,0.356-0.039,0.475-0.058c0.072-0.012,0.21-0.034,0.276-0.054
		c0.076-0.025,0.153-0.056,0.228-0.093c0.054-0.034,0.118-0.08,0.178-0.13c0.045-0.038,0.133-0.123,0.174-0.169
		c0.029-0.033,0.216-0.278,0.216-0.278c0.054-0.067,0.152-0.19,0.208-0.245c0.076-0.072,0.155-0.137,0.239-0.194
		c0.082-0.05,0.161-0.088,0.243-0.118c0.148-0.042,0.286-0.067,0.427-0.082c0.037-0.003,0.096-0.005,0.153-0.005
		s0.116,0.002,0.153,0.005c0.135,0.013,0.271,0.041,0.403,0.081c0.147,0.062,0.271,0.135,0.383,0.221
		c0.104,0.089,0.192,0.186,0.269,0.292c0.081,0.132,0.143,0.263,0.191,0.397c0.052,0.161,0.092,0.321,0.119,0.483
		c0.021,0.131,0.03,0.35,0.038,0.54l0.01,0.229c0,0,0.071,0.995,0.08,1.17c0.022,0.376,0.048,0.839,0.043,1.083
		c-0.008,0.255-0.053,0.76-0.085,1.012c-0.03,0.25-0.112,0.751-0.165,0.998c-0.042,0.214-0.098,0.427-0.164,0.636
		c-0.063,0.17-0.139,0.327-0.225,0.477c-0.073,0.113-0.15,0.213-0.235,0.307c-0.081,0.087-0.168,0.165-0.262,0.235
		c-0.088,0.058-0.174,0.103-0.261,0.142c-0.077,0.033-0.156,0.061-0.236,0.082c-0.122,0.025-0.237,0.039-0.354,0.043
		c-0.144-0.004-0.285-0.021-0.427-0.054c-0.112-0.038-0.207-0.081-0.297-0.133c-0.111-0.068-0.213-0.147-0.307-0.235
		c-0.09-0.104-0.158-0.204-0.218-0.309c0,0-0.149-0.266-0.167-0.291c-0.044-0.063-0.092-0.123-0.144-0.178
		c-0.075-0.067-0.163-0.137-0.258-0.197c-0.033-0.021-0.11-0.059-0.148-0.077c-0.038-0.017-0.126-0.052-0.171-0.066
		c-0.087-0.028-0.267-0.076-0.357-0.093c-0.112-0.021-0.341-0.041-0.455-0.048c-0.083-0.005-0.202-0.005-0.326-0.005
		c0,0-0.814,0-0.821,0c-0.147,0-0.247,0.005-0.347,0.015c-0.098,0.072-0.108,0.111-0.116,0.152c-0.031,0.142-0.062,0.41-0.081,0.575
		c-0.031,0.271-0.07,0.713-0.086,0.936c-0.013,0.184-0.027,0.532-0.037,0.748l-0.027,0.886l-0.038,0.907
		c-0.002,0.142-0.006,0.43-0.003,0.576c0.006,0.245,0.03,0.736,0.046,0.981c0.015,0.22,0.05,0.658,0.07,0.877l0.019,0.167
		c0.016,0.144,0.026,0.244,0.029,0.311c0.005,0.073,0.005,0.189,0.005,0.299l0.002,0.537c0.002,0.351,0.004,0.673,0.01,0.869
		c0.004,0.171,0.016,0.509,0.027,0.678c0.011,0.147,0.04,0.443,0.058,0.591c0.023,0.188,0.081,0.569,0.118,0.758
		c0.025,0.134,0.086,0.384,0.123,0.54c0.057,0.229,0.128,0.515,0.169,0.659c0.04,0.148,0.128,0.44,0.178,0.583
		c0.039,0.114,0.117,0.335,0.17,0.441c0.04,0.072,0.086,0.148,0.137,0.221c0.049,0.074,0.093,0.143,0.121,0.191
		c0.073,0.121,0.142,0.248,0.202,0.379c0.054,0.136,0.092,0.267,0.117,0.399c0.016,0.115,0.017,0.225,0.006,0.333
		c-0.021,0.129-0.057,0.247-0.11,0.357c-0.09,0.138-0.189,0.244-0.306,0.336c-0.128,0.088-0.258,0.159-0.394,0.216
		c-0.151,0.059-0.302,0.106-0.455,0.144c-0.206,0.044-0.409,0.073-0.614,0.092c-0.103,0.007-0.238,0.011-0.385,0.011L73.614,66.479z
		"/>
	<path d="M86.616,32.111c0.122,0,0.243,0.015,0.361,0.044c0.138,0.063,0.267,0.144,0.385,0.24c0.131,0.111,0.253,0.232,0.364,0.363
		c0.295,0.377,0.511,0.81,0.636,1.272c0.036,0.134,0.074,0.388,0.1,0.559c0.029,0.191,0.123,0.892,0.123,0.892
		c0.022,0.157,0.05,0.352,0.06,0.466c0.02,0.229,0.037,0.691,0.037,0.922c0,0.313-0.027,0.94-0.048,1.253
		c-0.019,0.272-0.068,0.815-0.101,1.085c-0.022,0.176-0.068,0.526-0.103,0.699c-0.032,0.161-0.075,0.32-0.127,0.476
		c-0.069,0.16-0.151,0.314-0.246,0.461c-0.093,0.124-0.192,0.243-0.299,0.356c-0.099,0.105-0.204,0.204-0.315,0.295
		c-0.082,0.057-0.167,0.107-0.256,0.152c-0.086,0.039-0.174,0.074-0.264,0.103c-0.062,0.017-0.125,0.03-0.188,0.039
		c-0.037,0.004-0.097,0.006-0.155,0.006c-0.004,0-0.007,0-0.011,0c-0.048,0-0.095-0.002-0.143-0.007
		c-0.097-0.01-0.193-0.033-0.284-0.067c-0.075-0.039-0.143-0.089-0.204-0.147c-0.047-0.054-0.091-0.112-0.129-0.172
		c0,0-0.153-0.241-0.175-0.271c-0.04-0.056-0.127-0.16-0.173-0.21c-0.064-0.07-0.132-0.137-0.203-0.2
		c-0.093-0.07-0.19-0.135-0.291-0.194c-0.06-0.036-0.183-0.1-0.246-0.131c-0.066-0.032-0.203-0.093-0.273-0.12
		c-0.097-0.038-0.293-0.104-0.394-0.132c-0.103-0.03-0.312-0.077-0.417-0.1c-0.127-0.028-0.38-0.083-0.507-0.104
		c-0.158-0.026-0.474-0.065-0.631-0.081c-0.167-0.017-0.501-0.038-0.669-0.046c-0.322-0.016-0.969-0.034-1.291-0.039h-0.705
		c-0.241,0.006-0.723,0.032-0.964,0.047c-0.146,0.008-0.438,0.028-0.584,0.042c-0.105,0.01-1.08,0.128-1.18,0.144
		c-0.214,0.023-0.426,0.062-0.635,0.115c-0.101,0.035-0.196,0.083-0.285,0.142c-0.084,0.085-0.158,0.179-0.22,0.281
		c-0.06,0.115-0.112,0.234-0.156,0.356l-0.053,0.132c-0.059,0.143-0.126,0.306-0.157,0.395c-0.036,0.104-0.101,0.32-0.129,0.429
		c-0.035,0.135-0.102,0.408-0.122,0.547c-0.025,0.174-0.051,0.526-0.058,0.702c-0.005,0.165,0.003,0.441,0.009,0.681l0.008,0.323
		l0.008,0.973c-0.001,0.132-0.003,0.201,0.002,0.241c0.006,0.036,0.015,0.072,0.026,0.107c0.018,0.036,0.04,0.071,0.064,0.103
		c0.033,0.033,0.07,0.064,0.108,0.09c0.031,0.017,0.063,0.03,0.097,0.041c0.021,0,0.041,0,0.062,0c0.202,0,0.396-0.017,0.559-0.031
		l0.349-0.028c0.221-0.016,0.513-0.038,0.676-0.055c0.121-0.012,0.362-0.04,0.482-0.059c0.074-0.012,0.224-0.037,0.296-0.058
		c0.086-0.028,0.17-0.062,0.251-0.102c0.072-0.044,0.142-0.094,0.207-0.148c0.05-0.042,0.145-0.134,0.189-0.184
		c0.035-0.04,0.086-0.107,0.133-0.169l0.091-0.119c0.049-0.062,0.142-0.177,0.194-0.229c0.068-0.065,0.141-0.124,0.219-0.178
		c0.067-0.04,0.137-0.074,0.21-0.101c0.128-0.035,0.258-0.059,0.39-0.073c0.034-0.003,0.087-0.005,0.139-0.005
		s0.104,0.001,0.139,0.005c0.127,0.012,0.252,0.037,0.374,0.075c0.119,0.051,0.232,0.117,0.335,0.196
		c0.089,0.077,0.169,0.165,0.238,0.261c0.069,0.114,0.126,0.235,0.172,0.36c0.049,0.15,0.086,0.303,0.113,0.458
		c0.02,0.125,0.028,0.336,0.035,0.52l0.011,0.231c0,0,0.071,0.996,0.08,1.17c0.021,0.374,0.047,0.831,0.042,1.072
		c-0.007,0.25-0.052,0.748-0.083,0.996c-0.03,0.248-0.111,0.741-0.163,0.985c-0.043,0.21-0.096,0.418-0.16,0.622
		c-0.059,0.154-0.13,0.303-0.212,0.446c-0.065,0.099-0.137,0.194-0.217,0.281c-0.074,0.079-0.154,0.151-0.24,0.216
		c-0.074,0.047-0.151,0.089-0.231,0.124c-0.07,0.031-0.141,0.056-0.215,0.075c-0.105,0.022-0.211,0.034-0.318,0.037
		c-0.131-0.003-0.262-0.02-0.39-0.05c-0.089-0.03-0.174-0.069-0.255-0.116c-0.1-0.062-0.194-0.134-0.279-0.215
		c-0.071-0.085-0.135-0.177-0.189-0.273l-0.089-0.154c-0.03-0.055-0.062-0.113-0.086-0.148c-0.048-0.069-0.101-0.134-0.158-0.195
		c-0.089-0.08-0.184-0.154-0.284-0.22c-0.039-0.024-0.123-0.065-0.165-0.085c-0.046-0.021-0.142-0.059-0.189-0.075
		c-0.092-0.03-0.281-0.08-0.377-0.098c-0.117-0.021-0.354-0.043-0.474-0.049c-0.085-0.005-0.208-0.006-0.335-0.006h-0.803
		c-0.02,0-0.041-0.001-0.061-0.001c-0.107,0-0.213,0.005-0.319,0.016c-0.042,0.005-0.084,0.014-0.124,0.028
		c-0.033,0.03-0.061,0.064-0.085,0.102c-0.017,0.046-0.031,0.094-0.04,0.142c-0.031,0.143-0.063,0.418-0.083,0.587
		c-0.031,0.272-0.07,0.719-0.086,0.942c-0.015,0.204-0.031,0.611-0.04,0.817l-0.025,0.822l-0.037,0.906
		c-0.003,0.146-0.007,0.438-0.004,0.585c0.006,0.247,0.031,0.741,0.047,0.988c0.015,0.221,0.05,0.661,0.07,0.881l0.019,0.17
		c0.012,0.108,0.025,0.228,0.029,0.302c0.005,0.084,0.004,0.224,0.004,0.343l0.002,0.486c0.002,0.301,0.004,0.66,0.01,0.872
		c0.004,0.172,0.017,0.514,0.028,0.685c0.011,0.149,0.04,0.448,0.058,0.598c0.024,0.192,0.083,0.578,0.12,0.769
		c0.028,0.151,0.102,0.449,0.138,0.599c0.038,0.153,0.114,0.461,0.157,0.613c0.041,0.149,0.13,0.446,0.181,0.592
		c0.04,0.117,0.122,0.348,0.177,0.458c0.045,0.083,0.095,0.163,0.148,0.24c0.045,0.068,0.087,0.134,0.114,0.181
		c0.072,0.119,0.137,0.241,0.196,0.367c0.046,0.118,0.081,0.24,0.105,0.364c0.012,0.096,0.013,0.193,0.004,0.29
		c-0.017,0.107-0.049,0.21-0.096,0.308c-0.073,0.107-0.162,0.202-0.264,0.282c-0.113,0.077-0.233,0.143-0.358,0.195
		c-0.142,0.055-0.286,0.1-0.434,0.137c-0.195,0.041-0.393,0.071-0.592,0.088c-0.097,0.007-0.229,0.01-0.371,0.01l-0.659-0.009
		l-0.891-0.029l-0.715-0.012c-0.409-0.006-0.85-0.012-1.126-0.023c-0.22-0.009-0.661-0.032-0.881-0.053
		c-0.157-0.014-0.473-0.049-0.629-0.078c-0.167-0.031-0.498-0.113-0.661-0.162c-0.145-0.043-0.431-0.145-0.568-0.206
		c-0.19-0.085-0.374-0.184-0.549-0.297c-0.124-0.093-0.237-0.199-0.337-0.318c-0.053-0.083-0.099-0.172-0.135-0.264
		c-0.037-0.079-0.067-0.162-0.091-0.246c-0.017-0.086-0.024-0.175-0.021-0.263c0.015-0.134,0.04-0.267,0.076-0.396
		c0.025-0.092,0.09-0.258,0.135-0.372l0.181-0.051l-0.141-0.053c0.031-0.084,0.075-0.199,0.105-0.26
		c0.022-0.048,0.066-0.12,0.109-0.19c0.032-0.054,0.065-0.106,0.084-0.145c0.047-0.093,0.132-0.284,0.169-0.383
		c0.041-0.11,0.105-0.337,0.137-0.451c0.023-0.086,0.068-0.262,0.085-0.35c0.027-0.155,0.06-0.469,0.074-0.626
		c0.011-0.109,0.026-0.326,0.028-0.436c0.004-0.153-0.006-0.428-0.013-0.63l-0.057-1.513l-0.049-2.006l-0.105-3.338l-0.077-2.102
		c-0.02-0.535-0.05-1.4-0.06-1.854c-0.007-0.331-0.011-0.844-0.014-1.337l-0.011-1.046l-0.041-1.73
		c-0.004-0.293-0.016-2.079-0.016-2.079l-0.032-1.953c-0.009-0.482-0.021-1.077-0.017-1.421c0.004-0.267,0.024-0.747,0.039-1.099
		c0,0,0.036-0.783,0.038-0.894c0.008-0.139,0.008-0.278,0.001-0.417c-0.026-0.183-0.063-0.365-0.108-0.544
		c-0.03-0.119-0.097-0.335-0.143-0.485c0,0-0.149-0.466-0.169-0.539c-0.008-0.03-0.015-0.072-0.021-0.117
		c-0.006-0.046-0.015-0.091-0.027-0.135c-0.033-0.071-0.076-0.138-0.127-0.197c-0.056-0.041-0.116-0.077-0.178-0.108l-0.178-0.099
		c-0.075-0.041-0.159-0.087-0.208-0.121c-0.11-0.067-0.21-0.149-0.298-0.242c-0.069-0.093-0.12-0.198-0.152-0.31
		c-0.015-0.095-0.016-0.193-0.001-0.288c0.021-0.091,0.055-0.179,0.101-0.261c0.064-0.09,0.14-0.17,0.226-0.24
		c0.088-0.062,0.181-0.116,0.279-0.162c0.177-0.074,0.357-0.138,0.54-0.193c0.144-0.043,0.438-0.112,0.585-0.142
		c0.152-0.03,0.459-0.078,0.613-0.098c0.118-0.015,0.357-0.035,0.477-0.043c0.196-0.013,0.59-0.028,0.787-0.032
		c0.272-0.006,0.682-0.008,1.091-0.008c0.419,0,0.84,0.003,1.119,0.008c0.141,0.002,1.65,0.063,1.65,0.063s0.818,0.048,0.955,0.053
		c0.151,0.005,1.114,0.021,1.114,0.021c0.195,0.005,3.389,0.127,3.389,0.127c0.418,0.016,1.039,0.041,1.358,0.059
		c0.135,0.008,0.973,0.076,1.117,0.083c0.228,0.013,0.679,0.036,0.921,0.036c0.187-0.001,0.52-0.022,0.688-0.035
		c0.154-0.013,0.437-0.046,0.637-0.069l0.269-0.028c0.138-0.008,0.275-0.026,0.411-0.053c0.161-0.052,0.318-0.116,0.47-0.191
		c0.128-0.063,0.368-0.212,0.486-0.289c0.042-0.027,0.101-0.07,0.162-0.115c0.095-0.069,0.197-0.143,0.266-0.182
		c0.135-0.079,0.278-0.147,0.425-0.202c0.131-0.035,0.264-0.055,0.399-0.06h0.015C86.593,32.111,86.605,32.111,86.616,32.111
		 M86.616,31.811h-0.003l-0.038,0c-0.176,0.006-0.333,0.03-0.484,0.07c-0.191,0.069-0.35,0.145-0.5,0.233
		c-0.073,0.042-0.186,0.123-0.29,0.198c-0.057,0.042-0.111,0.081-0.149,0.106c-0.11,0.071-0.335,0.212-0.455,0.271
		c-0.139,0.069-0.283,0.128-0.429,0.175c-0.089,0.015-0.213,0.031-0.338,0.039l-0.282,0.029c-0.217,0.025-0.483,0.057-0.63,0.069
		c-0.162,0.013-0.484,0.033-0.665,0.034c-0.235,0-0.678-0.023-0.902-0.035c-0.08-0.004-0.374-0.027-0.641-0.048
		c-0.216-0.017-0.414-0.032-0.475-0.036c-0.322-0.019-0.945-0.043-1.365-0.059c0,0-3.196-0.122-3.392-0.128
		c-0.003,0-0.961-0.016-1.112-0.021c-0.136-0.005-0.948-0.053-0.948-0.053c-0.006,0-1.522-0.061-1.663-0.064
		c-0.28-0.005-0.703-0.008-1.124-0.008c-0.412,0-0.823,0.002-1.097,0.008c-0.2,0.004-0.6,0.019-0.8,0.032
		c-0.125,0.009-0.372,0.03-0.494,0.045c-0.16,0.02-0.477,0.07-0.635,0.101c-0.155,0.031-0.462,0.103-0.613,0.148
		c-0.193,0.058-0.383,0.126-0.569,0.203c-0.125,0.057-0.234,0.121-0.337,0.194c-0.122,0.099-0.217,0.199-0.296,0.311
		c-0.078,0.134-0.122,0.249-0.149,0.369c-0.023,0.147-0.023,0.276-0.003,0.402c0.05,0.181,0.117,0.317,0.207,0.44
		c0.129,0.141,0.25,0.239,0.383,0.32c0.043,0.03,0.137,0.082,0.221,0.128l0.175,0.098c0.046,0.023,0.083,0.045,0.117,0.068
		c0.019,0.025,0.036,0.052,0.05,0.08c0.006,0.024,0.01,0.048,0.013,0.072c0.009,0.061,0.019,0.115,0.029,0.153
		c0.02,0.077,0.174,0.555,0.174,0.555c0.053,0.172,0.11,0.36,0.137,0.468c0.043,0.169,0.077,0.34,0.102,0.513
		c0.004,0.101,0.003,0.229-0.004,0.357c-0.002,0.121-0.038,0.896-0.038,0.896l-0.003,0.063c-0.014,0.347-0.033,0.792-0.037,1.045
		c-0.004,0.323,0.006,0.862,0.015,1.325l0.002,0.106l0.032,1.952c0,0,0,0,0,0c0,0,0.012,1.785,0.016,2.078l0.041,1.733l0.011,1.042
		c0.003,0.494,0.007,1.009,0.014,1.341c0.01,0.456,0.04,1.323,0.06,1.859l0.077,2.102l0.105,3.336l0.049,2.004l0.057,1.517
		c0.008,0.222,0.016,0.469,0.013,0.611c-0.002,0.106-0.017,0.311-0.027,0.414c-0.014,0.153-0.045,0.454-0.071,0.603
		c-0.015,0.078-0.057,0.242-0.079,0.323c-0.029,0.108-0.09,0.321-0.128,0.426c-0.034,0.09-0.112,0.266-0.155,0.352
		c-0.013,0.027-0.032,0.057-0.052,0.09c-0.07,0.114-0.119,0.198-0.145,0.253c-0.031,0.061-0.08,0.189-0.115,0.283l-0.01,0.028
		l-0.028,0.07c-0.048,0.123-0.117,0.303-0.145,0.402c-0.04,0.145-0.069,0.294-0.085,0.444c-0.005,0.133,0.004,0.245,0.025,0.354
		c0.033,0.122,0.069,0.22,0.113,0.314c0.036,0.094,0.091,0.2,0.154,0.299c0.137,0.167,0.267,0.291,0.41,0.397
		c0.204,0.132,0.402,0.24,0.606,0.33c0.149,0.067,0.448,0.173,0.605,0.219c0.161,0.048,0.506,0.135,0.692,0.169
		c0.163,0.031,0.494,0.068,0.658,0.082c0.222,0.021,0.671,0.045,0.895,0.054c0.264,0.011,0.676,0.017,1.07,0.023l0.063,0.001
		l0.714,0.012l0.886,0.029l0.665,0.009c0.001,0,0.001,0,0.002,0c0.154,0,0.292-0.003,0.394-0.01c0.215-0.019,0.426-0.05,0.633-0.094
		c0.17-0.042,0.326-0.091,0.48-0.15c0.152-0.064,0.291-0.139,0.42-0.228c0.142-0.111,0.252-0.228,0.342-0.361
		c0.082-0.163,0.123-0.295,0.144-0.431c0.014-0.135,0.012-0.255-0.003-0.373c-0.031-0.162-0.071-0.302-0.124-0.436
		c-0.071-0.153-0.142-0.285-0.219-0.413c-0.027-0.046-0.072-0.117-0.12-0.19c-0.052-0.075-0.096-0.146-0.136-0.22
		c-0.044-0.09-0.119-0.303-0.156-0.411c-0.05-0.143-0.136-0.43-0.175-0.574c-0.041-0.145-0.111-0.428-0.15-0.585l-0.018-0.073
		c-0.037-0.154-0.097-0.399-0.122-0.53c-0.037-0.188-0.094-0.564-0.117-0.751c-0.017-0.143-0.046-0.435-0.056-0.581
		c-0.011-0.166-0.024-0.501-0.028-0.67c-0.005-0.193-0.007-0.507-0.009-0.787l-0.001-0.08l-0.002-0.486l0-0.05
		c0-0.112,0-0.232-0.004-0.309c-0.003-0.066-0.015-0.17-0.026-0.271l-0.024-0.216c-0.02-0.213-0.055-0.649-0.069-0.868
		c-0.015-0.243-0.04-0.731-0.046-0.976c-0.003-0.143,0.001-0.429,0.004-0.572l0.037-0.9l0.025-0.825l0.002-0.055
		c0.009-0.215,0.024-0.566,0.037-0.75c0.015-0.221,0.054-0.661,0.085-0.93c0.018-0.16,0.048-0.422,0.078-0.557
		c0.003-0.014,0.006-0.028,0.009-0.04c0.086-0.008,0.176-0.012,0.266-0.012l0.055,0.001l0.809,0c0.12,0,0.237,0.001,0.318,0.005
		c0.111,0.006,0.33,0.026,0.438,0.045c0.085,0.016,0.255,0.061,0.337,0.088c0.039,0.013,0.119,0.045,0.157,0.062
		c0.032,0.015,0.1,0.047,0.131,0.067c0.081,0.054,0.164,0.118,0.242,0.188c0.03,0.033,0.073,0.087,0.112,0.143
		c0.016,0.024,0.035,0.06,0.055,0.096l0.107,0.186c0.062,0.11,0.137,0.217,0.219,0.316c0.124,0.12,0.234,0.205,0.352,0.278
		c0.104,0.061,0.208,0.108,0.316,0.145c0.176,0.042,0.327,0.062,0.478,0.066c0.141-0.003,0.265-0.018,0.387-0.043
		c0.104-0.027,0.191-0.057,0.275-0.094c0.094-0.041,0.186-0.09,0.273-0.146c0.118-0.088,0.212-0.172,0.297-0.263
		c0.094-0.103,0.176-0.21,0.25-0.323c0.098-0.17,0.176-0.334,0.24-0.502c0.073-0.231,0.13-0.45,0.174-0.67
		c0.052-0.243,0.135-0.744,0.167-1.008c0.03-0.235,0.078-0.752,0.085-1.024c0.005-0.246-0.018-0.677-0.042-1.098
		c-0.009-0.174-0.08-1.175-0.08-1.175l-0.01-0.224c-0.007-0.193-0.018-0.418-0.038-0.552c-0.03-0.173-0.072-0.341-0.124-0.504
		c-0.056-0.153-0.122-0.292-0.2-0.422c-0.096-0.135-0.192-0.24-0.299-0.333c-0.136-0.105-0.271-0.184-0.413-0.245
		c-0.17-0.055-0.316-0.084-0.463-0.098c-0.041-0.004-0.105-0.006-0.168-0.006c-0.063,0-0.127,0.002-0.169,0.006
		c-0.148,0.015-0.296,0.043-0.439,0.082c-0.115,0.041-0.202,0.083-0.285,0.133c-0.106,0.072-0.192,0.142-0.271,0.218
		c-0.062,0.061-0.167,0.19-0.222,0.259l-0.094,0.123c-0.051,0.068-0.091,0.121-0.119,0.153c-0.036,0.039-0.116,0.118-0.159,0.154
		c-0.053,0.044-0.11,0.085-0.17,0.122c-0.044,0.02-0.114,0.049-0.187,0.072c-0.055,0.016-0.183,0.036-0.248,0.047
		c-0.118,0.019-0.351,0.045-0.468,0.057c-0.161,0.016-0.45,0.038-0.668,0.054l-0.351,0.028c-0.158,0.014-0.342,0.03-0.533,0.03
		c-0.024-0.014-0.04-0.028-0.055-0.043c0.003,0.003,0.004,0.004,0.005,0.004c0.002,0-0.006-0.013-0.013-0.027
		c0.002,0.005,0.004,0.007,0.004,0.007c0.002,0-0.001-0.015-0.004-0.03c-0.001-0.014,0.001-0.054,0.001-0.12l0.001-0.07
		l-0.008-0.978l-0.008-0.328L75.6,43.71c-0.005-0.216-0.011-0.45-0.007-0.595c0.006-0.162,0.031-0.504,0.055-0.668
		c0.019-0.13,0.082-0.387,0.116-0.515c0.027-0.103,0.088-0.308,0.122-0.407c0.029-0.081,0.091-0.232,0.146-0.366l0.059-0.147
		c0.043-0.119,0.09-0.226,0.144-0.33c0.035-0.058,0.086-0.124,0.144-0.185c0.061-0.038,0.126-0.069,0.193-0.093
		c0.169-0.042,0.369-0.078,0.568-0.1c0.111-0.017,1.072-0.133,1.176-0.143c0.144-0.014,0.43-0.033,0.572-0.042
		c0.24-0.015,0.716-0.041,0.954-0.046l0.698,0c0.315,0.005,0.956,0.023,1.276,0.039c0.164,0.008,0.491,0.029,0.654,0.045
		c0.153,0.015,0.458,0.052,0.611,0.078c0.123,0.02,0.368,0.073,0.491,0.101c0.102,0.022,0.3,0.066,0.397,0.095
		c0.097,0.027,0.28,0.089,0.37,0.124c0.066,0.025,0.191,0.081,0.251,0.11c0.056,0.028,0.169,0.086,0.223,0.118
		c0.092,0.055,0.18,0.113,0.265,0.177c0.044,0.041,0.105,0.1,0.162,0.163c0.04,0.044,0.116,0.134,0.15,0.182
		c0.027,0.039,0.165,0.256,0.165,0.256c0.046,0.073,0.099,0.144,0.157,0.21c0.098,0.096,0.19,0.163,0.29,0.215
		c0.149,0.058,0.269,0.087,0.392,0.1c0.06,0.006,0.117,0.009,0.174,0.009c0.081,0,0.153-0.003,0.197-0.008
		c0.087-0.012,0.162-0.028,0.237-0.048c0.114-0.037,0.212-0.075,0.308-0.119c0.111-0.056,0.209-0.114,0.302-0.178
		c0.141-0.115,0.255-0.222,0.363-0.336c0.114-0.121,0.221-0.249,0.321-0.382c0.115-0.177,0.206-0.346,0.281-0.522
		c0.065-0.191,0.111-0.362,0.146-0.535c0.035-0.179,0.083-0.539,0.106-0.72c0.033-0.277,0.084-0.827,0.102-1.103
		c0.02-0.31,0.049-0.944,0.049-1.274c0-0.226-0.017-0.699-0.038-0.947c-0.01-0.118-0.038-0.32-0.062-0.483
		c0-0.001-0.094-0.703-0.123-0.895c-0.033-0.221-0.068-0.451-0.107-0.592c-0.136-0.504-0.368-0.968-0.689-1.379
		c-0.129-0.153-0.264-0.287-0.407-0.408c-0.141-0.115-0.292-0.209-0.453-0.283l-0.025-0.012l-0.027-0.007
		C86.908,31.829,86.762,31.811,86.616,31.811L86.616,31.811z"/>
</g>
</svg>
