<?xml version="1.0" encoding="utf-8"?>
<!-- Generator: Adobe Illustrator 23.0.6, SVG Export Plug-In . SVG Version: 6.00 Build 0)  -->
<svg version="1.1" id="Layer_1" xmlns="http://www.w3.org/2000/svg" xmlns:xlink="http://www.w3.org/1999/xlink" x="0px" y="0px"
	 viewBox="0 0 100 100" style="enable-background:new 0 0 100 100;" xml:space="preserve">
<style type="text/css">
	.st0{fill:#FFFFFF;}
</style>
<title>FGF.silhouette</title>
<path class="st0" d="M18.497,66.715c-0.323,0-0.643-0.007-0.857-0.022c-0.427-0.038-0.851-0.098-1.272-0.18
	c-0.316-0.071-0.628-0.158-0.935-0.26c-0.219-0.077-0.432-0.171-0.636-0.281c-0.147-0.096-0.284-0.207-0.41-0.33
	c-0.113-0.125-0.214-0.261-0.302-0.404c-0.153-0.244-0.229-0.529-0.219-0.816c0-0.158,0.015-0.315,0.042-0.47
	c0.04-0.148,0.093-0.292,0.157-0.432c0.064-0.137,0.218-0.396,0.299-0.522c0.054-0.085,0.152-0.219,0.237-0.335l0.192-0.267
	c0.071-0.097,0.155-0.213,0.2-0.285c0.124-0.201,0.233-0.411,0.329-0.627c0.076-0.241,0.137-0.486,0.183-0.734
	c0.042-0.213,0.1-0.646,0.119-0.861c0.021-0.244,0.039-0.732,0.042-0.977c0.005-0.364-0.011-1.094-0.023-1.458
	c-0.017-0.5-0.061-1.253-0.105-2.003c-0.042-0.729-0.085-1.453-0.102-1.939c-0.029-0.803-0.057-2.41-0.062-3.214
	c-0.006-0.898-0.006-2.695,0-3.594c0.003-0.482,0.012-1.446,0.026-1.928c0.01-0.321,0.037-0.84,0.061-1.312l0.037-0.748
	c0.02-0.447,0.057-1.34,0.062-1.787c0.004-0.38-0.006-1.14-0.018-1.52c-0.008-0.26-0.034-0.78-0.053-1.04
	c-0.017-0.234-0.059-0.7-0.088-0.932c-0.024-0.226-0.059-0.45-0.105-0.672c-0.049-0.162-0.108-0.321-0.178-0.475
	c-0.061-0.13-0.209-0.377-0.284-0.5c-0.06-0.099-0.184-0.286-0.256-0.396l-0.118-0.173c-0.074-0.106-0.156-0.226-0.2-0.303
	c-0.078-0.134-0.144-0.274-0.199-0.418c-0.028-0.104-0.048-0.209-0.059-0.316c-0.009-0.106-0.009-0.213,0-0.32
	c0.043-0.159,0.11-0.311,0.199-0.449c0.114-0.154,0.253-0.288,0.411-0.396c0.176-0.115,0.361-0.215,0.553-0.3
	c0.204-0.075,0.414-0.133,0.628-0.174c0.305-0.047,0.613-0.079,0.921-0.094c0.252-0.014,0.642-0.017,1.02-0.017l0.838,0.004
	c0.335,0.002,0.799,0.018,1.293,0.034c0.606,0.02,1.257,0.042,1.769,0.042c0.152,0,0.292-0.002,0.414-0.006
	c1.303-0.048,2.428-0.058,3.339-0.058l0.686,0.001c0.645,0.002,1.615,0.03,2.582,0.057c0.941,0.026,1.88,0.053,2.51,0.056h0.001
	c0.538-0.007,1.076-0.044,1.61-0.111c0.385-0.046,0.765-0.124,1.137-0.233c0.126-0.063,0.247-0.136,0.362-0.218l0.248-0.163
	c0.088-0.065,0.183-0.121,0.284-0.166c0.144-0.052,0.295-0.081,0.448-0.088l0.103,0.01c0.224,0.077,0.424,0.212,0.581,0.389
	c0.18,0.299,0.311,0.624,0.39,0.963c0.102,0.549,0.165,1.105,0.189,1.663c0.043,0.664,0.041,2.051,0.04,2.208
	c-0.001,0.519-0.007,1.583-0.037,2.102c-0.014,0.471-0.062,0.941-0.145,1.405c-0.077,0.337-0.214,0.657-0.403,0.947
	c-0.168,0.162-0.377,0.275-0.604,0.328l-0.028,0c-0.293,0-0.581-0.067-0.844-0.195c-0.154-0.112-0.287-0.249-0.394-0.406
	c-0.062-0.102-0.116-0.21-0.161-0.321c-0.03-0.067-0.057-0.131-0.081-0.174l-0.05-0.095c-0.06-0.13-0.134-0.253-0.221-0.366
	c-0.108-0.087-0.23-0.156-0.36-0.206c-0.158-0.038-0.319-0.059-0.481-0.064c-0.092-0.005-0.199-0.007-0.317-0.007
	c-0.561,0-1.35,0.05-1.837,0.081l-0.106,0.007c-0.794,0.05-2.377,0.206-3.168,0.289c-0.194,0.02-0.479,0.055-0.769,0.09
	c-0.326,0.04-0.658,0.081-0.876,0.102c-0.278,0.027-0.835,0.075-1.114,0.088c-0.084,0.004-0.596,0.004-0.596,0.004
	c-0.17,0-0.335,0.001-0.449,0.011c-0.158,0.007-0.316,0.031-0.469,0.07c-0.1,0.047-0.191,0.111-0.269,0.189
	c-0.098,0.157-0.172,0.327-0.222,0.505c-0.097,0.324-0.17,0.655-0.218,0.99c-0.044,0.345-0.034,1.096-0.031,1.342
	c0.004,0.272,0.019,0.818,0.055,1.088c0.016,0.219,0.061,0.435,0.134,0.643c0.062,0.082,0.138,0.152,0.226,0.206
	c0.146,0.045,0.297,0.072,0.45,0.081c0.373,0.043,0.985,0.063,1.291,0.071l0.139,0.006c0.082,0.005,0.176,0.01,0.262,0.01
	c0.056,0.002,0.112-0.002,0.167-0.013c0.143-0.05,0.278-0.119,0.401-0.206c0.033-0.029,0.064-0.06,0.093-0.094
	c0.043-0.052,0.092-0.099,0.145-0.14c0.13-0.078,0.269-0.143,0.413-0.192c0.192-0.061,0.388-0.105,0.588-0.131
	c0.037-0.003,0.09-0.006,0.147-0.006c0.086-0.003,0.173,0.006,0.257,0.026c0.179,0.066,0.345,0.162,0.492,0.283
	c0.163,0.158,0.302,0.338,0.414,0.536c0.105,0.249,0.185,0.508,0.241,0.772c0.091,0.394,0.161,0.792,0.21,1.193
	c0.038,0.483,0.048,0.968,0.03,1.453c-0.032,0.494-0.103,0.985-0.211,1.468l-0.028,0.14c-0.04,0.199-0.148,0.592-0.211,0.786
	c-0.038,0.115-0.111,0.303-0.172,0.456l-0.058,0.146c-0.083,0.211-0.198,0.408-0.341,0.584c-0.136,0.151-0.299,0.275-0.482,0.363
	c-0.136,0.053-0.278,0.086-0.423,0.098l0,0c-0.136-0.006-0.27-0.032-0.398-0.078c-0.164-0.081-0.311-0.194-0.433-0.331
	c-0.092-0.127-0.17-0.264-0.232-0.408l-0.178-0.361c-0.065-0.137-0.135-0.284-0.186-0.372c-0.078-0.142-0.167-0.277-0.268-0.404
	c-0.11-0.11-0.234-0.205-0.368-0.284c-0.194-0.076-0.396-0.129-0.602-0.158c-0.044-0.005-0.087-0.006-0.131-0.006
	c-0.068,0-0.14,0.003-0.186,0.006c-0.162,0.016-0.322,0.042-0.48,0.079c-0.15,0.049-0.298,0.106-0.441,0.172
	c-0.114,0.048-0.225,0.105-0.331,0.17c-0.062,0.045-0.118,0.098-0.167,0.157c-0.077,0.156-0.133,0.32-0.167,0.49
	c-0.053,0.249-0.083,0.502-0.092,0.756c0.007,0.528-0.021,1.237-0.044,1.649c-0.014,0.239-0.048,0.61-0.082,0.968
	c-0.027,0.29-0.054,0.572-0.067,0.768c-0.03,0.447-0.083,1.345-0.091,1.793c-0.009,0.447,0.001,1.344,0.023,1.792
	c0.018,0.363,0.077,1.09,0.119,1.451c0.021,0.178,0.093,0.777,0.16,1.051c0.061,0.238,0.14,0.47,0.235,0.696
	c0.061,0.116,0.128,0.229,0.202,0.338c0.065,0.102,0.128,0.2,0.166,0.271c0.083,0.154,0.235,0.469,0.298,0.633
	c0.058,0.148,0.103,0.3,0.136,0.455c0.018,0.15,0.018,0.301,0,0.451c-0.031,0.162-0.083,0.319-0.155,0.468
	c-0.086,0.138-0.189,0.264-0.308,0.376c-0.144,0.116-0.3,0.216-0.466,0.299c-0.289,0.121-0.585,0.224-0.887,0.308
	c-0.259,0.075-0.785,0.2-1.05,0.249c-0.168,0.031-0.507,0.077-0.678,0.088C19.165,66.707,18.83,66.715,18.497,66.715z"/>
<path class="st0" d="M55.144,64.869c0.128-0.039,0.38-0.137,0.506-0.188c0.155-0.062,0.464-0.198,0.617-0.271
	c0.145-0.069,0.439-0.223,0.589-0.309c0.143-0.082,0.421-0.256,0.553-0.346c0.117-0.08,0.345-0.25,0.457-0.337
	c0.144-0.111,0.426-0.339,0.562-0.458c0.132-0.117,0.39-0.361,0.515-0.487c0.113-0.116,0.333-0.36,0.439-0.486
	c0.111-0.132,0.327-0.403,0.429-0.542c0.105-0.14,0.299-0.428,0.395-0.572c0.1-0.15,0.293-0.452,0.383-0.606
	c0.063-0.11,0.162-0.297,0.248-0.461l0.455-0.841c0.087-0.166,0.264-0.502,0.347-0.673c0.05-0.107,0.13-0.292,0.196-0.446
	l0.704-1.632c0.068-0.167,0.172-0.422,0.221-0.561c0.037-0.104,0.088-0.272,0.134-0.427l0.081-0.265
	c0.001-0.004,0.203-0.611,0.234-0.712c0.033-0.107,0.084-0.292,0.126-0.443l0.202-0.746c0.055-0.212,0.141-0.54,0.177-0.709
	c0.043-0.195,0.101-0.535,0.146-0.804l0.063-0.372c0.045-0.263,0.098-0.569,0.119-0.744c0.025-0.222,0.057-0.664,0.078-0.996
	c0.016-0.231,0.053-0.772,0.052-1.04c-0.001-0.23-0.029-0.719-0.058-0.969c-0.014-0.187-0.042-0.364-0.086-0.532
	c-0.063-0.156-0.153-0.323-0.261-0.479c-0.101-0.132-0.223-0.263-0.356-0.383c-0.206-0.157-0.431-0.31-0.659-0.446
	c-0.143-0.088-0.417-0.246-0.556-0.31c-0.21-0.094-0.429-0.177-0.648-0.244c-0.15-0.042-0.482-0.093-0.66-0.121
	c-0.105-0.016-0.26-0.034-0.418-0.052c-0.179-0.02-0.361-0.041-0.48-0.061c-0.209-0.035-0.625-0.123-0.832-0.168
	c-0.104-0.022-0.249-0.058-0.401-0.094c-0.255-0.062-0.494-0.119-0.647-0.149c-0.135-0.026-0.355-0.059-0.557-0.088l-0.637-0.109
	c-0.194-0.039-0.485-0.097-0.648-0.111c-0.166-0.015-0.5-0.005-0.665,0c-0.218,0.007-0.498,0.022-0.631,0.044
	c-0.188,0.035-0.379,0.083-0.565,0.145c-0.154,0.055-0.308,0.127-0.453,0.211c-0.174,0.12-0.321,0.292-0.416,0.494
	c-0.036,0.092-0.062,0.198-0.077,0.305c-0.009,0.093-0.007,0.195,0.007,0.298c0.017,0.082,0.047,0.17,0.088,0.253
	c0.062,0.099,0.146,0.201,0.239,0.289c0.078,0.062,0.17,0.125,0.263,0.179c0.069,0.042,0.183,0.1,0.284,0.152l0.158,0.082
	c0.156,0.085,0.464,0.253,0.615,0.34l0.857,0.5c0.175,0.103,0.516,0.312,0.686,0.418c0.156,0.096,0.722,0.455,0.722,0.455
	c0.107,0.066,0.243,0.151,0.313,0.208c0.137,0.114,0.262,0.237,0.376,0.368c0.076,0.101,0.138,0.199,0.19,0.302
	c0.049,0.11,0.088,0.215,0.119,0.323c0.029,0.099,0.053,0.201,0.07,0.303c0.013,0.141,0.014,0.269,0.007,0.397
	c-0.006,0.104-0.036,0.306-0.052,0.406c-0.021,0.132-0.071,0.396-0.098,0.527c-0.022,0.115-0.071,0.347-0.097,0.46
	c-0.031,0.129-0.097,0.383-0.132,0.511c-0.044,0.164-0.138,0.494-0.189,0.656c-0.029,0.099-0.346,1.027-0.383,1.127
	c-0.048,0.127-0.147,0.38-0.202,0.502c-0.03,0.068-0.286,0.588-0.286,0.588c-0.057,0.119-0.107,0.228-0.145,0.291
	c-0.079,0.142-0.168,0.278-0.263,0.405c-0.187,0.232-0.409,0.42-0.665,0.562c-0.097,0.057-0.201,0.11-0.309,0.157
	c-0.135,0.046-0.26,0.078-0.384,0.101c-0.125,0.019-0.247,0.029-0.368,0.033c0,0,0,0-0.001,0c-0.08,0-0.232-0.011-0.31-0.021
	c-0.126-0.016-0.25-0.039-0.372-0.069c-0.157-0.055-0.297-0.113-0.436-0.178c-0.086-0.04-0.257-0.125-0.338-0.175
	c-0.065-0.042-0.177-0.128-0.257-0.19l-0.102-0.078c-0.099-0.076-0.241-0.187-0.314-0.255c-0.104-0.102-0.201-0.207-0.292-0.316
	c-0.099-0.124-0.274-0.373-0.352-0.491c-0.113-0.172-0.336-0.536-0.441-0.731c-0.161-0.293-0.459-0.922-0.518-1.045
	c-0.064-0.141-0.494-1.115-0.494-1.115l-0.071-0.161c-0.097-0.217-0.199-0.448-0.268-0.592c-0.026-0.057-0.127-0.261-0.222-0.451
	c-0.082-0.165-0.159-0.32-0.182-0.368c-0.043-0.093-0.101-0.226-0.161-0.363c-0.076-0.174-0.152-0.348-0.205-0.458
	c-0.076-0.155-0.217-0.421-0.329-0.631l-0.503-0.945c-0.121-0.233-0.354-0.7-0.468-0.935c-0.098-0.204-0.29-0.612-0.378-0.82
	c-0.109-0.253-0.302-0.741-0.391-0.984c-0.052-0.143-0.134-0.393-0.2-0.595l-0.115-0.349c-0.063-0.189-0.147-0.439-0.19-0.583
	c-0.057-0.19-0.16-0.558-0.202-0.745c-0.052-0.23-0.136-0.672-0.164-0.896c-0.039-0.281-0.061-0.571-0.063-0.862
	c0.011-0.182,0.04-0.352,0.085-0.516c0.075-0.184,0.163-0.342,0.266-0.487c0.115-0.138,0.235-0.259,0.365-0.367
	c0.139-0.105,0.283-0.197,0.434-0.275c0.248-0.111,0.5-0.195,0.757-0.251c0.257-0.03,0.504-0.03,0.75-0.002
	c0.279,0.059,0.542,0.142,0.794,0.249c0.212,0.108,0.409,0.223,0.596,0.345l0.559,0.339c0.242,0.146,0.519,0.311,0.689,0.405
	c0.204,0.113,0.604,0.328,0.809,0.415c0.158,0.066,0.324,0.125,0.494,0.172c0.097,0.024,0.199,0.038,0.302,0.041
	c0.136-0.021,0.284-0.069,0.422-0.14c0.148-0.092,0.291-0.213,0.414-0.354c0.082-0.115,0.152-0.254,0.2-0.404
	c0.04-0.221,0.062-0.465,0.059-0.706l0.003-0.138c0.015-0.275,0.015-0.549,0.001-0.819c-0.028-0.194-0.072-0.408-0.129-0.621
	c-0.067-0.264-0.154-0.524-0.259-0.774c-0.037-0.064-0.089-0.142-0.145-0.216l-0.071-0.102l-0.543-0.845
	c-0.096-0.147-0.253-0.389-0.344-0.51c-0.147-0.198-0.462-0.575-0.617-0.745c-0.2-0.22-0.413-0.433-0.633-0.632
	c-0.135-0.113-0.404-0.292-0.622-0.437l-0.554-0.386c-0.226-0.164-0.475-0.344-0.63-0.44c-0.32-0.193-0.658-0.373-1.002-0.533
	c-0.321-0.13-0.659-0.246-1-0.34c-0.321-0.076-0.656-0.137-0.989-0.18c-0.257-0.031-0.78-0.064-1.172-0.064
	c-0.361,0.012-0.72,0.044-1.074,0.096c-0.18,0.029-0.536,0.12-0.7,0.17c-0.148,0.044-0.441,0.153-0.584,0.213
	c-0.25,0.103-0.499,0.222-0.74,0.354c-0.205,0.131-0.415,0.283-0.614,0.445c-0.092,0.076-0.265,0.243-0.35,0.329
	c-0.103,0.104-0.302,0.315-0.394,0.426c-0.092,0.112-0.267,0.355-0.352,0.48c-0.073,0.108-0.212,0.331-0.276,0.445
	c-0.089,0.161-0.252,0.499-0.33,0.671c-0.072,0.16-0.205,0.484-0.266,0.649c-0.067,0.181-0.2,0.57-0.255,0.766
	c-0.053,0.186-0.138,0.559-0.17,0.734c-0.067,0.363-0.166,1.089-0.202,1.447c-0.031,0.311-0.07,0.896-0.074,1.182
	c-0.005,0.352,0.028,1.072,0.053,1.436c0.024,0.361,0.094,1.071,0.139,1.406c0.049,0.365,0.176,1.088,0.245,1.458
	c0.056,0.302,0.178,0.903,0.245,1.203c0.063,0.284,0.204,0.847,0.276,1.129c0.063,0.243,0.195,0.727,0.266,0.968
	c0.067,0.228,0.212,0.68,0.288,0.904c0.101,0.303,0.302,0.893,0.415,1.182c0.098,0.25,0.314,0.742,0.436,1.011
	c0.152,0.336,0.455,0.985,0.618,1.299c0.103,0.197,0.297,0.536,0.448,0.8l0.126,0.222c0,0,1.127,1.976,1.277,2.245
	c0,0.001,0.733,1.356,0.809,1.49c0.119,0.21,0.361,0.626,0.489,0.831c0.146,0.231,0.451,0.689,0.606,0.913
	c0.15,0.217,0.46,0.643,0.618,0.853c0.141,0.188,0.426,0.562,0.575,0.745c0.11,0.135,0.31,0.363,0.467,0.543l0.291,0.334
	c0.19,0.222,0.438,0.508,0.583,0.666c0.229,0.25,0.7,0.737,0.937,0.979l0.532,0.54c0.097,0.101,0.197,0.206,0.266,0.268
	c0.11,0.1,0.352,0.291,0.479,0.384c0.141,0.103,0.423,0.294,0.564,0.373c0.146,0.081,0.477,0.224,0.573,0.266
	c0.123,0.053,0.391,0.164,0.525,0.208c0.136,0.042,0.435,0.109,0.587,0.139c0.144,0.029,0.422,0.075,0.553,0.085
	c0.127,0.01,0.372,0.008,0.496,0c0.099-0.006,0.296-0.03,0.394-0.047C54.763,64.967,55.022,64.905,55.144,64.869z"/>
<path class="st0" d="M73.616,66.328l-0.891-0.029l-0.715-0.012c-0.409-0.006-0.85-0.012-1.126-0.023
	c-0.22-0.009-0.661-0.032-0.881-0.053c-0.157-0.014-0.473-0.049-0.629-0.078c-0.167-0.031-0.498-0.113-0.661-0.162
	c-0.145-0.043-0.431-0.145-0.568-0.206c-0.19-0.085-0.374-0.184-0.549-0.297c-0.124-0.093-0.237-0.199-0.337-0.318
	c-0.053-0.083-0.099-0.172-0.135-0.264c-0.037-0.079-0.067-0.162-0.091-0.246c-0.017-0.086-0.024-0.175-0.021-0.263
	c0.015-0.134,0.04-0.267,0.076-0.396c0.025-0.092,0.09-0.258,0.135-0.372l0.181-0.051l-0.141-0.053
	c0.031-0.084,0.075-0.199,0.105-0.26c0.022-0.048,0.066-0.12,0.109-0.19c0.032-0.054,0.065-0.106,0.084-0.145
	c0.047-0.093,0.132-0.284,0.169-0.383c0.041-0.11,0.105-0.337,0.137-0.451c0.023-0.086,0.068-0.262,0.085-0.35
	c0.027-0.155,0.06-0.469,0.074-0.626c0.011-0.109,0.026-0.326,0.028-0.436c0.004-0.153-0.006-0.428-0.013-0.63l-0.057-1.513
	l-0.049-2.006l-0.105-3.338l-0.077-2.102c-0.02-0.535-0.05-1.4-0.06-1.854c-0.007-0.331-0.011-0.844-0.014-1.337l-0.011-1.046
	l-0.041-1.73c-0.004-0.293-0.016-2.079-0.016-2.079l-0.032-1.953c-0.009-0.482-0.021-1.077-0.017-1.421
	c0.004-0.267,0.024-0.747,0.039-1.099c0,0,0.036-0.783,0.038-0.894c0.008-0.139,0.008-0.278,0.001-0.417
	c-0.026-0.183-0.063-0.365-0.108-0.544c-0.03-0.119-0.097-0.335-0.143-0.485c0,0-0.149-0.466-0.169-0.539
	c-0.008-0.03-0.015-0.072-0.021-0.117c-0.006-0.046-0.015-0.091-0.027-0.135c-0.033-0.071-0.076-0.138-0.127-0.197
	c-0.056-0.041-0.116-0.077-0.178-0.108l-0.178-0.099c-0.075-0.041-0.159-0.087-0.208-0.121c-0.11-0.067-0.21-0.149-0.298-0.242
	c-0.069-0.093-0.12-0.198-0.152-0.31c-0.015-0.095-0.016-0.193-0.001-0.288c0.021-0.091,0.055-0.179,0.101-0.261
	c0.064-0.09,0.14-0.171,0.226-0.24c0.088-0.062,0.181-0.116,0.279-0.162c0.177-0.074,0.357-0.138,0.54-0.193
	c0.144-0.043,0.438-0.112,0.585-0.142c0.152-0.03,0.459-0.078,0.613-0.098c0.118-0.015,0.357-0.035,0.477-0.043
	c0.196-0.013,0.59-0.028,0.787-0.032c0.272-0.006,0.682-0.008,1.091-0.008c0.419,0,0.84,0.003,1.119,0.008
	c0.141,0.002,1.65,0.063,1.65,0.063s0.818,0.048,0.955,0.053c0.151,0.005,1.114,0.021,1.114,0.021
	c0.195,0.005,3.389,0.127,3.389,0.127c0.418,0.016,1.039,0.041,1.358,0.059c0.135,0.008,0.973,0.076,1.117,0.083
	c0.228,0.013,0.679,0.036,0.921,0.036c0.187-0.001,0.52-0.022,0.688-0.035c0.154-0.013,0.437-0.046,0.637-0.069l0.269-0.028
	c0.138-0.008,0.275-0.026,0.411-0.053c0.161-0.052,0.318-0.116,0.47-0.191c0.128-0.063,0.368-0.212,0.486-0.289
	c0.042-0.027,0.101-0.07,0.162-0.115c0.095-0.069,0.197-0.143,0.266-0.182c0.135-0.079,0.278-0.147,0.425-0.202
	c0.131-0.035,0.264-0.055,0.399-0.06h0.015c0.133-0.003,0.266,0.012,0.396,0.044c0.138,0.063,0.267,0.144,0.385,0.24
	c0.131,0.111,0.253,0.232,0.364,0.363c0.295,0.377,0.511,0.81,0.636,1.272c0.036,0.134,0.074,0.388,0.1,0.559
	c0.029,0.191,0.123,0.892,0.123,0.892c0.022,0.157,0.05,0.352,0.06,0.466c0.02,0.229,0.037,0.691,0.037,0.922
	c0,0.313-0.027,0.94-0.048,1.253c-0.019,0.272-0.068,0.815-0.101,1.085c-0.022,0.176-0.068,0.526-0.103,0.699
	c-0.032,0.161-0.075,0.32-0.127,0.476c-0.069,0.16-0.151,0.314-0.246,0.461c-0.093,0.124-0.192,0.243-0.299,0.356
	c-0.099,0.105-0.204,0.204-0.315,0.295c-0.082,0.057-0.167,0.107-0.256,0.152c-0.086,0.039-0.174,0.074-0.264,0.103
	c-0.062,0.017-0.125,0.03-0.188,0.039c-0.037,0.004-0.097,0.006-0.155,0.006c-0.051,0-0.102-0.002-0.153-0.007
	c-0.097-0.01-0.193-0.033-0.284-0.067c-0.075-0.039-0.143-0.089-0.204-0.147c-0.047-0.054-0.091-0.112-0.129-0.172
	c0,0-0.153-0.241-0.175-0.271c-0.04-0.056-0.127-0.16-0.173-0.21c-0.064-0.07-0.132-0.137-0.203-0.2
	c-0.093-0.07-0.19-0.135-0.291-0.194c-0.06-0.036-0.183-0.1-0.246-0.131c-0.066-0.032-0.203-0.093-0.273-0.12
	c-0.097-0.038-0.293-0.104-0.394-0.132c-0.103-0.03-0.312-0.077-0.417-0.1c-0.127-0.028-0.38-0.083-0.507-0.104
	c-0.158-0.026-0.474-0.065-0.631-0.081c-0.167-0.017-0.501-0.038-0.669-0.046c-0.322-0.016-0.969-0.034-1.291-0.039h-0.705
	c-0.241,0.006-0.723,0.032-0.964,0.047c-0.146,0.008-0.438,0.028-0.584,0.042c-0.105,0.01-1.08,0.128-1.18,0.144
	c-0.214,0.023-0.426,0.062-0.635,0.115c-0.101,0.035-0.196,0.083-0.285,0.142c-0.084,0.085-0.158,0.179-0.22,0.281
	c-0.06,0.115-0.112,0.234-0.156,0.356l-0.053,0.132c-0.059,0.143-0.126,0.306-0.157,0.395c-0.036,0.104-0.101,0.32-0.129,0.429
	c-0.035,0.135-0.102,0.408-0.122,0.547c-0.025,0.174-0.051,0.526-0.058,0.702c-0.005,0.165,0.003,0.441,0.009,0.681l0.008,0.323
	l0.008,0.973c-0.001,0.132-0.003,0.201,0.002,0.241c0.006,0.036,0.015,0.072,0.026,0.107c0.018,0.036,0.04,0.071,0.064,0.103
	c0.033,0.033,0.07,0.064,0.108,0.09c0.031,0.017,0.063,0.03,0.097,0.041c0.021,0,0.041,0,0.062,0c0.202,0,0.396-0.017,0.559-0.031
	l0.349-0.028c0.221-0.016,0.513-0.038,0.676-0.055c0.121-0.012,0.362-0.04,0.482-0.059c0.074-0.012,0.224-0.037,0.296-0.058
	c0.086-0.028,0.17-0.062,0.251-0.102c0.073-0.044,0.142-0.094,0.207-0.148c0.05-0.042,0.145-0.134,0.189-0.184
	c0.035-0.04,0.086-0.107,0.133-0.169l0.091-0.119c0.049-0.062,0.142-0.177,0.194-0.229c0.068-0.065,0.141-0.124,0.219-0.178
	c0.067-0.04,0.137-0.074,0.21-0.101c0.128-0.035,0.258-0.059,0.39-0.073c0.034-0.003,0.087-0.005,0.139-0.005
	s0.104,0.001,0.139,0.005c0.127,0.012,0.252,0.037,0.374,0.075c0.119,0.051,0.232,0.117,0.335,0.196
	c0.089,0.077,0.169,0.165,0.238,0.261c0.069,0.114,0.126,0.235,0.172,0.36c0.049,0.15,0.086,0.303,0.113,0.458
	c0.02,0.125,0.028,0.336,0.035,0.52l0.011,0.231c0,0,0.071,0.996,0.08,1.17c0.021,0.374,0.047,0.831,0.042,1.072
	c-0.007,0.25-0.052,0.748-0.083,0.996c-0.03,0.248-0.111,0.741-0.163,0.985c-0.043,0.21-0.096,0.418-0.16,0.622
	c-0.059,0.154-0.13,0.303-0.212,0.446c-0.065,0.099-0.137,0.194-0.217,0.281c-0.074,0.079-0.154,0.151-0.24,0.216
	c-0.074,0.047-0.151,0.089-0.231,0.124c-0.07,0.031-0.141,0.056-0.215,0.075c-0.105,0.022-0.211,0.034-0.318,0.037
	c-0.131-0.003-0.262-0.02-0.39-0.05c-0.089-0.03-0.174-0.069-0.255-0.116c-0.1-0.062-0.194-0.134-0.279-0.215
	c-0.071-0.085-0.135-0.177-0.189-0.273l-0.089-0.154c-0.03-0.055-0.062-0.113-0.086-0.148c-0.048-0.069-0.101-0.134-0.158-0.195
	c-0.089-0.08-0.184-0.154-0.284-0.22c-0.039-0.024-0.123-0.065-0.165-0.085c-0.046-0.021-0.142-0.059-0.189-0.075
	c-0.092-0.03-0.281-0.08-0.377-0.098c-0.117-0.021-0.354-0.043-0.474-0.049c-0.085-0.005-0.208-0.006-0.335-0.006h-0.803
	c-0.127-0.002-0.254,0.003-0.38,0.016c-0.042,0.005-0.084,0.014-0.124,0.028c-0.033,0.03-0.061,0.064-0.085,0.102
	c-0.017,0.046-0.031,0.094-0.04,0.142c-0.031,0.143-0.063,0.418-0.083,0.587c-0.031,0.272-0.07,0.719-0.086,0.942
	c-0.015,0.204-0.031,0.611-0.04,0.817l-0.025,0.822l-0.037,0.906c-0.003,0.146-0.007,0.438-0.004,0.585
	c0.006,0.247,0.031,0.741,0.047,0.988c0.015,0.221,0.05,0.661,0.07,0.881l0.019,0.17c0.012,0.108,0.025,0.228,0.029,0.302
	c0.005,0.084,0.004,0.224,0.004,0.343l0.002,0.486c0.002,0.301,0.004,0.66,0.01,0.872c0.004,0.172,0.017,0.514,0.028,0.685
	c0.011,0.149,0.04,0.448,0.058,0.598c0.024,0.192,0.083,0.578,0.12,0.769c0.028,0.151,0.102,0.449,0.138,0.599
	c0.038,0.153,0.114,0.461,0.157,0.613c0.041,0.149,0.13,0.446,0.181,0.592c0.04,0.117,0.122,0.348,0.177,0.458
	c0.045,0.083,0.095,0.163,0.148,0.24c0.045,0.068,0.087,0.134,0.114,0.181c0.072,0.119,0.137,0.241,0.196,0.367
	c0.046,0.118,0.081,0.24,0.105,0.364c0.012,0.096,0.013,0.193,0.004,0.29c-0.017,0.107-0.049,0.21-0.096,0.308
	c-0.073,0.107-0.162,0.202-0.264,0.282c-0.113,0.077-0.233,0.143-0.358,0.195c-0.142,0.055-0.286,0.1-0.434,0.137
	c-0.195,0.041-0.393,0.071-0.592,0.088c-0.097,0.007-0.229,0.01-0.371,0.01L73.616,66.328z"/>
</svg>
