<svg id="svg-fgf-scholarship" xmlns="http://www.w3.org/2000/svg" viewBox="0 0 100 100"><defs><style>#svg-fgf-scholarship .cls-1{fill:#e5493f;}#svg-fgf-scholarship .cls-2{fill:#fffa8a;}#svg-fgf-scholarship .cls-3{fill:#ae2c22;}#svg-fgf-scholarship .cls-4{fill:#fff;}</style></defs><path class="cls-1" d="M17.70678,63.16159S15.8,55.35048,15.687,52.68567c-.20277-4.78164-.37923-14.89563,2.01974-19.0369,2.745-4.7386,8.50932-9.70545,16.05649-9.70545,7.749,0,15.40144,1.50611,20.16334,1.50445,3.00862-.001,11.66985-2.94,11.66985-2.94L55.105,50.77071Z"/><path class="cls-2" d="M72.91451,25.989s5.65547,4.744,7.31455,6.99052c2.14025,2.89807,2.44587,5.22291,2.30922,11.06418-.05632,2.40739,2.73162,9.48684,2.73162,9.48684L53.17635,44.5894Z"/><path class="cls-3" d="M53.76539,87.79227c-1.30095-.0401-10.70022-1.69809-14.29823-1.65124-3.50952.04569-10.51638,3.08171-13.88294,2.0892-2.6359-.7771-7.06991-4.78624-8.24407-7.27084-1.84207-3.89792-2.32531-13.28288-.60162-17.23458C18.5937,59.47172,24.53915,53.26138,30.8754,50.915c7.65336-2.83417,13.41805-4.06654,17.35723-6.90291,2.8925-2.08271,7.03339-8.09367,8.94522-11.10185,1.7219-2.70932,3.04459-9.63978,5.63222-11.53966,1.51517-1.11247,5.82682-2.09692,7.43453-1.12295a6.84754,6.84754,0,0,1,2.70562,7.85988c-1.69279,4.61607-5.356,4.28823-7.09875,7.45626-1.307,2.376.27584,7.61741,2.02759,9.68741,3.24,3.82859,11.8054,1.89947,16.82761,6.2552,5.4914,4.76267,5.56008,13.652,5.138,17.6254C89.38307,73.47807,85.86734,82.38,82.29754,84.902c-3.05308,2.15689-11.1586,1.12311-14.869,1.577C64.02236,86.89565,57.19528,87.898,53.76539,87.79227Z"/><path d="M95.33837,48.59992a35.2897,35.2897,0,0,0-2.46437-8.2743c-1.224-2.65029-2.475-4.37536-3.71738-5.12628a17.04632,17.04632,0,0,0-7.84921-1.69554,11.93016,11.93016,0,0,0-3.84613.52531,10.19428,10.19428,0,0,0-5.687,5.85738,7.777,7.777,0,0,0-3.26516-4.08777,22.91289,22.91289,0,0,0-9.62026-2.29492,9.82032,9.82032,0,0,0-2.60673.30647c-2.00153.55824-4.341,2.91416-5.0101,3.623a22.13094,22.13094,0,0,0-3.8069,6.56424,21.10538,21.10538,0,0,0-.6357,2.4421,11.20921,11.20921,0,0,0-1.10243-.81531c1.25446-1.38083,3.21579-6.02877,1.98844-8.283-1.32176-2.43049-4.28046-2.462-6.23985-2.48278-.48175-.00484-.97994-.01017-1.29077-.04938-.947-.12056-1.92987-.27112-2.99261-.43382a56.9602,56.9602,0,0,0-8.62768-.87148,22.57388,22.57388,0,0,0-3.96043.32293,3.664,3.664,0,0,0-2.033,1.16344,4.91729,4.91729,0,0,0-3.408-1.89065,2.96724,2.96724,0,0,0-.52774-1.48152c-.26726-.37814-1.08064-1.52851-4.08439-1.73621-.16945-.01162-.4004-.02081-.65991-.02081a4.52112,4.52112,0,0,0-3.52856,1.15811,2.8923,2.8923,0,0,0-.68073,1.28351,5.66681,5.66681,0,0,0-1.7207.41492c-2.46589,1.08017-3.12816,3.8074-3.30343,5.33691a7.98247,7.98247,0,0,0,1.1155,4.76849l-.03825.061A8.93978,8.93978,0,0,0,4.64554,47.085a4.14775,4.14775,0,0,0,2.78489,3.59538,10.743,10.743,0,0,1,1.16053.46672c.26193.11717.52967.23627.80371.34376a3.06068,3.06068,0,0,0,.33215,1.3266,4.599,4.599,0,0,0,3.69657,2.10465,7.13838,7.13838,0,0,0,1.03753.07359,3.86924,3.86924,0,0,0,3.5886-1.637,3.0762,3.0762,0,0,0,.43478-1.46845,12.45211,12.45211,0,0,0,2.02911-1.009,4.3199,4.3199,0,0,0,.79644,1.29513,3.87854,3.87854,0,0,0-.5471.69381,15.017,15.017,0,0,0-1.77444,6.82714,5.48733,5.48733,0,0,0,4.0805,4.953,5.16841,5.16841,0,0,1,1.97489.97752,11.3546,11.3546,0,0,0,1.71974,1.01c3.50629,1.5692,9.99016,2.60429,13.26793,1.99474,2.11239-.39266,5.80412-1.7914,7.31761-4.03694a14.062,14.062,0,0,0,1.00366-1.74975c.07359.17478.14573.33939.216.49142,1.22395,2.64933,2.47454,4.37439,3.71738,5.12678a17.05629,17.05629,0,0,0,7.85018,1.695,11.92388,11.92388,0,0,0,3.8452-.52532,10.19426,10.19426,0,0,0,5.687-5.85737,7.77675,7.77675,0,0,0,3.26516,4.08776,22.90648,22.90648,0,0,0,9.62123,2.29493,9.80575,9.80575,0,0,0,2.60478-.30647c2.00153-.55728,4.34195-2.91417,5.01106-3.623A22.13279,22.13279,0,0,0,93.978,59.66593,33.95634,33.95634,0,0,0,95.33837,48.59992Zm-13.20014.05132v.00048c-.08231.52677-.23627,1.17023-.40767,1.88533a21.34151,21.34151,0,0,0-.61,3.24774c-.07263.9664-.25371,2.80717-.42994,3.6346a2.86362,2.86362,0,0,1-.34569.76449l-.06-.00822a2.89609,2.89609,0,0,1-.23238-.92571,16.00048,16.00048,0,0,1,.11033-2.49779c.06972-.49094.12393-.96347.17624-1.41326.06777-.58777.12587-1.09518.19952-1.44086.07166-.33795.13945-.63184.20141-.90054l.02421-.106a18.614,18.614,0,0,0,.40573-2.15645,5.64746,5.64746,0,0,1,.55387-2.14145,2.67283,2.67283,0,0,1,.3515-.46285l.08328.01937A10.91172,10.91172,0,0,1,82.13823,48.65124ZM60.90392,51.76537c-.08134.382-.1559.7088-.23143,1.03078a18.49353,18.49353,0,0,0-.39992,2.13176,5.65279,5.65279,0,0,1-.55388,2.142,2.70892,2.70892,0,0,1-.3515.46287l-.08333-.01937a11.03352,11.03352,0,0,1,.02032-2.50214c.08425-.53839.24209-1.19246.40864-1.88581a21.55435,21.55435,0,0,0,.60914-3.24726c.07747-1.03417.26241-2.84541.42993-3.6346a2.79354,2.79354,0,0,1,.34569-.76351l.06.00775a2.92992,2.92992,0,0,1,.23336.92473,16.06223,16.06223,0,0,1-.11136,2.49779v.00048c-.06971.49142-.12393.96348-.18107,1.45781C61.03271,50.937,60.97654,51.428,60.90392,51.76537ZM37.05464,56.55855a2.75506,2.75506,0,0,1-.95573.12685,13.17057,13.17057,0,0,1-4.22237-.9228c-1.29852-.49966-1.48734-.88554-1.80107-1.527-.09683-.198-.20529-.41928-.33989-.65216q.20627-.00873.40573-.01453a19.256,19.256,0,0,1,6.58555,1.05693,1.38485,1.38485,0,0,1,.19173.38538A3.33994,3.33994,0,0,1,37.05464,56.55855Z"/><path class="cls-4" d="M39.87214,37.26822c-4.58-.58284-10.02115-1.85076-14.83725-1.00036-1.49441.26388-2.48,4.53038-2.66064,6.10272-.17941,1.56188-.40477,7.26256.813,8.18763,1.29037.98024,4.48771.60493,6.87905.5326a21.5282,21.5282,0,0,1,7.72209,1.29307c1.91284.83278,2.204,4.53214,1.2617,5.713-1.51348,1.8968-5.7706.86194-8.0639-.02044-3.08268-1.18613-2.84179-2.72341-3.709-3.69129-1.2918-1.44174-3.71469-1.3334-4.40383-.21479a12.96189,12.96189,0,0,0-1.40923,5.39891,3.06021,3.06021,0,0,0,2.02576,2.63809c1.89855.32721,2.9955,1.58968,4.2864,2.16778,3.01417,1.34972,8.89606,2.36011,11.80225,1.82008,1.90418-.35383,4.76494-1.57624,5.7152-2.98574a15.08946,15.08946,0,0,0,2.099-9.5912,9.54557,9.54557,0,0,0-1.32591-4.448c-1.36324-1.73065-4.481-3.02331-6.60573-3.497a51.39371,51.39371,0,0,0-9.272-.62322c-.67765.01526-.61736-2.24577.02394-2.475.78833-.28179,4.86027.647,8.77829,1.043,1.62671.1644,3.78738,1.5031,4.89314.34766.89213-.93222,2.1515-4.52544,1.65388-5.43979C44.687,36.96147,41.58267,37.48586,39.87214,37.26822Z"/><path class="cls-4" d="M70.35765,45.41729c-.0806-2.60952-.89123-6.212-3.0819-7.468-2.293-1.31464-7.8-2.45588-10.32716-1.7513a12.37962,12.37962,0,0,0-3.87513,2.93765,19.53012,19.53012,0,0,0-3.262,5.66018,31.30633,31.30633,0,0,0-1.24359,9.98855,32.9437,32.9437,0,0,0,2.25127,7.51369c.53244,1.15263,1.69033,3.40366,2.75018,4.04533a15.39908,15.39908,0,0,0,9.59714.94959c3.08449-1.07428,4.401-4.59728,5.461-7.80885A37.30915,37.30915,0,0,0,70.35765,45.41729Zm-6.62339,3.84157c-.16831,1.18563-.24251,2.256-.40552,3.02241-.27034,1.27109-.47778,1.94787-.59476,2.93771a8.06934,8.06934,0,0,1-.811,2.98475c-.34407.66882-1.38774,1.88311-2.09066,1.88311a4.67225,4.67225,0,0,1-2.59531-.82861c-.54675-.74748-.578-3.386-.38156-4.6325.23739-1.5065.88623-3.4982.99435-4.93377a39.25258,39.25258,0,0,1,.47758-3.964c.19912-.93595,1.03966-2.46739,1.91948-2.73993a6.14393,6.14393,0,0,1,2.29792.28247,4.42809,4.42809,0,0,1,1.32467,3.1446A18.06053,18.06053,0,0,1,63.73426,49.25886Z"/><path class="cls-4" d="M71.08506,58.24582c.08058,2.60951.89123,6.212,3.08191,7.468,2.293,1.31462,7.8,2.45588,10.32715,1.75129a12.37981,12.37981,0,0,0,3.87512-2.93764,19.52982,19.52982,0,0,0,3.262-5.66019,31.30582,31.30582,0,0,0,1.24358-9.98852A32.94177,32.94177,0,0,0,90.6235,41.365c-.53244-1.15263-1.69033-3.40365-2.75019-4.04533a15.39908,15.39908,0,0,0-9.59714-.94959c-3.08448,1.07428-4.40095,4.59728-5.46095,7.80884A37.309,37.309,0,0,0,71.08506,58.24582Zm6.62344-3.84157c.16828-1.18563.2425-2.256.40551-3.02241.27035-1.27109.47779-1.94787.59475-2.93771a8.06925,8.06925,0,0,1,.811-2.98474c.34407-.66882,1.38774-1.88313,2.09067-1.88313a4.67219,4.67219,0,0,1,2.5953.82861c.54676.74748.578,3.38606.38156,4.6325-.23737,1.50649-.88622,3.4982-.99433,4.93378a39.25543,39.25543,0,0,1-.47759,3.964c-.19912.936-1.03966,2.46739-1.91947,2.73994a6.144,6.144,0,0,1-2.29793-.28247,4.42806,4.42806,0,0,1-1.32466-3.1446A18.05686,18.05686,0,0,1,77.7085,54.40425Z"/><path class="cls-4" d="M20.61919,43.56815a3.92329,3.92329,0,0,0-.86077-1.95255,5.15491,5.15491,0,0,0-3.38647-1.3939c-1.12385-.1769-2.86853-.1953-4.30836-.26478-1.25488-.06057-1.36666-1.18843-.44834-1.72882,1.23339-.72594,3.11508.10651,5.327.58044,1.38821.29753,2.2016,1.0329,2.76958.43937a4.29472,4.29472,0,0,0,.84953-2.79408c-.43738-.80359-1.86312-.94429-3.53661-1.15684a2.12794,2.12794,0,0,1-.66415-.12873c-.07826-.09133.01622-.41879.05271-.51581.14228-.37792.43151-1.27334.19835-1.603-.34449-.487-1.63664-.653-2.23168-.69411-.52507-.03625-1.84-.03946-2.1973.34709-.23276.25176-.09786,1.04293,0,1.37162a1.18293,1.18293,0,0,1-.02627.59491,15.76585,15.76585,0,0,0-3.2009.31942c-1.38355.606-1.74291,2.54179-1.83563,3.34936a4.91454,4.91454,0,0,0,1.41055,3.90012,7.30149,7.30149,0,0,0,3.59262,1.01257,10.42394,10.42394,0,0,1,2.954.53475c.73381.251,1.60833.73986,1.51809,1.39432-.19835,1.43776-1.83581.98454-3.33828.628a6.3943,6.3943,0,0,1-3.14959-1.51324,1.54629,1.54629,0,0,0-2.17888-.18566q-.04292.03618-.08312.07539a6.65725,6.65725,0,0,0-.72388,2.77309A1.68123,1.68123,0,0,0,8.162,48.31215c.936.289,1.71971.7419,2.40949.96995a9.391,9.391,0,0,1,1.51816.454,1.32017,1.32017,0,0,1-.03734.68437c-.07511.32628-.27848.95946-.12441,1.25674.26813.51745,1.29048.70715,1.86672.7943.58717.08881,1.83762.09164,2.137-.40078.17074-.28085.01624-.804-.01885-1.13076-.019-.17685-.12576-.61984.028-.70926.18629-.10834,3.19963-1.1139,3.67537-1.81963A7.42217,7.42217,0,0,0,20.61919,43.56815Z"/></svg>