<svg id="Layer_1" data-name="Layer 1" xmlns="http://www.w3.org/2000/svg" viewBox="0 0 86.95044 118.59949"><defs><style>.cls-1{fill:#ffbd7d;}.cls-2{fill:#8b551d;}.cls-3{fill:#fff;}.cls-4{font-size:9.42145px;fill:none;font-family:Chewy-Regular, Chewy;}</style></defs><title>lettersofrecthumbnail.es</title><path class="cls-1" d="M86.95044,59.29993l-.866-1.5-7.467-12.93335,7.467-12.93329.866-1.5-.866-1.5-7.50555-13-.866-1.5H61.0459L53.57886,1.5l-.866-1.5H34.23761l-.866,1.5-7.467,12.93329H9.23761l-.866,1.5-7.50555,13-.866,1.5.866,1.5,7.467,12.93329L.866,57.79993l-.866,1.5.866,1.5,7.467,12.93329L.866,86.6665,0,88.1665l.866,1.5,7.50555,13,.866,1.5H25.90472l7.46686,12.933.866,1.5H52.71283l.866-1.5,7.46686-12.933H77.71283l.866-1.5,7.50555-13,.866-1.5-.866-1.5-7.467-12.93328,7.467-12.93329Z"/><polygon class="cls-2" points="50.981 31.867 35.97 31.867 28.464 44.867 35.97 57.867 50.981 57.867 58.486 44.867 50.981 31.867"/><polygon class="cls-2" points="75.981 46.3 60.97 46.3 53.464 59.3 60.97 72.3 75.981 72.3 83.486 59.3 75.981 46.3"/><polygon class="cls-2" points="25.981 46.3 10.97 46.3 3.464 59.3 10.97 72.3 25.981 72.3 33.486 59.3 25.981 46.3"/><polygon class="cls-2" points="25.981 17.433 10.97 17.433 3.464 30.433 10.97 43.433 25.981 43.433 33.486 30.433 25.981 17.433"/><polygon class="cls-2" points="75.981 17.433 60.97 17.433 53.464 30.433 60.97 43.433 75.981 43.433 83.486 30.433 75.981 17.433"/><polygon class="cls-2" points="50.981 3 35.97 3 28.464 16 35.97 29 50.981 29 58.486 16 50.981 3"/><polygon class="cls-2" points="50.981 60.733 35.97 60.733 28.464 73.733 35.97 86.733 50.981 86.733 58.486 73.733 50.981 60.733"/><polygon class="cls-2" points="75.981 75.167 60.97 75.167 53.464 88.167 60.97 101.167 75.981 101.167 83.486 88.167 75.981 75.167"/><polygon class="cls-2" points="25.981 75.167 10.97 75.167 3.464 88.167 10.97 101.167 25.981 101.167 33.486 88.167 25.981 75.167"/><polygon class="cls-2" points="50.981 89.6 35.97 89.6 28.464 102.6 35.97 115.6 50.981 115.6 58.486 102.6 50.981 89.6"/><circle class="cls-3" cx="43.47522" cy="59.29993" r="19"/><text class="cls-4" transform="translate(0.87366 8.2428)">Cartas<tspan x="-0.87402" y="8.63623">de Rec.</tspan></text><text class="cls-4" transform="translate(-0.00037 8.2428)">Letters<tspan x="1.27881" y="8.63623">of Rec.</tspan></text><path d="M35.82947,53.61078a1.74316,1.74316,0,0,1-.04151.36816,1.30248,1.30248,0,0,1-.1333.35889.87011.87011,0,0,1-.23925.27588.58028.58028,0,0,1-.35889.11035.80568.80568,0,0,1-.47852-.11523.61727.61727,0,0,1-.2207-.28956,1.14343,1.14343,0,0,1-.06885-.37255c-.00342-.13184-.00781-.25635-.01416-.37256a.8282.8282,0,0,0-.05957-.29.21077.21077,0,0,0-.21631-.11475.44829.44829,0,0,0-.32177.1333,1.18086,1.18086,0,0,0-.23926.34473,2.60944,2.60944,0,0,0-.17041.47852q-.06885.26733-.11035.52929c-.02784.17481-.04737.34033-.05957.49658-.0127.15625-.01856.2837-.01856.38184q0,.19337.01367.46a2.13328,2.13328,0,0,0,.08741.51074,1.11121,1.11121,0,0,0,.2207.41407.52848.52848,0,0,0,.42334.17041,1.40235,1.40235,0,0,0,.35889-.04639q.17432-.04541.3496-.10547.17433-.06006.354-.106a1.45385,1.45385,0,0,1,.36377-.04589.4318.4318,0,0,1,.34961.16992.59315.59315,0,0,1,.13769.38183.91067.91067,0,0,1-.18359.54737,1.96979,1.96979,0,0,1-.45557.44629,2.33792,2.33792,0,0,1-.58886.30371,1.76459,1.76459,0,0,1-.5752.11035,2.01761,2.01761,0,0,1-1.12256-.29883,2.35947,2.35947,0,0,1-.74512-.773,3.40631,3.40631,0,0,1-.40918-1.0581,5.56723,5.56723,0,0,1-.12451-1.16358,5.3605,5.3605,0,0,1,.07373-.84668,6.3948,6.3948,0,0,1,.22071-.9248,5.59545,5.59545,0,0,1,.37255-.897,3.55332,3.55332,0,0,1,.5293-.76367,2.53909,2.53909,0,0,1,.68555-.53369,1.76907,1.76907,0,0,1,.8418-.20215,1.23368,1.23368,0,0,1,.75439.2251,1.701,1.701,0,0,1,.48779.5708,2.56066,2.56066,0,0,1,.25733.7544A4.4239,4.4239,0,0,1,35.82947,53.61078Z"/><path d="M40.10779,56.99652c0,.11035-.00488.25488-.01416.43262a2.65832,2.65832,0,0,1-.07813.51953,1.2221,1.2221,0,0,1-.20215.437.45536.45536,0,0,1-.38671.18408.64318.64318,0,0,1-.52442-.2207.79577.79577,0,0,1-.1748-.55225,2.26933,2.26933,0,0,1-.667.40528,2.06009,2.06009,0,0,1-.75927.147,1.05172,1.05172,0,0,1-.50586-.12891,1.58132,1.58132,0,0,1-.42334-.331,1.658,1.658,0,0,1-.29444-.45557,1.25187,1.25187,0,0,1-.11035-.50146,1.1827,1.1827,0,0,1,.27149-.773,2.49669,2.49669,0,0,1,.667-.56543,3.90732,3.90732,0,0,1,.8418-.373,4.92792,4.92792,0,0,1,.79589-.18359.60739.60739,0,0,1,.00489-.083.70468.70468,0,0,0,.00439-.083.66557.66557,0,0,0-.15625-.46.56343.56343,0,0,0-.44189-.1748.9245.9245,0,0,0-.39551.07812,2.6503,2.6503,0,0,0-.313.17481c-.09814.06445-.19629.123-.29443.1748a.69351.69351,0,0,1-.33106.07861.49734.49734,0,0,1-.34521-.1289.42751.42751,0,0,1-.14258-.33154.92074.92074,0,0,1,.17969-.55176,1.5878,1.5878,0,0,1,.45068-.41846,2.43763,2.43763,0,0,1,.58887-.26709,2.01608,2.01608,0,0,1,.58447-.09668,2.10537,2.10537,0,0,1,.49658.06006,1.84,1.84,0,0,1,.86963.4873,1.43024,1.43024,0,0,1,.28955.419,4.015,4.015,0,0,1,.26709.72217,6.49957,6.49957,0,0,1,.15625.78222q.05493.39992.07373.8003Q40.10754,56.61908,40.10779,56.99652Zm-1.47217-.29443-.02783-.62549a.13517.13517,0,0,1-.03662-.00488.16378.16378,0,0,0-.03711-.0044.99227.99227,0,0,0-.29883.05957,1.54693,1.54693,0,0,0-.34522.166,1.32934,1.32934,0,0,0-.28027.23437.39682.39682,0,0,0-.11523.26709.17672.17672,0,0,0,.09228.17481.46463.46463,0,0,0,.21143.0459,1.03788,1.03788,0,0,0,.43261-.106Q38.46009,56.80366,38.63562,56.70209Z"/><path d="M43.85242,54.853a.554.554,0,0,1-.22071-.023c-.06152-.02149-.123-.04444-.18408-.06934q-.08275-.03662-.16553-.06885a.40626.40626,0,0,0-.18408-.023.654.654,0,0,0-.32666.10108,1.14488,1.14488,0,0,0-.25781.23,1.52344,1.52344,0,0,0-.19775.3081,2.00328,2.00328,0,0,0-.12891.33594,2.05176,2.05176,0,0,0-.0415.33594c-.00879.15039-.01368.31152-.01368.48291-.00634.17822-.00927.34668-.00927.50635a4.23642,4.23642,0,0,1-.06446.72217,1.66125,1.66125,0,0,1-.11474.37255.89192.89192,0,0,1-.207.29444.46814.46814,0,0,1-.33106.11963.4203.4203,0,0,1-.27148-.09229.73362.73362,0,0,1-.19336-.24365,1.63467,1.63467,0,0,1-.12891-.354,3.70974,3.70974,0,0,1-.07812-.41406c-.01856-.14746-.03223-.29443-.04151-.44189q-.01391-.22046-.01806-.41846-.00513-.19776,0-.36328c.00293-.11084.00439-.19922.00439-.26709q-.00952-.32154-.03223-.64844-.02269-.32666-.023-.64892c0-.13477.00586-.28516.01856-.45069a1.63249,1.63249,0,0,1,.10107-.46484.9376.9376,0,0,1,.24366-.36328.6372.6372,0,0,1,.44629-.147.3816.3816,0,0,1,.26708.10107.78594.78594,0,0,1,.1792.24853,1.52892,1.52892,0,0,1,.106.3125,2.081,2.081,0,0,1,.0459.30372,2.3037,2.3037,0,0,1,.49658-.584,1.18222,1.18222,0,0,1,.71778-.24414,1.6256,1.6256,0,0,1,.437.0415,1.25809,1.25809,0,0,1,.3955.16553.94715.94715,0,0,1,.29444.29932.86222.86222,0,0,1,.12451.43213.50338.50338,0,0,1-.1748.45117A.76736.76736,0,0,1,43.85242,54.853Z"/><path d="M46.7782,58.62494a2.455,2.455,0,0,1-1.0166-.16992,1.17962,1.17962,0,0,1-.543-.4834,1.79627,1.79627,0,0,1-.21631-.7544q-.03661-.44164-.03662-.98437,0-.43213.02734-.86914.02784-.43726.083-.93408c-.08594,0-.15332.00146-.20264.00439-.04883.00342-.08886.00488-.11963.00488A.9787.9787,0,0,1,44.243,54.31a.42892.42892,0,0,1-.21582-.39551.41165.41165,0,0,1,.124-.29443,1.0743,1.0743,0,0,1,.31738-.22071,2.15874,2.15874,0,0,1,.41845-.14746,2.99722,2.99722,0,0,1,.42823-.07373,4.94168,4.94168,0,0,1,.03662-.57031,2.65152,2.65152,0,0,1,.1333-.584,1.34527,1.34527,0,0,1,.26221-.45556.54437.54437,0,0,1,.42334-.18408.42281.42281,0,0,1,.2622.0874.69527.69527,0,0,1,.18848.2207,1.10629,1.10629,0,0,1,.11035.29932,1.46048,1.46048,0,0,1,.03711.32178,2.64535,2.64535,0,0,1-.02783.37744,4.56914,4.56914,0,0,1-.10108.47851c.104-.01269.17481-.02.21143-.02343.03711-.00293.0708-.0044.10156-.0044a2.0313,2.0313,0,0,1,.32666.02783,1.22479,1.22479,0,0,1,.3125.0918.6708.6708,0,0,1,.23487.17041.37338.37338,0,0,1,.09179.25293.39918.39918,0,0,1-.1333.29443,1.18683,1.18683,0,0,1-.33594.22071,2.15634,2.15634,0,0,1-.43212.14257,3.50746,3.50746,0,0,1-.43262.06885q-.05493.37792-.07813.69483-.02343.31713-.05078.63964-.0183.156-.03222.31739c-.00928.10742-.01368.21582-.01368.32666,0,.07959.00293.17334.00928.28027a1.01993,1.01993,0,0,0,.06445.30811.62228.62228,0,0,0,.17481.25341.48289.48289,0,0,0,.33105.10547,1.59589,1.59589,0,0,0,.26709-.023,1.6926,1.6926,0,0,1,.27588-.02295.378.378,0,0,1,.34473.16553.77211.77211,0,0,1,.106.42334.52174.52174,0,0,1-.11475.33594.87813.87813,0,0,1-.29.23,1.6447,1.6447,0,0,1-.39111.1333A1.96353,1.96353,0,0,1,46.7782,58.62494Z"/><path d="M52.078,56.99652c0,.11035-.00488.25488-.01416.43262a2.65756,2.65756,0,0,1-.07812.51953,1.2221,1.2221,0,0,1-.20215.437.45537.45537,0,0,1-.38672.18408.64317.64317,0,0,1-.52441-.2207.79578.79578,0,0,1-.17481-.55225,2.26941,2.26941,0,0,1-.667.40528,2.06018,2.06018,0,0,1-.75928.147,1.05174,1.05174,0,0,1-.50586-.12891,1.58132,1.58132,0,0,1-.42334-.331,1.65776,1.65776,0,0,1-.29443-.45557,1.25187,1.25187,0,0,1-.11035-.50146,1.18269,1.18269,0,0,1,.27148-.773,2.49684,2.49684,0,0,1,.667-.56543,3.90775,3.90775,0,0,1,.8418-.373,4.928,4.928,0,0,1,.7959-.18359.6075.6075,0,0,1,.00488-.083.70453.70453,0,0,0,.0044-.083.66562.66562,0,0,0-.15625-.46.56347.56347,0,0,0-.4419-.1748.92453.92453,0,0,0-.39551.07812,2.64936,2.64936,0,0,0-.313.17481c-.09815.06445-.19629.123-.29444.1748a.69344.69344,0,0,1-.33105.07861.49737.49737,0,0,1-.34522-.1289.42754.42754,0,0,1-.14257-.33154.92073.92073,0,0,1,.17968-.55176,1.58771,1.58771,0,0,1,.45069-.41846,2.43773,2.43773,0,0,1,.58886-.26709,2.01615,2.01615,0,0,1,.58448-.09668,2.10549,2.10549,0,0,1,.49658.06006,1.84,1.84,0,0,1,.86963.4873,1.43024,1.43024,0,0,1,.28955.419,4.015,4.015,0,0,1,.26709.72217,6.50152,6.50152,0,0,1,.15625.78222q.05493.39992.07373.8003Q52.07777,56.61908,52.078,56.99652Zm-1.47217-.29443L50.578,56.0766a.13527.13527,0,0,1-.03662-.00488.16365.16365,0,0,0-.03711-.0044.99227.99227,0,0,0-.29883.05957,1.54686,1.54686,0,0,0-.34521.166,1.32934,1.32934,0,0,0-.28027.23437.39684.39684,0,0,0-.11524.26709.17671.17671,0,0,0,.09229.17481.46456.46456,0,0,0,.21142.0459,1.03793,1.03793,0,0,0,.43262-.106Q50.43029,56.80366,50.60583,56.70209Z"/><path d="M55.32556,53.23334a.45449.45449,0,0,1-.1792.396,3.271,3.271,0,0,1-.40039.24366,2.03951,2.03951,0,0,0-.40039.27148.59109.59109,0,0,0-.1792.46924.50811.50811,0,0,0,.07813.28515.99677.99677,0,0,0,.19336.21631q.115.09669.25293.19776a1.61156,1.61156,0,0,1,.25293.23,1.126,1.126,0,0,1,.19335.313,1.15019,1.15019,0,0,1,.07813.45068,1.5998,1.5998,0,0,1-.19775.75879,2.54788,2.54788,0,0,1-1.20069,1.12744,1.84811,1.84811,0,0,1-.76367.1748,2.17847,2.17847,0,0,1-.313-.02294.90216.90216,0,0,1-.28027-.08741.58149.58149,0,0,1-.207-.17968.49978.49978,0,0,1-.083-.29883.68458.68458,0,0,1,.10107-.40039.74111.74111,0,0,1,.25782-.22559,1.52434,1.52434,0,0,1,.33593-.12842,2.18879,2.18879,0,0,0,.33594-.11523.76313.76313,0,0,0,.25733-.1792.44686.44686,0,0,0,.10107-.313.68243.68243,0,0,0-.15137-.40039q-.15234-.20653-.33593-.44141a4.02449,4.02449,0,0,1-.33594-.50146,1.17043,1.17043,0,0,1-.15186-.58887,1.66949,1.66949,0,0,1,.16114-.73144,1.89243,1.89243,0,0,1,.43212-.584,2.069,2.069,0,0,1,.6211-.39111,1.92918,1.92918,0,0,1,.73633-.14258,1.50788,1.50788,0,0,1,.28955.02734.738.738,0,0,1,.25293.09668.54043.54043,0,0,1,.17968.18409A.55626.55626,0,0,1,55.32556,53.23334Z"/><path d="M34.85437,60.87592q0,.67162-.05078,1.33447-.05053.6621-.05078,1.334,0,.54273.03222,1.07617.03224.53394.03223,1.07666,0,.14723-.00928.3545a1.896,1.896,0,0,1-.05957.3999.84481.84481,0,0,1-.16552.33154.40246.40246,0,0,1-.32666.1377.576.576,0,0,1-.45557-.207.95615.95615,0,0,1-.22559-.46436,1.57232,1.57232,0,0,1-.50586.561,1.23293,1.23293,0,0,1-.71777.23.9978.9978,0,0,1-.71289-.28516,2.393,2.393,0,0,1-.49707-.68994,3.7508,3.7508,0,0,1-.29443-.84668,3.67349,3.67349,0,0,1-.0962-.76367c0-.15332.00879-.32813.02735-.52442a4.71318,4.71318,0,0,1,.09668-.59814,4.4625,4.4625,0,0,1,.1792-.59326,2.18145,2.18145,0,0,1,.28076-.52,1.35946,1.35946,0,0,1,.40478-.36768,1.04051,1.04051,0,0,1,.53858-.13818,1.165,1.165,0,0,1,.63476.19336,1.31929,1.31929,0,0,1,.46.47851l.08252-1.46289q.00952-.17505.02784-.40967a2.28321,2.28321,0,0,1,.07812-.44628.9141.9141,0,0,1,.18848-.35889.47652.47652,0,0,1,.37744-.147.60859.60859,0,0,1,.41406.1289.75528.75528,0,0,1,.21631.32666,1.587,1.587,0,0,1,.08252.42774Q34.85413,60.67377,34.85437,60.87592Zm-1.5,4.08544q0-.21166-.00928-.41406-.00879-.20214,0-.41406-.05493-.11938-.12842-.26221a1.42983,1.42983,0,0,0-.17968-.26709,1.074,1.074,0,0,0-.23438-.207.50255.50255,0,0,0-.27636-.08252.36042.36042,0,0,0-.26661.10108.60279.60279,0,0,0-.14746.24365,1.37239,1.37239,0,0,0-.05957.30859c-.00928.11035-.01367.20557-.01367.28516,0,.07324.00586.18262.01807.32666a3.08591,3.08591,0,0,0,.06933.437,1.46094,1.46094,0,0,0,.14258.38623.27713.27713,0,0,0,.248.16553.60847.60847,0,0,0,.23926-.05029,1.09063,1.09063,0,0,0,.22558-.12891,1.82847,1.82847,0,0,0,.20264-.17481q.09594-.09668.16992-.17968Z"/><path d="M39.31628,65.29242a1.09674,1.09674,0,0,1-.19775.61182,2.26812,2.26812,0,0,1-.49658.53369,2.75972,2.75972,0,0,1-.63965.377,1.63185,1.63185,0,0,1-.62549.14307,1.58041,1.58041,0,0,1-.86963-.24414,2.19431,2.19431,0,0,1-.63916-.6211,2.91523,2.91523,0,0,1-.39111-.83252,3.1533,3.1533,0,0,1-.1333-.88769,4.139,4.139,0,0,1,.12842-.98487,3.52955,3.52955,0,0,1,.39111-.96582,2.466,2.466,0,0,1,.6626-.73584,1.56163,1.56163,0,0,1,.95215-.29443,1.71242,1.71242,0,0,1,.59814.10547,1.48426,1.48426,0,0,1,.8374.75928,1.36242,1.36242,0,0,1,.12842.59814,1.82363,1.82363,0,0,1-.18359.80957,2.15622,2.15622,0,0,1-.4878.65332,2.50537,2.50537,0,0,1-.69921.4458,2.28466,2.28466,0,0,1-.80958.189.52113.52113,0,0,0,.21631.38623.74951.74951,0,0,0,.42774.11963.766.766,0,0,0,.35888-.0918,3.31308,3.31308,0,0,0,.34034-.207c.11035-.07666.21923-.146.32666-.207a.64936.64936,0,0,1,.32666-.09229.51226.51226,0,0,1,.33105.11963A.38418.38418,0,0,1,39.31628,65.29242ZM37.82605,63.038a.55364.55364,0,0,0-.06445-.248.21277.21277,0,0,0-.20264-.12891.54207.54207,0,0,0-.34033.106.88464.88464,0,0,0-.23.2666,1.48157,1.48157,0,0,0-.14258.34522,1.63817,1.63817,0,0,0-.05957.34033c.08545-.01856.18848-.043.3081-.07373a1.79932,1.79932,0,0,0,.34034-.124.9637.9637,0,0,0,.27588-.19775A.39835.39835,0,0,0,37.82605,63.038Z"/><path d="M46.392,62.09076a2.22661,2.22661,0,0,1-.29444,1.14062,3.17742,3.17742,0,0,1-.78222.89258q.14721.22047.30371.51514a5.5402,5.5402,0,0,1,.28076.62109,5.39658,5.39658,0,0,1,.20215.65332,2.59461,2.59461,0,0,1,.07812.60254.99871.99871,0,0,1-.14257.5293.51984.51984,0,0,1-.48291.23437.60264.60264,0,0,1-.49219-.27587,3.09261,3.09261,0,0,1-.36817-.65821q-.16113-.38159-.29443-.77734a5.1524,5.1524,0,0,0-.25293-.63477q-.16553.05493-.32227.124-.156.06957-.32177.13379-.00952.20214-.03223.55664a4.66208,4.66208,0,0,1-.10107.70361,2.00274,2.00274,0,0,1-.23487.60742.484.484,0,0,1-.43213.25733.53112.53112,0,0,1-.46923-.24805,1.63737,1.63737,0,0,1-.23487-.58887,3.99909,3.99909,0,0,1-.07812-.69482q-.00953-.35376-.00928-.55664,0-.43213.01856-.85108.0183-.41822.01855-.85107,0-.39551-.01416-.791-.01392-.3955-.01367-.80078v-.23437q0-.14283.01367-.29444.01392-.15161.03223-.29a.62694.62694,0,0,1,.06445-.2207.92347.92347,0,0,1,.41846-.36816,4.83811,4.83811,0,0,1,.71777-.30811,6.53683,6.53683,0,0,1,.76367-.21143,2.9886,2.9886,0,0,1,.55664-.07812,1.86631,1.86631,0,0,1,.82813.1748,1.71622,1.71622,0,0,1,.59814.47364,2.06331,2.06331,0,0,1,.35889.68994A2.80539,2.80539,0,0,1,46.392,62.09076Zm-1.70215.12842a.53326.53326,0,0,0-.11035-.36328.45968.45968,0,0,0-.35889-.124,1.144,1.144,0,0,0-.37256.06446,2.36544,2.36544,0,0,0-.34521.147q.03662.72729.02734,1.44433a2.929,2.929,0,0,0,.396-.16552,1.80068,1.80068,0,0,0,.37256-.248,1.36814,1.36814,0,0,0,.28076-.33154A.80952.80952,0,0,0,44.68982,62.21918Z"/><path d="M50.56873,65.29242a1.09675,1.09675,0,0,1-.19776.61182,2.26791,2.26791,0,0,1-.49658.53369,2.75972,2.75972,0,0,1-.63965.377,1.63185,1.63185,0,0,1-.62549.14307,1.58041,1.58041,0,0,1-.86963-.24414,2.19431,2.19431,0,0,1-.63916-.6211,2.91523,2.91523,0,0,1-.39111-.83252,3.1533,3.1533,0,0,1-.1333-.88769,4.139,4.139,0,0,1,.12842-.98487,3.53018,3.53018,0,0,1,.39111-.96582,2.46612,2.46612,0,0,1,.6626-.73584,1.56163,1.56163,0,0,1,.95215-.29443,1.71242,1.71242,0,0,1,.59814.10547,1.48426,1.48426,0,0,1,.8374.75928,1.36242,1.36242,0,0,1,.12842.59814,1.82363,1.82363,0,0,1-.18359.80957,2.15636,2.15636,0,0,1-.48779.65332,2.50557,2.50557,0,0,1-.69922.4458,2.2846,2.2846,0,0,1-.80957.189.52112.52112,0,0,0,.2163.38623.74953.74953,0,0,0,.42774.11963.76608.76608,0,0,0,.35889-.0918,3.313,3.313,0,0,0,.34033-.207c.11035-.07666.21924-.146.32666-.207a.64936.64936,0,0,1,.32666-.09229.51226.51226,0,0,1,.33105.11963A.38419.38419,0,0,1,50.56873,65.29242ZM49.07849,63.038a.55364.55364,0,0,0-.06445-.248.21277.21277,0,0,0-.20264-.12891.54209.54209,0,0,0-.34033.106.88464.88464,0,0,0-.23.2666,1.482,1.482,0,0,0-.14258.34522,1.63817,1.63817,0,0,0-.05957.34033c.08545-.01856.18848-.043.30811-.07373a1.79923,1.79923,0,0,0,.34033-.124.9637.9637,0,0,0,.27588-.19775A.39835.39835,0,0,0,49.07849,63.038Z"/><path d="M54.35046,63.39691a.54933.54933,0,0,1-.03662.19336.84415.84415,0,0,1-.25781.354.63427.63427,0,0,1-.41406.14307.48409.48409,0,0,1-.4878-.35889.28529.28529,0,0,1-.01806-.10595.91739.91739,0,0,0-.00928-.124v-.26709a.51819.51819,0,0,0-.06445-.20214.1696.1696,0,0,0-.15625-.07373.38815.38815,0,0,0-.29932.19775,2.0992,2.0992,0,0,0-.24805.46924,3.87617,3.87617,0,0,0-.17041.55664,2.19534,2.19534,0,0,0-.06445.46c0,.09228.00586.2041.01856.33594a1.963,1.963,0,0,0,.07324.38183,1.05833,1.05833,0,0,0,.15185.31739.29913.29913,0,0,0,.25342.1333.4834.4834,0,0,0,.28955-.09668,2.18845,2.18845,0,0,0,.26221-.2251q.11938-.1106.26221-.23a.49267.49267,0,0,1,.32666-.11963.44146.44146,0,0,1,.36328.16553.58567.58567,0,0,1,.13379.377,1.09747,1.09747,0,0,1-.166.58447,1.7695,1.7695,0,0,1-.41406.46924,2.05579,2.05579,0,0,1-.55176.313,1.64679,1.64679,0,0,1-.57959.11475,1.40224,1.40224,0,0,1-.8418-.24854,1.89585,1.89585,0,0,1-.55664-.62988,2.89794,2.89794,0,0,1-.30371-.833,4.26734,4.26734,0,0,1-.09228-.85547,4.4512,4.4512,0,0,1,.1289-1.0166,3.81513,3.81513,0,0,1,.39551-1.0166,2.52223,2.52223,0,0,1,.68555-.78223,1.62163,1.62163,0,0,1,.99853-.313,1.18805,1.18805,0,0,1,.6211.15674,1.3416,1.3416,0,0,1,.43213.40918,1.94729,1.94729,0,0,1,.25781.56592,2.2898,2.2898,0,0,1,.0874.61621v.09228A.48367.48367,0,0,1,54.35046,63.39691Z"/><path d="M56.19958,66.48871a.42425.42425,0,0,1-.05566.21582.50845.50845,0,0,1-.14258.16113.71934.71934,0,0,1-.19287.10108.65849.65849,0,0,1-.21631.03711,1.00417,1.00417,0,0,1-.29931-.05079,1.07966,1.07966,0,0,1-.294-.14257.92473.92473,0,0,1-.22558-.21631.45762.45762,0,0,1-.09229-.28028.4055.4055,0,0,1,.21191-.373.847.847,0,0,1,.43213-.124,1.01182,1.01182,0,0,1,.29.0459,1.10883,1.10883,0,0,1,.28516.1333.75276.75276,0,0,1,.21631.21192A.49416.49416,0,0,1,56.19958,66.48871Z"/></svg>