<svg id="svg-letters-of-rec" xmlns="http://www.w3.org/2000/svg" viewBox="0 0 86.95044 118.59949"><defs><style>#svg-letters-of-rec .cls-1{fill:#ffbd7d;}#svg-letters-of-rec .cls-2{fill:#8b551d;}#svg-letters-of-rec .cls-3{fill:#fff;}#svg-letters-of-rec .cls-4{font-size:9.42145px;fill:none;font-family:Chewy-Regular,Chewy;}</style></defs><path class="cls-1" d="M86.95044,59.29993l-.866-1.5-7.467-12.93335,7.467-12.93329.866-1.5-.866-1.5-7.50555-13-.866-1.5H61.0459L53.57886,1.5l-.866-1.5H34.23761l-.866,1.5-7.467,12.93329H9.23761l-.866,1.5-7.50555,13-.866,1.5.866,1.5,7.467,12.93329L.866,57.79993l-.866,1.5.866,1.5,7.467,12.93329L.866,86.6665,0,88.1665l.866,1.5,7.50555,13,.866,1.5H25.90472l7.46686,12.933.866,1.5H52.71283l.866-1.5,7.46686-12.933H77.71283l.866-1.5,7.50555-13,.866-1.5-.866-1.5-7.467-12.93328,7.467-12.93329Z"/><polygon class="cls-2" points="50.981 31.867 35.97 31.867 28.464 44.867 35.97 57.867 50.981 57.867 58.486 44.867 50.981 31.867"/><polygon class="cls-2" points="75.981 46.3 60.97 46.3 53.464 59.3 60.97 72.3 75.981 72.3 83.486 59.3 75.981 46.3"/><polygon class="cls-2" points="25.981 46.3 10.97 46.3 3.464 59.3 10.97 72.3 25.981 72.3 33.486 59.3 25.981 46.3"/><polygon class="cls-2" points="25.981 17.433 10.97 17.433 3.464 30.433 10.97 43.433 25.981 43.433 33.486 30.433 25.981 17.433"/><polygon class="cls-2" points="75.981 17.433 60.97 17.433 53.464 30.433 60.97 43.433 75.981 43.433 83.486 30.433 75.981 17.433"/><polygon class="cls-2" points="50.981 3 35.97 3 28.464 16 35.97 29 50.981 29 58.486 16 50.981 3"/><polygon class="cls-2" points="50.981 60.733 35.97 60.733 28.464 73.733 35.97 86.733 50.981 86.733 58.486 73.733 50.981 60.733"/><polygon class="cls-2" points="75.981 75.167 60.97 75.167 53.464 88.167 60.97 101.167 75.981 101.167 83.486 88.167 75.981 75.167"/><polygon class="cls-2" points="25.981 75.167 10.97 75.167 3.464 88.167 10.97 101.167 25.981 101.167 33.486 88.167 25.981 75.167"/><polygon class="cls-2" points="50.981 89.6 35.97 89.6 28.464 102.6 35.97 115.6 50.981 115.6 58.486 102.6 50.981 89.6"/><circle class="cls-3" cx="43.47522" cy="59.29993" r="19"/><text class="cls-4" transform="translate(0.87366 8.2428)">Cartas<tspan x="-0.87402" y="8.63623">de Rec.</tspan></text><text class="cls-4" transform="translate(-0.00037 8.2428)">Letters<tspan x="1.27881" y="8.63623">of Rec.</tspan></text><path d="M34.45862,56.97382a.62644.62644,0,0,1-.18848.43212,1.95146,1.95146,0,0,1-.48779.36817,4.05124,4.05124,0,0,1-.667.29q-.36768.12378-.72657.21142-.35887.08716-.67627.1333a3.69116,3.69116,0,0,1-.50146.0459,2.32066,2.32066,0,0,1-.37256-.03222.64862.64862,0,0,1-.32666-.14258.477.477,0,0,1-.12891-.248c-.03662-.1289-.07226-.28223-.106-.46045q-.05053-.26659-.0874-.5747-.03663-.30835-.05958-.60254-.02343-.29443-.0371-.543c-.00879-.16553-.01368-.29444-.01368-.38672,0-.15283.00489-.33887.01368-.55664q.01391-.32594.0415-.69922c.01855-.248.043-.50147.07373-.75879q.04614-.38672.106-.73145a4.73731,4.73731,0,0,1,.147-.62109,1.82765,1.82765,0,0,1,.18848-.43262.52268.52268,0,0,1,.44189-.248.4345.4345,0,0,1,.313.124.899.899,0,0,1,.20654.32178,2.189,2.189,0,0,1,.11963.44189q.04175.2439.06006.48291c.01221.15967.01855.30664.01855.4419V53.551q0,.71778-.03222,1.42139-.033.70386-.03223,1.42188v.35839q.41382-.12816.90137-.24365a4.05008,4.05008,0,0,1,.9292-.11474,2.8145,2.8145,0,0,1,.31787.01806.909.909,0,0,1,.28515.07813.51391.51391,0,0,1,.20215.1748A.5411.5411,0,0,1,34.45862,56.97382Z"/><path d="M38.54358,56.60565a1.09682,1.09682,0,0,1-.19775.61182,2.268,2.268,0,0,1-.49659.53369,2.759,2.759,0,0,1-.63965.377,1.6318,1.6318,0,0,1-.62548.14307,1.58028,1.58028,0,0,1-.86963-.24414,2.19406,2.19406,0,0,1-.63916-.6211,2.91493,2.91493,0,0,1-.39112-.83251,3.15373,3.15373,0,0,1-.1333-.8877,4.13885,4.13885,0,0,1,.12842-.98486,3.53005,3.53005,0,0,1,.39111-.96582,2.466,2.466,0,0,1,.6626-.73584,1.56159,1.56159,0,0,1,.95215-.29444,1.71244,1.71244,0,0,1,.59815.10547,1.48426,1.48426,0,0,1,.8374.75928,1.36242,1.36242,0,0,1,.12842.59814,1.82364,1.82364,0,0,1-.1836.80957,2.15619,2.15619,0,0,1-.48779.65332,2.50557,2.50557,0,0,1-.69922.4458,2.28455,2.28455,0,0,1-.80957.189.5211.5211,0,0,0,.21631.38623.7495.7495,0,0,0,.42773.11963.76608.76608,0,0,0,.35889-.0918,3.313,3.313,0,0,0,.34033-.207c.11035-.07666.21924-.146.32666-.207a.64948.64948,0,0,1,.32666-.09229.5123.5123,0,0,1,.33106.11963A.38422.38422,0,0,1,38.54358,56.60565Zm-1.49024-2.25439a.55365.55365,0,0,0-.06445-.24805.21277.21277,0,0,0-.20264-.12891.5421.5421,0,0,0-.34033.106.88492.88492,0,0,0-.23.2666,1.48243,1.48243,0,0,0-.14258.34522,1.63828,1.63828,0,0,0-.05957.34033c.08545-.01856.18848-.043.30811-.07373a1.79964,1.79964,0,0,0,.34033-.124.96392.96392,0,0,0,.27588-.19776A.39833.39833,0,0,0,37.05334,54.35126Z"/><path d="M41.05579,58.5744a2.45505,2.45505,0,0,1-1.01661-.16992,1.17954,1.17954,0,0,1-.543-.4834,1.79627,1.79627,0,0,1-.21631-.75439q-.03663-.44166-.03662-.98438,0-.43212.02734-.86914.02783-.43725.083-.93408c-.08594,0-.15332.00146-.20264.00439-.04883.00342-.08887.00489-.11963.00489a.97868.97868,0,0,1-.51074-.12891.42891.42891,0,0,1-.21582-.39551.4117.4117,0,0,1,.124-.29443,1.07428,1.07428,0,0,1,.31739-.2207,2.15876,2.15876,0,0,1,.41845-.14747,2.997,2.997,0,0,1,.42823-.07373,4.94181,4.94181,0,0,1,.03662-.57031,2.65087,2.65087,0,0,1,.1333-.584,1.34546,1.34546,0,0,1,.2622-.45557.54439.54439,0,0,1,.42334-.18408.42288.42288,0,0,1,.26221.0874.69548.69548,0,0,1,.18848.2207,1.10662,1.10662,0,0,1,.11035.29932,1.46048,1.46048,0,0,1,.03711.32178,2.64525,2.64525,0,0,1-.02783.37744,4.56872,4.56872,0,0,1-.10108.47852c.104-.0127.17481-.02.21143-.02344.03711-.00293.0708-.0044.10156-.0044a2.0303,2.0303,0,0,1,.32666.02784,1.22438,1.22438,0,0,1,.3125.09179.67066.67066,0,0,1,.23486.17041.37335.37335,0,0,1,.0918.25293.39921.39921,0,0,1-.1333.29444,1.187,1.187,0,0,1-.33594.2207,2.15624,2.15624,0,0,1-.43213.14258,3.5069,3.5069,0,0,1-.43261.06884q-.05493.37794-.07813.69483-.02343.31713-.05078.63965-.01831.156-.03223.31738c-.00927.10742-.01367.21582-.01367.32666,0,.07959.00293.17334.00928.28027a1.01956,1.01956,0,0,0,.06445.30811.62221.62221,0,0,0,.17481.25342.48294.48294,0,0,0,.331.10547,1.597,1.597,0,0,0,.26709-.023,1.69149,1.69149,0,0,1,.27588-.023.378.378,0,0,1,.34473.16552.77214.77214,0,0,1,.106.42334.52171.52171,0,0,1-.11474.33594.87813.87813,0,0,1-.29.23,1.6447,1.6447,0,0,1-.39111.1333A1.96293,1.96293,0,0,1,41.05579,58.5744Z"/><path d="M44.589,58.5744a2.455,2.455,0,0,1-1.0166-.16992,1.17957,1.17957,0,0,1-.543-.4834,1.79627,1.79627,0,0,1-.21631-.75439q-.03662-.44166-.03662-.98438,0-.43212.02734-.86914.02784-.43725.083-.93408c-.08594,0-.15332.00146-.20264.00439-.04882.00342-.08886.00489-.11962.00489a.97874.97874,0,0,1-.51075-.12891A.42891.42891,0,0,1,41.838,53.864a.41167.41167,0,0,1,.124-.29443,1.0741,1.0741,0,0,1,.31738-.2207,2.15886,2.15886,0,0,1,.41846-.14747,2.99686,2.99686,0,0,1,.42822-.07373,4.94406,4.94406,0,0,1,.03662-.57031,2.65143,2.65143,0,0,1,.1333-.584,1.34548,1.34548,0,0,1,.26221-.45557.54437.54437,0,0,1,.42334-.18408.42287.42287,0,0,1,.2622.0874.69548.69548,0,0,1,.18848.2207,1.10629,1.10629,0,0,1,.11035.29932,1.46048,1.46048,0,0,1,.03711.32178,2.64525,2.64525,0,0,1-.02783.37744,4.57092,4.57092,0,0,1-.10107.47852c.104-.0127.1748-.02.21142-.02344.03711-.00293.0708-.0044.10156-.0044a2.03021,2.03021,0,0,1,.32666.02784,1.22427,1.22427,0,0,1,.3125.09179.6708.6708,0,0,1,.23487.17041.37339.37339,0,0,1,.09179.25293.39921.39921,0,0,1-.1333.29444,1.1869,1.1869,0,0,1-.33593.2207,2.15666,2.15666,0,0,1-.43213.14258,3.507,3.507,0,0,1-.43262.06884q-.05493.37794-.07813.69483-.02343.31713-.05078.63965-.0183.156-.03222.31738c-.00928.10742-.01367.21582-.01367.32666,0,.07959.00292.17334.00927.28027a1.01957,1.01957,0,0,0,.06446.30811.62219.62219,0,0,0,.1748.25342.483.483,0,0,0,.33106.10547,1.59692,1.59692,0,0,0,.26708-.023,1.69149,1.69149,0,0,1,.27588-.023.378.378,0,0,1,.34473.16552.77214.77214,0,0,1,.106.42334.52172.52172,0,0,1-.11475.33594.87813.87813,0,0,1-.29.23,1.6447,1.6447,0,0,1-.39111.1333A1.96278,1.96278,0,0,1,44.589,58.5744Z"/><path d="M49.83264,56.60565a1.09682,1.09682,0,0,1-.19775.61182,2.26813,2.26813,0,0,1-.49658.53369,2.75937,2.75937,0,0,1-.63965.377,1.63185,1.63185,0,0,1-.62549.14307,1.58028,1.58028,0,0,1-.86963-.24414,2.19431,2.19431,0,0,1-.63916-.6211,2.91464,2.91464,0,0,1-.39111-.83251,3.15337,3.15337,0,0,1-.1333-.8877,4.13933,4.13933,0,0,1,.12841-.98486,3.52976,3.52976,0,0,1,.39112-.96582,2.46583,2.46583,0,0,1,.66259-.73584,1.56161,1.56161,0,0,1,.95215-.29444,1.71244,1.71244,0,0,1,.59815.10547,1.48426,1.48426,0,0,1,.8374.75928,1.36242,1.36242,0,0,1,.12842.59814,1.82364,1.82364,0,0,1-.1836.80957,2.156,2.156,0,0,1-.48779.65332,2.50557,2.50557,0,0,1-.69922.4458,2.28455,2.28455,0,0,1-.80957.189.52113.52113,0,0,0,.21631.38623.74951.74951,0,0,0,.42774.11963.76607.76607,0,0,0,.35888-.0918,3.313,3.313,0,0,0,.34033-.207c.11036-.07666.21924-.146.32666-.207a.64948.64948,0,0,1,.32666-.09229.5123.5123,0,0,1,.33106.11963A.38422.38422,0,0,1,49.83264,56.60565Zm-1.49023-2.25439a.55367.55367,0,0,0-.06446-.24805.21276.21276,0,0,0-.20263-.12891.54207.54207,0,0,0-.34033.106.88481.88481,0,0,0-.23.2666,1.482,1.482,0,0,0-.14257.34522,1.63828,1.63828,0,0,0-.05957.34033c.08545-.01856.18847-.043.3081-.07373a1.79964,1.79964,0,0,0,.34033-.124.96378.96378,0,0,0,.27588-.19776A.39833.39833,0,0,0,48.34241,54.35126Z"/><path d="M53.39368,54.80243a.554.554,0,0,1-.22071-.023c-.06152-.02148-.123-.04443-.18408-.06934q-.08275-.03662-.16553-.06884a.40612.40612,0,0,0-.18408-.023.654.654,0,0,0-.32666.10107,1.14488,1.14488,0,0,0-.25781.23,1.52379,1.52379,0,0,0-.19775.30811,2.00319,2.00319,0,0,0-.12891.33593,2.05191,2.05191,0,0,0-.0415.33594c-.00879.15039-.01368.31153-.01368.48291-.00634.17823-.00927.34668-.00927.50635a4.23642,4.23642,0,0,1-.06446.72217,1.66185,1.66185,0,0,1-.11474.37256.89188.89188,0,0,1-.207.29443.46814.46814,0,0,1-.33106.11963.42024.42024,0,0,1-.27148-.09229.73352.73352,0,0,1-.19336-.24365,1.63457,1.63457,0,0,1-.12891-.354,3.7106,3.7106,0,0,1-.07812-.41406c-.01856-.14747-.03223-.29444-.04151-.4419q-.01392-.22045-.01806-.41846-.00513-.19774,0-.36328c.00293-.11084.00439-.19922.00439-.26709q-.00953-.32153-.03223-.64843-.0227-.32667-.023-.64893c0-.13477.00586-.28516.01856-.45068a1.63248,1.63248,0,0,1,.10107-.46485.93767.93767,0,0,1,.24366-.36328.63724.63724,0,0,1,.44628-.147.38161.38161,0,0,1,.26709.10107.786.786,0,0,1,.1792.24854,1.52871,1.52871,0,0,1,.106.3125,2.08073,2.08073,0,0,1,.0459.30371,2.3037,2.3037,0,0,1,.49658-.584,1.18221,1.18221,0,0,1,.71777-.24414,1.62565,1.62565,0,0,1,.437.04151,1.25783,1.25783,0,0,1,.3955.16552.94715.94715,0,0,1,.29444.29932.86222.86222,0,0,1,.12451.43213.50338.50338,0,0,1-.1748.45117A.76729.76729,0,0,1,53.39368,54.80243Z"/><path d="M56.87122,53.1828a.45452.45452,0,0,1-.1792.396,3.27221,3.27221,0,0,1-.40039.24365,2.03892,2.03892,0,0,0-.40039.27148.59108.59108,0,0,0-.1792.46924.50822.50822,0,0,0,.07812.28516.99726.99726,0,0,0,.19336.21631q.115.09668.25293.19775a1.61112,1.61112,0,0,1,.25293.23,1.12627,1.12627,0,0,1,.19336.313,1.15023,1.15023,0,0,1,.07812.45068,1.59969,1.59969,0,0,1-.19775.75879,2.54792,2.54792,0,0,1-1.20068,1.12744,1.8482,1.8482,0,0,1-.76368.17481,2.17692,2.17692,0,0,1-.313-.02295.90213.90213,0,0,1-.28028-.0874.58169.58169,0,0,1-.207-.17969.49985.49985,0,0,1-.083-.29883.6846.6846,0,0,1,.10108-.40039.74108.74108,0,0,1,.25781-.22559,1.52421,1.52421,0,0,1,.33594-.12841,2.19025,2.19025,0,0,0,.33594-.11524.76308.76308,0,0,0,.25732-.1792.44686.44686,0,0,0,.10107-.313.68252.68252,0,0,0-.15136-.40039q-.15235-.20653-.33594-.4414a4.025,4.025,0,0,1-.33594-.50147,1.17051,1.17051,0,0,1-.15185-.58886,1.66963,1.66963,0,0,1,.16113-.73145,1.89226,1.89226,0,0,1,.43213-.584,2.06881,2.06881,0,0,1,.62109-.39112,1.92941,1.92941,0,0,1,.73633-.14258,1.507,1.507,0,0,1,.28955.02735.73747.73747,0,0,1,.25293.09668.54052.54052,0,0,1,.17969.18408A.55626.55626,0,0,1,56.87122,53.1828Z"/><path d="M33.0968,67.14618a1.37877,1.37877,0,0,1-.81885-.24805,2.17317,2.17317,0,0,1-.58886-.63476,3.03913,3.03913,0,0,1-.3584-.86035,3.79145,3.79145,0,0,1-.11963-.93409,4.46747,4.46747,0,0,1,.11963-1.00732,3.38319,3.38319,0,0,1,.36767-.94776,2.1818,2.1818,0,0,1,.63477-.69921,1.56276,1.56276,0,0,1,.92041-.27149,1.39486,1.39486,0,0,1,.87842.28076,2.12409,2.12409,0,0,1,.58447.69922,3.194,3.194,0,0,1,.3125.91553,3.822,3.822,0,0,1,.06445.93848,5.23539,5.23539,0,0,1-.15185.98437,3.21188,3.21188,0,0,1-.36328.89258,2.04,2.04,0,0,1-.60694.644A1.52724,1.52724,0,0,1,33.0968,67.14618Zm.09229-4.15869a.29968.29968,0,0,0-.24366.14746,1.29338,1.29338,0,0,0-.1748.35889,2.811,2.811,0,0,0-.106.44628,2.64478,2.64478,0,0,0-.03711.40918,3.05858,3.05858,0,0,0,.04151.47852,2.88714,2.88714,0,0,0,.11523.47363,1.29591,1.29591,0,0,0,.1792.35889.30159.30159,0,0,0,.24414.14258.31256.31256,0,0,0,.25293-.1377,1.10089,1.10089,0,0,0,.16992-.34961,2.552,2.552,0,0,0,.09229-.46484,4.46548,4.46548,0,0,0,.02734-.47363,3.02608,3.02608,0,0,0-.03662-.44629,2.82951,2.82951,0,0,0-.106-.45557,1.16972,1.16972,0,0,0-.1748-.34961A.3048.3048,0,0,0,33.18909,62.98749Z"/><path d="M39.4176,61.37762a1.74627,1.74627,0,0,1-.03174.33594.74822.74822,0,0,1-.11523.28028.5788.5788,0,0,1-.2207.189.75886.75886,0,0,1-.34034.06885.52723.52723,0,0,1-.34082-.0918.47551.47551,0,0,1-.15185-.22558.98221.98221,0,0,1-.041-.29,2.79667,2.79667,0,0,0-.01416-.28955.54069.54069,0,0,0-.06884-.22559.21665.21665,0,0,0-.20215-.0918q-.13844,0-.22559.21143a2.59678,2.59678,0,0,0-.14258.48779,4.20309,4.20309,0,0,0-.07373.53809q-.0183.2622-.01855.35449c.08008-.01221.15674-.02344.23-.03223a1.919,1.919,0,0,1,.23926-.01416,1.35371,1.35371,0,0,1,.26709.02783,1.019,1.019,0,0,1,.25732.08741.51023.51023,0,0,1,.19336.16552.44748.44748,0,0,1,.07373.26221.38929.38929,0,0,1-.14258.29443,1.26335,1.26335,0,0,1-.34033.21631,2.86245,2.86245,0,0,1-.40039.14258,3.11275,3.11275,0,0,1-.32227.07373q.02784.63428.02784,1.27881,0,.60719-.02784,1.1958a.71238.71238,0,0,1-.19775.46924.61861.61861,0,0,1-.46436.18408.52422.52422,0,0,1-.45117-.2207.80506.80506,0,0,1-.11474-.23,1.10932,1.10932,0,0,1-.05078-.2666q-.04616-.55225-.07325-1.10889-.02782-.55664-.01855-1.11768a.92164.92164,0,0,1-.12451.00879h-.124a1.54865,1.54865,0,0,1-.2666-.02734,1.14774,1.14774,0,0,1-.29931-.09668.881.881,0,0,1-.24366-.17041.34805.34805,0,0,1-.10107-.25732.47083.47083,0,0,1,.1333-.34034,1.0677,1.0677,0,0,1,.32178-.22558,1.61,1.61,0,0,1,.396-.124q.20655-.03662.36328-.05517v-.14746a6.05122,6.05122,0,0,1,.083-.96582,3.47465,3.47465,0,0,1,.29395-.957,2.0347,2.0347,0,0,1,.58008-.73145,1.46949,1.46949,0,0,1,.93847-.29,1.19491,1.19491,0,0,1,.61621.15186,1.3134,1.3134,0,0,1,.42334.3955,1.66525,1.66525,0,0,1,.23926.55225A2.67872,2.67872,0,0,1,39.4176,61.37762Z"/><path d="M45.78479,62.04022a2.22667,2.22667,0,0,1-.29443,1.14063,3.17773,3.17773,0,0,1-.78223.89258q.14721.22045.30371.51513a5.53954,5.53954,0,0,1,.28076.6211,5.39548,5.39548,0,0,1,.20215.65332,2.594,2.594,0,0,1,.07813.60254.99871.99871,0,0,1-.14258.52929.51985.51985,0,0,1-.48291.23438.60266.60266,0,0,1-.49219-.27588,3.0921,3.0921,0,0,1-.36816-.65821q-.16115-.38159-.29444-.77734a5.14992,5.14992,0,0,0-.25293-.63476q-.16553.05493-.32226.124-.156.06959-.32178.13379-.00952.20214-.03223.55664a4.66081,4.66081,0,0,1-.10107.70361,2.003,2.003,0,0,1-.23486.60742.484.484,0,0,1-.43213.25733.53112.53112,0,0,1-.46924-.24805,1.63728,1.63728,0,0,1-.23486-.58887,3.9991,3.9991,0,0,1-.07813-.69482q-.00953-.35376-.00928-.55664,0-.43214.01856-.85108.0183-.4182.01855-.85107,0-.3955-.01416-.791-.01392-.39552-.01367-.80079v-.23437q0-.14283.01367-.29443.01392-.15162.03223-.29a.62714.62714,0,0,1,.06445-.22071.92363.92363,0,0,1,.41846-.36816,4.83811,4.83811,0,0,1,.71777-.30811,6.53673,6.53673,0,0,1,.76367-.21142,2.98806,2.98806,0,0,1,.55664-.07813,1.86617,1.86617,0,0,1,.82813.17481,1.716,1.716,0,0,1,.59814.47363,2.06331,2.06331,0,0,1,.35889.68994A2.80539,2.80539,0,0,1,45.78479,62.04022Zm-1.70215.12842a.53328.53328,0,0,0-.11035-.36328.45968.45968,0,0,0-.35889-.124,1.14407,1.14407,0,0,0-.37256.06445,2.36763,2.36763,0,0,0-.34521.147q.03662.72729.02734,1.44434a2.92852,2.92852,0,0,0,.396-.16553,1.79961,1.79961,0,0,0,.37256-.248,1.368,1.368,0,0,0,.28076-.33154A.80952.80952,0,0,0,44.08264,62.16864Z"/><path d="M49.96155,65.24188a1.09675,1.09675,0,0,1-.19776.61182,2.26771,2.26771,0,0,1-.49658.53369,2.75937,2.75937,0,0,1-.63965.377,1.6318,1.6318,0,0,1-.62548.14307,1.58028,1.58028,0,0,1-.86963-.24414,2.19416,2.19416,0,0,1-.63916-.62109,2.91511,2.91511,0,0,1-.39112-.83252,3.15373,3.15373,0,0,1-.1333-.8877,4.13885,4.13885,0,0,1,.12842-.98486,3.53005,3.53005,0,0,1,.39111-.96582,2.466,2.466,0,0,1,.6626-.73584,1.56159,1.56159,0,0,1,.95215-.29444,1.71238,1.71238,0,0,1,.59814.10547,1.48424,1.48424,0,0,1,.83741.75928,1.36242,1.36242,0,0,1,.12841.59814,1.82363,1.82363,0,0,1-.18359.80957,2.15619,2.15619,0,0,1-.48779.65332,2.50582,2.50582,0,0,1-.69922.44581,2.28475,2.28475,0,0,1-.80957.189.5211.5211,0,0,0,.21631.38623.74948.74948,0,0,0,.42773.11963.76608.76608,0,0,0,.35889-.0918,3.313,3.313,0,0,0,.34033-.207c.11035-.07666.21924-.146.32666-.207a.64944.64944,0,0,1,.32666-.09228.51229.51229,0,0,1,.33106.11962A.38422.38422,0,0,1,49.96155,65.24188Zm-1.49024-2.25439a.55365.55365,0,0,0-.06445-.248.21277.21277,0,0,0-.20264-.12891.5421.5421,0,0,0-.34033.106.88464.88464,0,0,0-.23.2666,1.48218,1.48218,0,0,0-.14258.34522,1.63828,1.63828,0,0,0-.05957.34033c.08545-.01855.18848-.043.30811-.07373a1.79964,1.79964,0,0,0,.34033-.124.96392.96392,0,0,0,.27588-.19776A.39833.39833,0,0,0,48.47131,62.98749Z"/><path d="M53.74329,63.34637a.54993.54993,0,0,1-.03662.19336.84429.84429,0,0,1-.25782.354.63432.63432,0,0,1-.41406.14306.48407.48407,0,0,1-.48779-.35888.28513.28513,0,0,1-.01807-.106.91724.91724,0,0,0-.00928-.124v-.26709a.51808.51808,0,0,0-.06445-.20215A.1696.1696,0,0,0,52.299,62.905a.38818.38818,0,0,0-.29932.19775,2.099,2.099,0,0,0-.248.46924,3.87617,3.87617,0,0,0-.17041.55664,2.19479,2.19479,0,0,0-.06446.46c0,.09229.00586.2041.01856.33594a1.96371,1.96371,0,0,0,.07324.38184,1.05816,1.05816,0,0,0,.15186.31738.29907.29907,0,0,0,.25341.1333.4834.4834,0,0,0,.28955-.09668,2.18754,2.18754,0,0,0,.26221-.2251q.11938-.11059.26221-.23a.49267.49267,0,0,1,.32666-.11963.44146.44146,0,0,1,.36328.16553.58569.58569,0,0,1,.13379.377,1.0975,1.0975,0,0,1-.166.58448,1.76912,1.76912,0,0,1-.41406.46923,2.05579,2.05579,0,0,1-.55176.313,1.6467,1.6467,0,0,1-.57959.11475,1.4022,1.4022,0,0,1-.84179-.24854,1.89564,1.89564,0,0,1-.55664-.62988,2.89724,2.89724,0,0,1-.30371-.833,4.26666,4.26666,0,0,1-.09229-.85547,4.45076,4.45076,0,0,1,.12891-1.0166,3.8149,3.8149,0,0,1,.3955-1.0166,2.52236,2.52236,0,0,1,.68555-.78223,1.62172,1.62172,0,0,1,.99854-.313,1.188,1.188,0,0,1,.62109.15673,1.34182,1.34182,0,0,1,.43213.40918,1.94741,1.94741,0,0,1,.25781.56592,2.28946,2.28946,0,0,1,.0874.61621v.09229A.48364.48364,0,0,1,53.74329,63.34637Z"/><path d="M55.5929,66.43817a.42426.42426,0,0,1-.05567.21582.50834.50834,0,0,1-.14258.16113.71934.71934,0,0,1-.19287.10108.65849.65849,0,0,1-.21631.03711,1.00446,1.00446,0,0,1-.29931-.05078,1.07969,1.07969,0,0,1-.294-.14258.92473.92473,0,0,1-.22558-.21631.45762.45762,0,0,1-.09229-.28027.40551.40551,0,0,1,.21191-.373.847.847,0,0,1,.43213-.124,1.01179,1.01179,0,0,1,.29.04589,1.10886,1.10886,0,0,1,.28516.13331.7526.7526,0,0,1,.21631.21191A.49417.49417,0,0,1,55.5929,66.43817Z"/></svg>