<svg id="svg-personal-statement" xmlns="http://www.w3.org/2000/svg" viewBox="0 0 86.95044 118.59949"><defs><style>#svg-personal-statement .cls-1{fill:#abddd8;}#svg-personal-statement .cls-2{fill:#83b3af;}#svg-personal-statement .cls-3{fill:#fff;}#svg-personal-statement .cls-4{font-size:7.20171px;fill:none;font-family:Chewy-Regular,Chewy;}</style></defs><path class="cls-1" d="M86.95044,59.29993l-.866-1.5-7.467-12.93335,7.467-12.93329.866-1.5-.866-1.5-7.50555-13-.866-1.5H61.0459L53.57886,1.5l-.866-1.5H34.23761l-.866,1.5-7.467,12.93329H9.23761l-.866,1.5-7.50555,13-.866,1.5.866,1.5,7.467,12.93329L.866,57.79993l-.866,1.5.866,1.5,7.467,12.93329L.866,86.6665,0,88.1665l.866,1.5,7.50555,13,.866,1.5H25.90472l7.46686,12.933.866,1.5H52.71283l.866-1.5,7.46686-12.933H77.71283l.866-1.5,7.50555-13,.866-1.5-.866-1.5-7.467-12.93328,7.467-12.93329Z"/><polygon class="cls-2" points="50.981 31.867 35.97 31.867 28.464 44.867 35.97 57.867 50.981 57.867 58.486 44.867 50.981 31.867"/><polygon class="cls-2" points="75.981 46.3 60.97 46.3 53.464 59.3 60.97 72.3 75.981 72.3 83.486 59.3 75.981 46.3"/><polygon class="cls-2" points="25.981 46.3 10.97 46.3 3.464 59.3 10.97 72.3 25.981 72.3 33.486 59.3 25.981 46.3"/><polygon class="cls-2" points="25.981 17.433 10.97 17.433 3.464 30.433 10.97 43.433 25.981 43.433 33.486 30.433 25.981 17.433"/><polygon class="cls-2" points="75.981 17.433 60.97 17.433 53.464 30.433 60.97 43.433 75.981 43.433 83.486 30.433 75.981 17.433"/><polygon class="cls-2" points="50.981 3 35.97 3 28.464 16 35.97 29 50.981 29 58.486 16 50.981 3"/><polygon class="cls-2" points="50.981 60.733 35.97 60.733 28.464 73.733 35.97 86.733 50.981 86.733 58.486 73.733 50.981 60.733"/><polygon class="cls-2" points="75.981 75.167 60.97 75.167 53.464 88.167 60.97 101.167 75.981 101.167 83.486 88.167 75.981 75.167"/><polygon class="cls-2" points="25.981 75.167 10.97 75.167 3.464 88.167 10.97 101.167 25.981 101.167 33.486 88.167 25.981 75.167"/><polygon class="cls-2" points="50.981 89.6 35.97 89.6 28.464 102.6 35.97 115.6 50.981 115.6 58.486 102.6 50.981 89.6"/><circle class="cls-3" cx="43.47522" cy="59.29993" r="19"/><text class="cls-4" transform="translate(-0.00023 6.30137)">Declaración<tspan x="4.64893" y="6.60205">Personal</tspan></text><text class="cls-4" transform="translate(2.36301 6.30104)">Personal<tspan x="-2.36279" y="6.60205">Statement</tspan></text><path d="M34.955,54.75751a1.80077,1.80077,0,0,1-.165.7456,2.41168,2.41168,0,0,1-1.06543,1.13574,1.75129,1.75129,0,0,1-.72461.20752c-.00488.084-.0083.19092-.01026.31983q-.00366.19335-.0249.4043t-.05957.42187a1.718,1.718,0,0,1-.11279.37988.78992.78992,0,0,1-.18994.27442.40762.40762,0,0,1-.28467.10547.39763.39763,0,0,1-.313-.13037.86388.86388,0,0,1-.17578-.313,1.84449,1.84449,0,0,1-.08106-.38282c-.01367-.13378-.02343-.24755-.02783-.3413q-.01464-.20363-.01758-.40088c-.00244-.13135-.00341-.26465-.00341-.40088v-.34131q0-.249.00341-.56934c.002-.21338.00586-.436.01026-.66845q.00732-.34791.02148-.647.01392-.29883.03125-.50976a.65037.65037,0,0,1,.0459-.2461.3918.3918,0,0,1,.042-.03173c.02344-.01612.04932-.03272.07764-.04932.02783-.01611.05371-.03174.07715-.04541.02344-.01416.04-.02344.04932-.02832a4.25887,4.25887,0,0,1,.71044-.31641,2.34159,2.34159,0,0,1,.76661-.13379,1.30651,1.30651,0,0,1,.58691.13037,1.41681,1.41681,0,0,1,.4502.34424,1.50134,1.50134,0,0,1,.28515.49951A1.79126,1.79126,0,0,1,34.955,54.75751Zm-1.2168.16162a.45067.45067,0,0,0-.06641-.2461.24278.24278,0,0,0-.22168-.10546.72058.72058,0,0,0-.26709.05273q-.134.05274-.24609.10889c.01367.16406.02686.32373.03857.47851a3.61857,3.61857,0,0,1,.00342.478c.07471-.0376.15723-.081.2461-.12988a1.69386,1.69386,0,0,0,.24609-.16553.93118.93118,0,0,0,.18994-.20752A.46192.46192,0,0,0,33.73816,54.91913Z"/><path d="M38.07068,57.27509a.836.836,0,0,1-.15137.46777,1.71962,1.71962,0,0,1-.37939.40771,2.11385,2.11385,0,0,1-.48877.28858,1.24835,1.24835,0,0,1-.47852.10888,1.209,1.209,0,0,1-.66455-.186,1.69047,1.69047,0,0,1-.48877-.4751,2.225,2.225,0,0,1-.29883-.63623,2.41539,2.41539,0,0,1-.102-.67871,3.14776,3.14776,0,0,1,.09864-.75244,2.6839,2.6839,0,0,1,.29882-.73877,1.88061,1.88061,0,0,1,.50635-.5625,1.19625,1.19625,0,0,1,.728-.2251,1.30962,1.30962,0,0,1,.457.08106,1.14745,1.14745,0,0,1,.37988.22851,1.16078,1.16078,0,0,1,.26026.35156,1.04218,1.04218,0,0,1,.09814.457,1.39367,1.39367,0,0,1-.14062.61914,1.63361,1.63361,0,0,1-.37256.499,1.91581,1.91581,0,0,1-.53467.34131,1.74509,1.74509,0,0,1-.61865.144.3973.3973,0,0,0,.165.29541.60254.60254,0,0,0,.60156.021,2.35589,2.35589,0,0,0,.26025-.15821c.084-.05859.16748-.11132.24951-.1582a.49754.49754,0,0,1,.24952-.07031.39416.39416,0,0,1,.25341.09131A.29483.29483,0,0,1,38.07068,57.27509Zm-1.13916-1.72315a.428.428,0,0,0-.04932-.18994.16263.16263,0,0,0-.15478-.09815.41649.41649,0,0,0-.26026.08057.68.68,0,0,0-.17578.2041,1.11954,1.11954,0,0,0-.10888.26367,1.2779,1.2779,0,0,0-.0459.26026c.06591-.01416.144-.03272.23584-.05615a1.39953,1.39953,0,0,0,.26025-.09473.73687.73687,0,0,0,.21094-.15137A.30427.30427,0,0,0,36.93152,55.55194Z"/><path d="M40.79236,55.89667a.41534.41534,0,0,1-.169-.01758q-.0703-.02416-.14062-.05274c-.042-.01855-.08447-.03613-.12647-.05273a.3142.3142,0,0,0-.14062-.01758.50265.50265,0,0,0-.24951.07715.88334.88334,0,0,0-.19727.17627,1.15327,1.15327,0,0,0-.15088.23535,1.49558,1.49558,0,0,0-.09863.25684,1.54982,1.54982,0,0,0-.03174.25683q-.01026.17213-.01025.36914-.00734.20363-.00733.38672a2.21718,2.21718,0,0,1-.01416.28809,2.12026,2.12026,0,0,1-.03515.26416,1.23855,1.23855,0,0,1-.08789.28467.67838.67838,0,0,1-.15821.22509.35608.35608,0,0,1-.25293.09131.3215.3215,0,0,1-.20752-.07031.56692.56692,0,0,1-.148-.18652,1.24782,1.24782,0,0,1-.09814-.27051,2.785,2.785,0,0,1-.06006-.31641c-.01367-.11279-.02441-.22509-.03125-.33789q-.011-.16845-.01416-.31982c-.00244-.10059-.00244-.19336,0-.27783.002-.08448.00342-.15235.00342-.2041q-.00732-.2461-.0249-.49561c-.01172-.1665-.01758-.33154-.01758-.49609q0-.15455.01416-.34424a1.23248,1.23248,0,0,1,.07764-.35547.71872.71872,0,0,1,.186-.27783.48832.48832,0,0,1,.34131-.11231.2935.2935,0,0,1,.2041.07715.60642.60642,0,0,1,.13721.18994,1.14008,1.14008,0,0,1,.08056.23926,1.54115,1.54115,0,0,1,.03516.23193,1.76567,1.76567,0,0,1,.37988-.44629.89907.89907,0,0,1,.54834-.18652,1.22538,1.22538,0,0,1,.33448.03174.96526.96526,0,0,1,.30224.12646.72385.72385,0,0,1,.2251.22852.6557.6557,0,0,1,.09473.33057.38479.38479,0,0,1-.1333.34472A.58418.58418,0,0,1,40.79236,55.89667Z"/><path d="M43.45056,54.65887a.34557.34557,0,0,1-.13721.30225,2.48574,2.48574,0,0,1-.30566.18652,1.5691,1.5691,0,0,0-.30615.20752.45079.45079,0,0,0-.13721.35889.38839.38839,0,0,0,.06006.21777.74818.74818,0,0,0,.14746.16553c.05859.04883.123.09961.19336.15088a1.2715,1.2715,0,0,1,.19385.17578.83268.83268,0,0,1,.207.584,1.22666,1.22666,0,0,1-.15088.58007,1.94933,1.94933,0,0,1-.918.86182,1.41056,1.41056,0,0,1-.58349.1333,1.63851,1.63851,0,0,1-.23926-.01758.67682.67682,0,0,1-.21436-.06689.43979.43979,0,0,1-.1582-.13672.38066.38066,0,0,1-.06348-.229.52483.52483,0,0,1,.07715-.30567.5551.5551,0,0,1,.19727-.17236,1.172,1.172,0,0,1,.25634-.09863,1.63511,1.63511,0,0,0,.25684-.0879.57278.57278,0,0,0,.19678-.1372.33953.33953,0,0,0,.07763-.23877.51968.51968,0,0,0-.11621-.30615q-.11573-.15821-.25683-.33741a3.119,3.119,0,0,1-.25635-.3833.89263.89263,0,0,1-.11621-.45019,1.27689,1.27689,0,0,1,.123-.55908,1.45783,1.45783,0,0,1,.33056-.44678,1.58236,1.58236,0,0,1,.47461-.29883,1.47456,1.47456,0,0,1,.563-.10889,1.15486,1.15486,0,0,1,.22119.021.56332.56332,0,0,1,.19336.07373.41136.41136,0,0,1,.13721.14062A.42706.42706,0,0,1,43.45056,54.65887Z"/><path d="M45.06873,58.73114a1.05357,1.05357,0,0,1-.626-.18994,1.65814,1.65814,0,0,1-.4502-.48535,2.31232,2.31232,0,0,1-.27441-.65772,2.90047,2.90047,0,0,1-.09131-.71386,3.42581,3.42581,0,0,1,.09131-.77,2.59358,2.59358,0,0,1,.28125-.72413,1.66655,1.66655,0,0,1,.48535-.53466,1.19482,1.19482,0,0,1,.70361-.20752,1.06828,1.06828,0,0,1,.67139.21435,1.62832,1.62832,0,0,1,.44678.53467,2.45287,2.45287,0,0,1,.23877.69971,2.931,2.931,0,0,1,.04931.71728,4.06731,4.06731,0,0,1-.11572.75244,2.48088,2.48088,0,0,1-.27783.68262,1.55715,1.55715,0,0,1-.46436.49219A1.16615,1.16615,0,0,1,45.06873,58.73114Zm.07031-3.1792a.22947.22947,0,0,0-.18653.11279,1.00476,1.00476,0,0,0-.13378.27442,2.1706,2.1706,0,0,0-.08057.34082,2.02433,2.02433,0,0,0-.02832.313,2.32507,2.32507,0,0,0,.03174.36572,2.198,2.198,0,0,0,.08789.3623.99318.99318,0,0,0,.1372.27442.2306.2306,0,0,0,.18653.10888.23885.23885,0,0,0,.19336-.10546.83868.83868,0,0,0,.12988-.26758,1.95214,1.95214,0,0,0,.07031-.355,3.3234,3.3234,0,0,0,.021-.36231,2.32059,2.32059,0,0,0-.02783-.34082,2.19137,2.19137,0,0,0-.08106-.34814.88413.88413,0,0,0-.13379-.26758A.23183.23183,0,0,0,45.139,55.55194Z"/><path d="M48.95056,58.72382a.21548.21548,0,0,1-.18994-.10889.8269.8269,0,0,1-.10547-.24951,1.70978,1.70978,0,0,1-.0459-.28516c-.00683-.0957-.01025-.16992-.01025-.22119a3.60916,3.60916,0,0,1,.02441-.42236c.01612-.14063.03516-.28125.05616-.42188s.04-.28125.05615-.42187a3.59574,3.59574,0,0,0,.0249-.42188q0-.08423-.00732-.1831a.93747.93747,0,0,0-.03125-.186.32527.32527,0,0,0-.08106-.14453.20183.20183,0,0,0-.148-.05615c-.042,0-.08887.03418-.14062.102a1.595,1.595,0,0,0-.144.23193,2.09305,2.09305,0,0,0-.1123.26026.65242.65242,0,0,0-.0459.19335c0,.10352.001.20752.00342.313s.00342.21241.00342.32032v.40771c-.0044.08447-.01172.17139-.021.26025a2.33447,2.33447,0,0,1-.042.26026,1.362,1.362,0,0,1-.06348.24267.76688.76688,0,0,1-.10888.20411.57657.57657,0,0,1-.15821.144.40784.40784,0,0,1-.21826.05615.31573.31573,0,0,1-.23193-.09131.66834.66834,0,0,1-.14746-.23584,1.391,1.391,0,0,1-.08106-.32324q-.0249-.17944-.03516-.35156c-.00732-.11524-.00927-.22071-.00732-.3169.00244-.0957.00391-.17187.00391-.22851v-.33057c0-.17773-.00391-.354-.01075-.52734s-.01074-.34668-.01074-.52051q0-.14062.00391-.3584a1.93211,1.93211,0,0,1,.05273-.42578.93052.93052,0,0,1,.16162-.355.389.389,0,0,1,.33057-.148.272.272,0,0,1,.17578.06348.67.67,0,0,1,.13721.15478.98931.98931,0,0,1,.09863.19678c.02539.07031.04541.13135.05957.1831a1.37679,1.37679,0,0,1,.165-.18994,1.1359,1.1359,0,0,1,.21484-.16162,1.14763,1.14763,0,0,1,.26709-.11279,1.22431,1.22431,0,0,1,.33741-.042.8304.8304,0,0,1,.55957.17236,1.02238,1.02238,0,0,1,.29492.42871,1.99017,1.99017,0,0,1,.11621.55225q.02124.29516.021.53418c0,.08008-.00684.19824-.021.35547s-.03613.33056-.06689.5205q-.04542.28493-.123.5835a3.82845,3.82845,0,0,1-.18262.54492,1.37,1.37,0,0,1-.25.40088A.43518.43518,0,0,1,48.95056,58.72382Z"/><path d="M53.30408,57.53534c0,.08447-.00391.19482-.01075.33057a2.02227,2.02227,0,0,1-.05957.39746.94031.94031,0,0,1-.15478.334.34824.34824,0,0,1-.29541.14063.49135.49135,0,0,1-.40088-.169.6074.6074,0,0,1-.13379-.42187,1.73692,1.73692,0,0,1-.50976.30957,1.573,1.573,0,0,1-.58008.1123.80752.80752,0,0,1-.38721-.09814,1.21157,1.21157,0,0,1-.32324-.25342,1.26423,1.26423,0,0,1-.2251-.34815.95321.95321,0,0,1-.08447-.3833.90521.90521,0,0,1,.20752-.59082,1.90656,1.90656,0,0,1,.50976-.43213,2.98217,2.98217,0,0,1,.64356-.28515,3.74764,3.74764,0,0,1,.6084-.14063.49019.49019,0,0,1,.00341-.063.50114.50114,0,0,0,.00342-.06347.507.507,0,0,0-.11914-.35156.42963.42963,0,0,0-.33789-.13379.69979.69979,0,0,0-.30225.06,1.91937,1.91937,0,0,0-.23925.13331c-.0752.04931-.14991.09375-.2251.13378a.52846.52846,0,0,1-.25293.05957.37875.37875,0,0,1-.26367-.09814.32679.32679,0,0,1-.10938-.25342.70417.70417,0,0,1,.13721-.42187,1.215,1.215,0,0,1,.34473-.31983,1.85417,1.85417,0,0,1,.45019-.2041,1.53863,1.53863,0,0,1,.44629-.07373,1.62576,1.62576,0,0,1,.37988.04541,1.42162,1.42162,0,0,1,.35889.14063,1.4002,1.4002,0,0,1,.30566.23242,1.096,1.096,0,0,1,.22168.31982,3.03625,3.03625,0,0,1,.20411.55225,5.07505,5.07505,0,0,1,.11962.59765q.04176.30617.05616.61182Q53.30383,57.24725,53.30408,57.53534Zm-1.12549-.2251-.021-.478a.10983.10983,0,0,1-.02832-.00341.1089.1089,0,0,0-.02783-.00391.76353.76353,0,0,0-.229.0459,1.20983,1.20983,0,0,0-.26368.12646,1.02208,1.02208,0,0,0-.21435.17969.30353.30353,0,0,0-.08789.20361.13516.13516,0,0,0,.07031.13379.35623.35623,0,0,0,.16162.03516.79038.79038,0,0,0,.33057-.08106Q52.04481,57.38787,52.17859,57.31024Z"/><path d="M55.04138,54.26532q0,.3794-.03174.7627-.03148.38378-.03173.77,0,.49952.03173.999.0315.49952.03174,1.00537c0,.08447-.00488.17969-.01416.28516a1.05993,1.05993,0,0,1-.06689.292.56693.56693,0,0,1-.15821.22461.41409.41409,0,0,1-.28125.09179.3575.3575,0,0,1-.292-.16552,1.41522,1.41522,0,0,1-.2041-.42188,4.2514,4.2514,0,0,1-.1333-.57324q-.05274-.31641-.07764-.61524c-.0166-.19921-.02783-.38232-.03515-.54882q-.01026-.249-.01026-.36914,0-.1333.01026-.38672.011-.25343.04589-.54834.03516-.2959.09473-.60156a3.20675,3.20675,0,0,1,.1582-.55567,1.41186,1.41186,0,0,1,.23584-.40771.41891.41891,0,0,1,.32715-.15821.28117.28117,0,0,1,.23535.102.63215.63215,0,0,1,.11622.2461,1.58353,1.58353,0,0,1,.042.30224Q55.04138,54.15253,55.04138,54.26532Z"/><path d="M31.62878,60.19159a.41814.41814,0,0,1-.102.28125.85817.85817,0,0,1-.24267.19726c-.08448.05176-.1709.10645-.26026.165a1.72968,1.72968,0,0,0-.24609.19727.94661.94661,0,0,0-.18262.24219.64364.64364,0,0,0-.07031.30273.51907.51907,0,0,0,.07031.26758,1.5371,1.5371,0,0,0,.17237.23535c.06787.07715.14257.15723.22509.23926a1.88061,1.88061,0,0,1,.22461.27441,1.56991,1.56991,0,0,1,.17237.34082,1.2582,1.2582,0,0,1-.00342.84082,2.62446,2.62446,0,0,1-.2002.44629,3.02017,3.02017,0,0,1-.29931.43555,2.88538,2.88538,0,0,1-.36573.377,1.85413,1.85413,0,0,1-.40429.2666.93024.93024,0,0,1-.40772.10254.64932.64932,0,0,1-.38672-.12011.40914.40914,0,0,1-.16894-.3584.603.603,0,0,1,.07715-.29883,1.52115,1.52115,0,0,1,.18994-.26367,2.84271,2.84271,0,0,1,.25-.2461c.09131-.08007.17431-.15918.24951-.23925a1.43294,1.43294,0,0,0,.18994-.25.53311.53311,0,0,0,.07715-.27735.75338.75338,0,0,0-.144-.41894q-.14428-.21387-.31983-.44239a5.05922,5.05922,0,0,1-.32031-.46777.92932.92932,0,0,1-.144-.48535,1.463,1.463,0,0,1,.16162-.63672,2.54481,2.54481,0,0,1,.415-.61133,2.37773,2.37773,0,0,1,.56982-.46094,1.24173,1.24173,0,0,1,.626-.18261.63329.63329,0,0,1,.42187.14746A.49518.49518,0,0,1,31.62878,60.19159Z"/><path d="M33.51355,65.382a1.86976,1.86976,0,0,1-.77686-.12988.90289.90289,0,0,1-.415-.36914,1.36721,1.36721,0,0,1-.16553-.57715q-.02784-.33692-.02783-.752,0-.331.021-.665c.01416-.22265.03516-.46.063-.71386-.06543,0-.11719.002-.1543.0039-.03759.002-.06836.00293-.09179.00293a.749.749,0,0,1-.39014-.09765.32937.32937,0,0,1-.16553-.30274.31419.31419,0,0,1,.09522-.22461.81208.81208,0,0,1,.24267-.16894,1.66936,1.66936,0,0,1,.31983-.11328,2.38921,2.38921,0,0,1,.32715-.05567,3.7073,3.7073,0,0,1,.02832-.43652,2.05465,2.05465,0,0,1,.10156-.44629,1.02831,1.02831,0,0,1,.20068-.34863.416.416,0,0,1,.32324-.14063.327.327,0,0,1,.20069.06739.52221.52221,0,0,1,.144.16894.82939.82939,0,0,1,.08447.22852,1.13982,1.13982,0,0,1,.02832.24609,2.02425,2.02425,0,0,1-.02148.28809,3.36242,3.36242,0,0,1-.07715.36621c.07959-.00977.13379-.01563.16162-.01758a.75015.75015,0,0,1,.07764-.00391,1.49834,1.49834,0,0,1,.24951.02149.91584.91584,0,0,1,.23926.07031.507.507,0,0,1,.1792.12988.28416.28416,0,0,1,.07031.19336.30476.30476,0,0,1-.10205.22461.8861.8861,0,0,1-.25635.16895,1.65155,1.65155,0,0,1-.33056.10937,2.84606,2.84606,0,0,1-.33057.05274q-.04248.28857-.06006.53125c-.01172.16113-.02441.32421-.03857.48828-.00928.08008-.01758.16113-.02442.24316-.00732.082-.01074.165-.01074.249,0,.06153.00244.13282.00684.21485a.81213.81213,0,0,0,.04931.23535.47835.47835,0,0,0,.13379.19336.3694.3694,0,0,0,.25293.081,1.24062,1.24062,0,0,0,.2041-.01757,1.2809,1.2809,0,0,1,.21094-.01758.28777.28777,0,0,1,.26367.127.58772.58772,0,0,1,.08106.32324.39774.39774,0,0,1-.08789.25684.67063.67063,0,0,1-.22168.17578,1.2642,1.2642,0,0,1-.29883.10156A1.50643,1.50643,0,0,1,33.51355,65.382Z"/><path d="M37.56482,64.13788c0,.084-.00391.19433-.01074.33008a2.02928,2.02928,0,0,1-.05957.39746.9405.9405,0,0,1-.15479.334.34822.34822,0,0,1-.29541.14063.49279.49279,0,0,1-.40088-.16895.6074.6074,0,0,1-.13379-.42187,1.72657,1.72657,0,0,1-.50976.30957,1.56305,1.56305,0,0,1-.58008.1123.79718.79718,0,0,1-.38721-.09863,1.2,1.2,0,0,1-.32324-.25293,1.25472,1.25472,0,0,1-.2251-.34766.95545.95545,0,0,1-.08447-.38379.90618.90618,0,0,1,.20752-.59082,1.91691,1.91691,0,0,1,.50977-.43261,3.00307,3.00307,0,0,1,.64355-.28418,3.74788,3.74788,0,0,1,.6084-.14063.49807.49807,0,0,1,.00342-.06348.49793.49793,0,0,0,.00341-.06347.507.507,0,0,0-.11914-.35156.43126.43126,0,0,0-.33789-.13379.71424.71424,0,0,0-.30224.05957,2.05419,2.05419,0,0,0-.23926.13379c-.0752.0498-.1499.09375-.2251.13379a.52855.52855,0,0,1-.25293.05957.37479.37479,0,0,1-.26367-.09864.32436.32436,0,0,1-.10937-.25293.70628.70628,0,0,1,.1372-.42187,1.21656,1.21656,0,0,1,.34473-.32031,1.87258,1.87258,0,0,1,.45019-.20411,1.55367,1.55367,0,0,1,.44629-.07324,1.576,1.576,0,0,1,.37989.0459,1.40437,1.40437,0,0,1,.66455.37207,1.105,1.105,0,0,1,.22168.32031,3.05926,3.05926,0,0,1,.2041.55176,5.156,5.156,0,0,1,.11963.59766q.04174.30615.05615.6123Q37.56458,63.8493,37.56482,64.13788Zm-1.12549-.22559-.021-.47851a.13621.13621,0,0,1-.02832-.00293.09122.09122,0,0,0-.02783-.00391.76359.76359,0,0,0-.229.0459,1.14776,1.14776,0,0,0-.26367.127,1.01887,1.01887,0,0,0-.21436.17871.30653.30653,0,0,0-.08789.2041.13561.13561,0,0,0,.07031.13379.35623.35623,0,0,0,.16162.03516.79791.79791,0,0,0,.33057-.08105Q36.30554,63.98992,36.43933,63.91229Z"/><path d="M39.62537,65.382a1.86976,1.86976,0,0,1-.77686-.12988.90292.90292,0,0,1-.415-.36914,1.36735,1.36735,0,0,1-.16553-.57715q-.02783-.33692-.02783-.752,0-.331.021-.665c.01416-.22265.03515-.46.063-.71386-.06543,0-.11719.002-.1543.0039-.0376.002-.06836.00293-.0918.00293a.749.749,0,0,1-.39013-.09765.32935.32935,0,0,1-.16553-.30274.31422.31422,0,0,1,.09521-.22461.81226.81226,0,0,1,.24268-.16894,1.66926,1.66926,0,0,1,.31982-.11328,2.38947,2.38947,0,0,1,.32715-.05567,3.70945,3.70945,0,0,1,.02832-.43652,2.05582,2.05582,0,0,1,.10156-.44629,1.02849,1.02849,0,0,1,.20069-.34863.416.416,0,0,1,.32324-.14063.327.327,0,0,1,.20068.06739.52211.52211,0,0,1,.14405.16894.82971.82971,0,0,1,.08447.22852,1.14044,1.14044,0,0,1,.02832.24609,2.02425,2.02425,0,0,1-.02148.28809,3.36481,3.36481,0,0,1-.07715.36621c.07959-.00977.13379-.01563.16162-.01758a.75015.75015,0,0,1,.07764-.00391,1.49843,1.49843,0,0,1,.24951.02149.91565.91565,0,0,1,.23925.07031.50677.50677,0,0,1,.1792.12988.28412.28412,0,0,1,.07032.19336.30476.30476,0,0,1-.102.22461.88624.88624,0,0,1-.25635.16895,1.65164,1.65164,0,0,1-.33057.10937,2.84591,2.84591,0,0,1-.33056.05274q-.0425.28857-.06006.53125c-.01172.16113-.02442.32421-.03858.48828-.00927.08008-.01758.16113-.02441.24316-.00733.082-.01074.165-.01074.249,0,.06153.00244.13282.00683.21485a.81214.81214,0,0,0,.04932.23535.47825.47825,0,0,0,.13379.19336.36939.36939,0,0,0,.25293.081,1.24062,1.24062,0,0,0,.2041-.01757,1.28081,1.28081,0,0,1,.21094-.01758.28777.28777,0,0,1,.26367.127.58772.58772,0,0,1,.08105.32324.39768.39768,0,0,1-.08789.25684.67043.67043,0,0,1-.22168.17578,1.26389,1.26389,0,0,1-.29883.10156A1.50634,1.50634,0,0,1,39.62537,65.382Z"/><path d="M43.63367,63.87714a.83727.83727,0,0,1-.15137.46777,1.74055,1.74055,0,0,1-.37939.4082,2.11183,2.11183,0,0,1-.48877.28809,1.25885,1.25885,0,0,1-.47852.10937,1.20932,1.20932,0,0,1-.66455-.18652,1.68239,1.68239,0,0,1-.48877-.47461,2.2279,2.2279,0,0,1-.29883-.63672,2.41284,2.41284,0,0,1-.102-.67871,3.15522,3.15522,0,0,1,.09863-.75293,2.69942,2.69942,0,0,1,.29883-.73828,1.89248,1.89248,0,0,1,.50635-.5625,1.19275,1.19275,0,0,1,.728-.22461,1.30887,1.30887,0,0,1,.457.08008,1.1812,1.1812,0,0,1,.37988.22851,1.15308,1.15308,0,0,1,.26025.35254,1.03913,1.03913,0,0,1,.09815.457,1.38952,1.38952,0,0,1-.14063.61817,1.63776,1.63776,0,0,1-.37255.5,1.91419,1.91419,0,0,1-.53467.34082,1.75645,1.75645,0,0,1-.61865.14453.39717.39717,0,0,0,.165.29492.572.572,0,0,0,.32715.0918.58386.58386,0,0,0,.27442-.07031,2.51706,2.51706,0,0,0,.26025-.15821c.084-.05859.16748-.11132.24951-.1582a.4975.4975,0,0,1,.24951-.07031.39369.39369,0,0,1,.25342.09082A.29483.29483,0,0,1,43.63367,63.87714Zm-1.13916-1.72266a.42832.42832,0,0,0-.04932-.19043.16306.16306,0,0,0-.15478-.09863.41673.41673,0,0,0-.26026.081.67406.67406,0,0,0-.17578.2041,1.11964,1.11964,0,0,0-.10889.26368,1.277,1.277,0,0,0-.0459.26074c.06592-.01465.14405-.03321.23584-.05664a1.36548,1.36548,0,0,0,.26026-.09473.74637.74637,0,0,0,.21094-.15137A.30314.30314,0,0,0,42.49451,62.15448Z"/><path d="M48.18445,62.8078v.3623c0,.15235-.00342.31836-.01074.4961-.00684.17871-.022.35742-.04541.53808a2.51891,2.51891,0,0,1-.10938.48829,1.17141,1.17141,0,0,1-.186.35937.35382.35382,0,0,1-.28858.14063.2617.2617,0,0,1-.23535-.12989.91357.91357,0,0,1-.11621-.30664,2.02871,2.02871,0,0,1-.03858-.3584c-.00244-.12207-.00341-.21777-.00341-.28808,0-.21094.00683-.418.021-.61914s.021-.40821.021-.61914v-.126a1.22322,1.22322,0,0,0-.01416-.18359.6253.6253,0,0,0-.04541-.16114.10212.10212,0,0,0-.09522-.07031.22982.22982,0,0,0-.20361.12988,1.2532,1.2532,0,0,0-.127.30567,2.37219,2.37219,0,0,0-.07032.34863c-.01416.11426-.02343.2002-.02783.25684-.00976.06054-.01758.15234-.0249.27343-.00684.12207-.0166.25586-.02783.40137-.01172.14551-.03076.29395-.05664.44629a3.05707,3.05707,0,0,1-.09815.415,1.00361,1.00361,0,0,1-.15136.30566.27445.27445,0,0,1-.2251.12012.2912.2912,0,0,1-.26026-.14746,1.076,1.076,0,0,1-.1333-.34473,2.49458,2.49458,0,0,1-.05273-.40136q-.011-.20363-.01074-.31641c0-.0791.001-.15723.00342-.23242.00244-.07422.00341-.15137.00341-.23145v-.16211c0-.07519-.001-.1582-.00341-.249-.00245-.0918-.00684-.18652-.01416-.28516a2.683,2.683,0,0,0-.03174-.2705.65613.65613,0,0,0-.063-.20118c-.02832-.05078-.061-.07714-.09863-.07714a.21208.21208,0,0,0-.16846.11621,1.23757,1.23757,0,0,0-.13379.27441,2.31519,2.31519,0,0,0-.08789.3125,1.29265,1.29265,0,0,0-.03174.22559v.042a5.16839,5.16839,0,0,0,.042.66113,5.06945,5.06945,0,0,1,.04248.66113.58645.58645,0,0,1-.12646.36231.41778.41778,0,0,1-.352.165.33637.33637,0,0,1-.26709-.12305,1.00381,1.00381,0,0,1-.17578-.32031,2.43438,2.43438,0,0,1-.10889-.43262,4.5255,4.5255,0,0,1-.05273-.46387c-.00977-.15234-.01563-.291-.01758-.415-.00244-.124-.00342-.2168-.00342-.27735,0-.07031-.00147-.17383-.00391-.30957s0-.28418.00733-.44336c.00683-.15918.01953-.32226.03857-.48828a2.45609,2.45609,0,0,1,.09131-.4541,1.03643,1.03643,0,0,1,.16553-.334.319.319,0,0,1,.26367-.12988.44307.44307,0,0,1,.29883.09863.36585.36585,0,0,1,.11621.29493c0,.02832-.00147.05664-.00391.085-.00244.02734-.00586.05371-.01025.07715a1.71569,1.71569,0,0,1,.18994-.22852,1.74434,1.74434,0,0,1,.24268-.21094,1.28328,1.28328,0,0,1,.27783-.15527.77588.77588,0,0,1,.29492-.05957.4362.4362,0,0,1,.25342.07715.82113.82113,0,0,1,.19677.19336,1.23131,1.23131,0,0,1,.14063.25,1.1949,1.1949,0,0,1,.07764.25293,1.96718,1.96718,0,0,1,.17236-.25684,1.53606,1.53606,0,0,1,.22119-.22852,1.12939,1.12939,0,0,1,.26416-.16113.72076.72076,0,0,1,.29883-.06347.34526.34526,0,0,1,.25293.10546.94528.94528,0,0,1,.1831.27051,1.68054,1.68054,0,0,1,.11963.373c.02784.13769.05127.27441.07032.40723.01855.13378.03027.25878.03515.373C48.182,62.65253,48.18445,62.74237,48.18445,62.8078Z"/><path d="M51.59509,63.87714a.83726.83726,0,0,1-.15136.46777,1.7406,1.7406,0,0,1-.3794.4082,2.11162,2.11162,0,0,1-.48877.28809,1.25884,1.25884,0,0,1-.47851.10937,1.2093,1.2093,0,0,1-.66455-.18652,1.68227,1.68227,0,0,1-.48877-.47461,2.2279,2.2279,0,0,1-.29883-.63672,2.41284,2.41284,0,0,1-.102-.67871,3.15471,3.15471,0,0,1,.09863-.75293,2.69942,2.69942,0,0,1,.29883-.73828,1.89235,1.89235,0,0,1,.50635-.5625,1.19272,1.19272,0,0,1,.728-.22461,1.30883,1.30883,0,0,1,.457.08008,1.18124,1.18124,0,0,1,.37989.22851,1.15324,1.15324,0,0,1,.26025.35254,1.03913,1.03913,0,0,1,.09815.457,1.38952,1.38952,0,0,1-.14063.61817,1.63763,1.63763,0,0,1-.37256.5,1.914,1.914,0,0,1-.53467.34082,1.7564,1.7564,0,0,1-.61865.14453.39718.39718,0,0,0,.165.29492.572.572,0,0,0,.32715.0918.58379.58379,0,0,0,.27441-.07031,2.51719,2.51719,0,0,0,.26026-.15821c.084-.05859.16748-.11132.24951-.1582a.4975.4975,0,0,1,.24951-.07031.39371.39371,0,0,1,.25342.09082A.29482.29482,0,0,1,51.59509,63.87714Zm-1.13916-1.72266a.42844.42844,0,0,0-.04931-.19043.16308.16308,0,0,0-.15479-.09863.4167.4167,0,0,0-.26025.081.67379.67379,0,0,0-.17578.2041,1.11922,1.11922,0,0,0-.10889.26368,1.27634,1.27634,0,0,0-.0459.26074c.06592-.01465.144-.03321.23584-.05664a1.36539,1.36539,0,0,0,.26025-.09473.74609.74609,0,0,0,.21094-.15137A.3031.3031,0,0,0,50.45593,62.15448Z"/><path d="M53.8739,65.32635A.21692.21692,0,0,1,53.684,65.217a.82443.82443,0,0,1-.10547-.25,1.70652,1.70652,0,0,1-.0459-.28418c-.00683-.09668-.01025-.16992-.01025-.22168a3.59484,3.59484,0,0,1,.02441-.42187c.01612-.14063.03516-.28125.05616-.42188s.04-.28125.05615-.42187a3.62491,3.62491,0,0,0,.0249-.42286c0-.05566-.00244-.11718-.00732-.18261a.94254.94254,0,0,0-.03125-.18653.31909.31909,0,0,0-.08106-.14355.19831.19831,0,0,0-.148-.05664q-.063,0-.14062.10254a1.53791,1.53791,0,0,0-.144.23144,2.06839,2.06839,0,0,0-.1123.26074.64612.64612,0,0,0-.0459.19336c0,.10254.001.207.00342.3125s.00342.21192.00342.32032v.4082c-.0044.084-.01172.1709-.021.25977a2.32588,2.32588,0,0,1-.042.25976,1.34569,1.34569,0,0,1-.06348.24316.76688.76688,0,0,1-.10888.20411.56716.56716,0,0,1-.15821.14355.40369.40369,0,0,1-.21826.05664.31231.31231,0,0,1-.23193-.0918.65738.65738,0,0,1-.14746-.23535,1.39732,1.39732,0,0,1-.08106-.32324q-.0249-.18018-.03516-.35156c-.00732-.11524-.00927-.2207-.00732-.31641.00244-.09668.00391-.17285.00391-.22851v-.33106c0-.17773-.00391-.35351-.01075-.52734s-.01074-.34668-.01074-.52051c0-.09375.00147-.21289.00391-.3584a1.93211,1.93211,0,0,1,.05273-.42578.93622.93622,0,0,1,.16162-.35547.3913.3913,0,0,1,.33057-.14746.27206.27206,0,0,1,.17578.06348.6776.6776,0,0,1,.13721.15429,1.00678,1.00678,0,0,1,.09863.19727c.02539.07031.04541.13184.05957.18262a1.373,1.373,0,0,1,.165-.18946,1.15915,1.15915,0,0,1,.21484-.16211,1.14688,1.14688,0,0,1,.26709-.1123,1.22431,1.22431,0,0,1,.33741-.042.83543.83543,0,0,1,.55957.17187,1.02258,1.02258,0,0,1,.29492.42969,1.983,1.983,0,0,1,.11621.55176c.01416.19726.021.375.021.53418,0,.08008-.00684.19824-.021.35547s-.03613.33007-.06689.5205c-.03028.18946-.07129.38477-.123.584a3.82845,3.82845,0,0,1-.18262.54492,1.36711,1.36711,0,0,1-.25.40039A.43574.43574,0,0,1,53.8739,65.32635Z"/><path d="M56.87732,65.382A1.87065,1.87065,0,0,1,56.1,65.25214a.90292.90292,0,0,1-.415-.36914,1.36721,1.36721,0,0,1-.16553-.57715q-.02784-.33692-.02783-.752,0-.331.021-.665c.01416-.22265.03516-.46.063-.71386-.06543,0-.11719.002-.1543.0039-.03759.002-.06835.00293-.09179.00293a.749.749,0,0,1-.39014-.09765.32937.32937,0,0,1-.16553-.30274.31419.31419,0,0,1,.09522-.22461.81221.81221,0,0,1,.24267-.16894,1.66936,1.66936,0,0,1,.31983-.11328,2.38921,2.38921,0,0,1,.32715-.05567,3.7073,3.7073,0,0,1,.02832-.43652,2.05465,2.05465,0,0,1,.10156-.44629,1.02847,1.02847,0,0,1,.20068-.34863.416.416,0,0,1,.32325-.14063.32942.32942,0,0,1,.20117.06739.52677.52677,0,0,1,.14355.16894.84592.84592,0,0,1,.085.22852,1.202,1.202,0,0,1,.02735.24609,1.955,1.955,0,0,1-.02149.28809,3.44643,3.44643,0,0,1-.07617.36621q.11865-.01465.16113-.01758a.74117.74117,0,0,1,.07715-.00391,1.491,1.491,0,0,1,.25.02149.914.914,0,0,1,.23828.07031.49591.49591,0,0,1,.17969.12988.28411.28411,0,0,1,.07031.19336.30242.30242,0,0,1-.10156.22461.91084.91084,0,0,1-.25586.16895,1.65476,1.65476,0,0,1-.332.10937,2.80611,2.80611,0,0,1-.33008.05274c-.02734.19238-.04785.36914-.05957.53125-.01172.16113-.02441.32421-.03808.48828-.00977.08008-.01758.16113-.02491.24316s-.01074.165-.01074.249c0,.06153.00244.13282.00684.21485a.79631.79631,0,0,0,.04931.23535.48318.48318,0,0,0,.13379.19336.36867.36867,0,0,0,.25391.081,1.24268,1.24268,0,0,0,.20312-.01757,1.281,1.281,0,0,1,.21094-.01758.28988.28988,0,0,1,.26367.127.58354.58354,0,0,1,.08008.32324.39774.39774,0,0,1-.08789.25684.65693.65693,0,0,1-.2207.17578,1.29531,1.29531,0,0,1-.29883.10156A1.50195,1.50195,0,0,1,56.87732,65.382Z"/></svg>