<svg id="svg-personal-statement" xmlns="http://www.w3.org/2000/svg" viewBox="0 0 86.95044 118.59949"><defs><style>#svg-personal-statement .cls-1{fill:#abddd8;}#svg-personal-statement .cls-2{fill:#83b3af;}#svg-personal-statement .cls-3{fill:#fff;}#svg-personal-statement .cls-4{font-size:7.20171px;fill:none;font-family:Chewy-Regular,Chewy;}</style></defs><path class="cls-1" d="M86.95044,59.29993l-.866-1.5-7.467-12.93335,7.467-12.93329.866-1.5-.866-1.5-7.50555-13-.866-1.5H61.0459L53.57886,1.5l-.866-1.5H34.23761l-.866,1.5-7.467,12.93329H9.23761l-.866,1.5-7.50555,13-.866,1.5.866,1.5,7.467,12.93329L.866,57.79993l-.866,1.5.866,1.5,7.467,12.93329L.866,86.6665,0,88.1665l.866,1.5,7.50555,13,.866,1.5H25.90472l7.46686,12.933.866,1.5H52.71283l.866-1.5,7.46686-12.933H77.71283l.866-1.5,7.50555-13,.866-1.5-.866-1.5-7.467-12.93328,7.467-12.93329Z"/><polygon class="cls-2" points="50.981 31.867 35.97 31.867 28.464 44.867 35.97 57.867 50.981 57.867 58.486 44.867 50.981 31.867"/><polygon class="cls-2" points="75.981 46.3 60.97 46.3 53.464 59.3 60.97 72.3 75.981 72.3 83.486 59.3 75.981 46.3"/><polygon class="cls-2" points="25.981 46.3 10.97 46.3 3.464 59.3 10.97 72.3 25.981 72.3 33.486 59.3 25.981 46.3"/><polygon class="cls-2" points="25.981 17.433 10.97 17.433 3.464 30.433 10.97 43.433 25.981 43.433 33.486 30.433 25.981 17.433"/><polygon class="cls-2" points="75.981 17.433 60.97 17.433 53.464 30.433 60.97 43.433 75.981 43.433 83.486 30.433 75.981 17.433"/><polygon class="cls-2" points="50.981 3 35.97 3 28.464 16 35.97 29 50.981 29 58.486 16 50.981 3"/><polygon class="cls-2" points="50.981 60.733 35.97 60.733 28.464 73.733 35.97 86.733 50.981 86.733 58.486 73.733 50.981 60.733"/><polygon class="cls-2" points="75.981 75.167 60.97 75.167 53.464 88.167 60.97 101.167 75.981 101.167 83.486 88.167 75.981 75.167"/><polygon class="cls-2" points="25.981 75.167 10.97 75.167 3.464 88.167 10.97 101.167 25.981 101.167 33.486 88.167 25.981 75.167"/><polygon class="cls-2" points="50.981 89.6 35.97 89.6 28.464 102.6 35.97 115.6 50.981 115.6 58.486 102.6 50.981 89.6"/><circle class="cls-3" cx="43.47522" cy="59.29993" r="19"/><text class="cls-4" transform="translate(-0.00023 6.30137)">Declaración<tspan x="4.64893" y="6.60205">Personal</tspan></text><text class="cls-4" transform="translate(2.36301 6.30104)">Personal<tspan x="-2.36279" y="6.60205">Statement</tspan></text><path d="M30.69983,55.48187a2.91785,2.91785,0,0,1-.25342,1.19239,3.481,3.481,0,0,1-.67871,1.01611,3.28889,3.28889,0,0,1-.99121.707,2.79278,2.79278,0,0,1-1.19238.26367H27.57a.24427.24427,0,0,1-.20752-.11621,1.07653,1.07653,0,0,1-.13672-.292,2.18929,2.18929,0,0,1-.08447-.39356c-.01905-.1455-.03321-.28711-.04249-.42578q-.01391-.20727-.01367-.37256v-.24951c0-.15967.002-.31787.00684-.4751.00439-.15673.01172-.31494.021-.4746,0-.05127.00341-.12745.01074-.22852q.01025-.15089.02441-.34082.01392-.19042.03516-.39746c.01416-.13819.02929-.26758.0459-.38672q.02416-.17945.04931-.31689a.49563.49563,0,0,1,.05957-.186.833.833,0,0,1,.28125-.27441,1.9992,1.9992,0,0,1,.41162-.19678,2.73446,2.73446,0,0,1,.4502-.11621,2.4116,2.4116,0,0,1,.397-.03858,1.7688,1.7688,0,0,1,.80567.17237,1.67118,1.67118,0,0,1,.56933.46386,1.95264,1.95264,0,0,1,.33789.67188A2.87957,2.87957,0,0,1,30.69983,55.48187Zm-1.18164.2041a.95809.95809,0,0,0-.05615-.3164,1.06265,1.06265,0,0,0-.15821-.29541.80669.80669,0,0,0-.24609-.21436.6414.6414,0,0,0-.32031-.081.728.728,0,0,0-.30225.07031c-.02344.01416-.04443.05762-.06348.13037a2,2,0,0,0-.04541.26367c-.01171.103-.02246.21582-.03173.33741q-.01392.18311-.01758.34814-.00366.16553-.00733.292c-.00195.08447-.00341.14063-.00341.16895v.207c0,.0918.00341.18213.01074.271.00683.08887.01513.16651.02441.23194.00928.06592.02588.09863.04932.09863a.669.669,0,0,0,.41846-.16553,1.94546,1.94546,0,0,0,.37646-.40429,2.35288,2.35288,0,0,0,.27051-.499A1.26083,1.26083,0,0,0,29.51819,55.686Z"/><path d="M33.963,57.395a.83607.83607,0,0,1-.15136.46777,1.71972,1.71972,0,0,1-.3794.40772,2.11324,2.11324,0,0,1-.48877.28857,1.24837,1.24837,0,0,1-.47851.10889,1.20887,1.20887,0,0,1-.66455-.186,1.69009,1.69009,0,0,1-.48877-.4751,2.2249,2.2249,0,0,1-.29883-.63623,2.41539,2.41539,0,0,1-.10205-.67871,3.14772,3.14772,0,0,1,.09863-.75244,2.68392,2.68392,0,0,1,.29883-.73877,1.88048,1.88048,0,0,1,.50635-.5625,1.19622,1.19622,0,0,1,.728-.2251,1.30958,1.30958,0,0,1,.457.08106,1.14735,1.14735,0,0,1,.37989.22852,1.16075,1.16075,0,0,1,.26025.35156,1.0421,1.0421,0,0,1,.09815.457,1.39365,1.39365,0,0,1-.14063.61914,1.63333,1.63333,0,0,1-.37256.499,1.91521,1.91521,0,0,1-.53467.34131,1.74461,1.74461,0,0,1-.61865.144.39729.39729,0,0,0,.165.29541.60254.60254,0,0,0,.60156.021,2.35838,2.35838,0,0,0,.26026-.1582c.084-.0586.16748-.11133.24951-.15821a.4975.4975,0,0,1,.24951-.07031.39421.39421,0,0,1,.25342.09131A.29484.29484,0,0,1,33.963,57.395Zm-1.13916-1.72315a.42811.42811,0,0,0-.04931-.18994.16264.16264,0,0,0-.15479-.09814.41643.41643,0,0,0-.26025.08056.67961.67961,0,0,0-.17578.20411,1.11915,1.11915,0,0,0-.10889.26367,1.27781,1.27781,0,0,0-.0459.26025c.06592-.01416.144-.03271.23584-.05615a1.39953,1.39953,0,0,0,.26025-.09473.73676.73676,0,0,0,.21094-.15136A.30425.30425,0,0,0,32.82385,55.67181Z"/><path d="M36.85364,55.94623a.39223.39223,0,0,1-.00733.07373.371.371,0,0,1-.021.07422.64762.64762,0,0,1-.19678.27051.48555.48555,0,0,1-.31641.10888.37018.37018,0,0,1-.373-.27392.21863.21863,0,0,1-.01367-.08106.644.644,0,0,0-.00733-.09473v-.2041a.39814.39814,0,0,0-.04932-.15478.12925.12925,0,0,0-.11962-.05615.29673.29673,0,0,0-.22852.15087,1.63157,1.63157,0,0,0-.18994.35889,2.98907,2.98907,0,0,0-.12988.42529,1.68871,1.68871,0,0,0-.04932.35206c0,.07031.00488.15576.01416.25634a1.5071,1.5071,0,0,0,.05615.292.80591.80591,0,0,0,.11621.24268.22873.22873,0,0,0,.19336.102.374.374,0,0,0,.22168-.07373,1.68719,1.68719,0,0,0,.2002-.17236q.09155-.085.20068-.17578a.37627.37627,0,0,1,.24951-.0918.33765.33765,0,0,1,.27783.127.44613.44613,0,0,1,.10206.28809.8417.8417,0,0,1-.127.44678,1.345,1.345,0,0,1-.3164.35839,1.549,1.549,0,0,1-.42188.23926,1.24987,1.24987,0,0,1-.44287.08789,1.07249,1.07249,0,0,1-.64355-.18994,1.45505,1.45505,0,0,1-.42579-.48144,2.219,2.219,0,0,1-.23193-.63672,3.27366,3.27366,0,0,1-.07031-.65381,3.39176,3.39176,0,0,1,.09863-.77734,2.90167,2.90167,0,0,1,.30225-.77735,1.92557,1.92557,0,0,1,.52392-.59765,1.24075,1.24075,0,0,1,.76319-.23926.91129.91129,0,0,1,.47461.11963,1.03327,1.03327,0,0,1,.33056.313,1.47955,1.47955,0,0,1,.19678.43262,1.75113,1.75113,0,0,1,.06689.47119v.07032A.38158.38158,0,0,1,36.85364,55.94623Z"/><path d="M38.56262,54.38519q0,.37939-.03174.7627-.03149.38379-.03173.77,0,.49952.03173.999.0315.49952.03174,1.00537c0,.08447-.00488.17969-.01416.28516a1.05977,1.05977,0,0,1-.06689.292.56686.56686,0,0,1-.15821.22461.414.414,0,0,1-.28125.0918.35751.35751,0,0,1-.292-.16553,1.4151,1.4151,0,0,1-.2041-.42188,4.251,4.251,0,0,1-.1333-.57324Q37.36,57.3388,37.33508,57.04c-.0166-.19922-.02783-.38233-.03515-.54883q-.01026-.249-.01026-.36914,0-.1333.01026-.38672.011-.25341.0459-.54834.03514-.29589.09472-.60156a3.20815,3.20815,0,0,1,.1582-.55567,1.412,1.412,0,0,1,.23584-.40771.41889.41889,0,0,1,.32715-.1582.28117.28117,0,0,1,.23535.102.63211.63211,0,0,1,.11622.24609,1.58284,1.58284,0,0,1,.042.30225Q38.56262,54.27241,38.56262,54.38519Z"/><path d="M42.08606,57.65521c0,.08448-.00391.19483-.01074.33057a2.02376,2.02376,0,0,1-.05957.39746.94041.94041,0,0,1-.15479.334.34822.34822,0,0,1-.29541.14063.49132.49132,0,0,1-.40088-.169.6074.6074,0,0,1-.13379-.42187,1.73671,1.73671,0,0,1-.50976.30957,1.57274,1.57274,0,0,1-.58008.1123.80752.80752,0,0,1-.38721-.09814,1.21137,1.21137,0,0,1-.32324-.25342,1.26456,1.26456,0,0,1-.2251-.34814.95328.95328,0,0,1-.08447-.3833.90523.90523,0,0,1,.20752-.59082,1.90642,1.90642,0,0,1,.50977-.43213,2.98212,2.98212,0,0,1,.64355-.28516,3.74775,3.74775,0,0,1,.6084-.14062.49.49,0,0,1,.00342-.063.58022.58022,0,0,0-.11573-.415.42961.42961,0,0,0-.33789-.13379.6996.6996,0,0,0-.30224.06006,1.91745,1.91745,0,0,0-.23926.1333c-.0752.04931-.1499.09375-.2251.13379a.52843.52843,0,0,1-.25293.05957.3788.3788,0,0,1-.26367-.09815.32679.32679,0,0,1-.10937-.25341.70419.70419,0,0,1,.1372-.42188,1.2151,1.2151,0,0,1,.34473-.31982,1.85382,1.85382,0,0,1,.45019-.20411,1.53868,1.53868,0,0,1,.44629-.07373,1.62585,1.62585,0,0,1,.37989.04541,1.42207,1.42207,0,0,1,.35888.14063,1.40081,1.40081,0,0,1,.30567.23242,1.0962,1.0962,0,0,1,.22168.31983,3.03714,3.03714,0,0,1,.2041.55224,5.07564,5.07564,0,0,1,.11963.59766q.04175.30615.05615.61181Q42.08582,57.36714,42.08606,57.65521Zm-1.12549-.2251-.021-.478a.10986.10986,0,0,1-.02833-.00342.10934.10934,0,0,0-.02783-.00391.76359.76359,0,0,0-.229.0459,1.20958,1.20958,0,0,0-.26367.12647,1.02241,1.02241,0,0,0-.21436.17968.30354.30354,0,0,0-.08789.20362.13516.13516,0,0,0,.07031.13379.35636.35636,0,0,0,.16162.03515.79036.79036,0,0,0,.33057-.081Q40.82678,57.50776,40.96057,57.43011Z"/><path d="M44.94836,56.01654a.41527.41527,0,0,1-.16894-.01758q-.07032-.02416-.14063-.05273c-.042-.01856-.08447-.03613-.12646-.05274a.3141.3141,0,0,0-.14063-.01757.50268.50268,0,0,0-.24951.07714.88376.88376,0,0,0-.19726.17627,1.15292,1.15292,0,0,0-.15088.23536,1.49435,1.49435,0,0,0-.09863.25683,1.54765,1.54765,0,0,0-.03174.25684q-.01026.17211-.01026.36914-.00732.20361-.00732.38672a2.21881,2.21881,0,0,1-.01416.28808,2.12024,2.12024,0,0,1-.03516.26416,1.23758,1.23758,0,0,1-.08789.28467.67825.67825,0,0,1-.1582.2251.35612.35612,0,0,1-.25293.09131.32149.32149,0,0,1-.20752-.07032.56682.56682,0,0,1-.148-.18652,1.24782,1.24782,0,0,1-.09814-.27051,2.78439,2.78439,0,0,1-.06006-.3164c-.01367-.1128-.02442-.2251-.03125-.33789q-.011-.16847-.01416-.31983c-.00244-.10058-.00244-.19336,0-.27783.00195-.08447.00341-.15234.00341-.2041q-.00732-.24609-.0249-.49561c-.01172-.1665-.01758-.33154-.01758-.49609q0-.15455.01416-.34424a1.23289,1.23289,0,0,1,.07764-.35547.71881.71881,0,0,1,.186-.27783.4883.4883,0,0,1,.3413-.1123.29351.29351,0,0,1,.20411.07714.60628.60628,0,0,1,.1372.19,1.13924,1.13924,0,0,1,.08057.23925,1.54383,1.54383,0,0,1,.03516.23194,1.76512,1.76512,0,0,1,.37988-.44629.899.899,0,0,1,.54834-.18653,1.22531,1.22531,0,0,1,.33447.03174.9651.9651,0,0,1,.30225.12647.72381.72381,0,0,1,.2251.22851.65559.65559,0,0,1,.09472.33057.38476.38476,0,0,1-.1333.34473A.58407.58407,0,0,1,44.94836,56.01654Z"/><path d="M48.53528,57.65521c0,.08448-.00391.19483-.01074.33057a2.02376,2.02376,0,0,1-.05957.39746.94041.94041,0,0,1-.15479.334.34822.34822,0,0,1-.29541.14063.49132.49132,0,0,1-.40088-.169.6074.6074,0,0,1-.13379-.42187,1.73671,1.73671,0,0,1-.50976.30957,1.57274,1.57274,0,0,1-.58008.1123.80752.80752,0,0,1-.38721-.09814,1.21137,1.21137,0,0,1-.32324-.25342,1.26433,1.26433,0,0,1-.2251-.34814.95328.95328,0,0,1-.08447-.3833.90523.90523,0,0,1,.20752-.59082,1.90637,1.90637,0,0,1,.50976-.43213,2.9822,2.9822,0,0,1,.64356-.28516,3.74751,3.74751,0,0,1,.6084-.14062.48816.48816,0,0,1,.00342-.063.58022.58022,0,0,0-.11573-.415.42963.42963,0,0,0-.33789-.13379.69957.69957,0,0,0-.30224.06006,1.91745,1.91745,0,0,0-.23926.1333c-.0752.04931-.1499.09375-.2251.13379a.52843.52843,0,0,1-.25293.05957.37878.37878,0,0,1-.26367-.09815.3268.3268,0,0,1-.10938-.25341.7042.7042,0,0,1,.13721-.42188,1.215,1.215,0,0,1,.34473-.31982,1.85382,1.85382,0,0,1,.45019-.20411,1.53863,1.53863,0,0,1,.44629-.07373,1.6257,1.6257,0,0,1,.37988.04541,1.422,1.422,0,0,1,.35889.14063,1.40081,1.40081,0,0,1,.30567.23242,1.09639,1.09639,0,0,1,.22168.31983,3.03714,3.03714,0,0,1,.2041.55224,5.07564,5.07564,0,0,1,.11963.59766q.04174.30615.05615.61181Q48.535,57.36714,48.53528,57.65521Zm-1.12549-.2251-.021-.478a.10984.10984,0,0,1-.02832-.00342.10934.10934,0,0,0-.02783-.00391.76353.76353,0,0,0-.229.0459,1.20958,1.20958,0,0,0-.26367.12647,1.02216,1.02216,0,0,0-.21436.17968.30354.30354,0,0,0-.08789.20362.13516.13516,0,0,0,.07031.13379.35636.35636,0,0,0,.16162.03515.79036.79036,0,0,0,.33057-.081Q47.276,57.50776,47.40979,57.43011Z"/><path d="M51.56653,55.94623a.39223.39223,0,0,1-.00733.07373.37029.37029,0,0,1-.021.07422.64762.64762,0,0,1-.19678.27051.48553.48553,0,0,1-.31641.10888.37019.37019,0,0,1-.373-.27392.21863.21863,0,0,1-.01367-.08106.644.644,0,0,0-.00733-.09473v-.2041a.39831.39831,0,0,0-.04931-.15478.12928.12928,0,0,0-.11963-.05615.29673.29673,0,0,0-.22852.15087,1.63157,1.63157,0,0,0-.18994.35889,2.98907,2.98907,0,0,0-.12988.42529,1.68871,1.68871,0,0,0-.04932.35206c0,.07031.00488.15576.01416.25634a1.5071,1.5071,0,0,0,.05615.292.80591.80591,0,0,0,.11621.24268.22873.22873,0,0,0,.19336.102.374.374,0,0,0,.22168-.07373,1.68719,1.68719,0,0,0,.2002-.17236q.09155-.085.20068-.17578a.37627.37627,0,0,1,.24951-.0918.33768.33768,0,0,1,.27784.127.44618.44618,0,0,1,.102.28809.84161.84161,0,0,1-.127.44678,1.345,1.345,0,0,1-.3164.35839,1.549,1.549,0,0,1-.42188.23926,1.24983,1.24983,0,0,1-.44287.08789,1.07249,1.07249,0,0,1-.64355-.18994,1.45505,1.45505,0,0,1-.42579-.48144,2.219,2.219,0,0,1-.23193-.63672,3.27366,3.27366,0,0,1-.07031-.65381,3.39176,3.39176,0,0,1,.09863-.77734,2.90167,2.90167,0,0,1,.30225-.77735,1.92557,1.92557,0,0,1,.52392-.59765,1.24075,1.24075,0,0,1,.76319-.23926.91129.91129,0,0,1,.47461.11963,1.03316,1.03316,0,0,1,.33056.313,1.47955,1.47955,0,0,1,.19678.43262,1.75113,1.75113,0,0,1,.06689.47119v.07032A.38158.38158,0,0,1,51.56653,55.94623Z"/><path d="M53.17688,56.12933v.207c0,.07276-.00244.14209-.00732.20752-.0044.08008-.00684.18653-.00684.32032,0,.1333-.00488.27783-.01416.43261q-.01392.23145-.04541.4712a2.155,2.155,0,0,1-.102.436.89579.89579,0,0,1-.18652.31982.40668.40668,0,0,1-.292.12989.25994.25994,0,0,1-.22509-.10547.92219.92219,0,0,1-.15088-.29151,2.08437,2.08437,0,0,1-.08789-.40087q-.02857-.22193-.04248-.4292t-.01368-.3833v-.58008q0-.20729.01368-.44678.0139-.23877.05273-.48535a2.43733,2.43733,0,0,1,.11279-.4502.93977.93977,0,0,1,.19336-.33007.39736.39736,0,0,1,.30225-.127.31154.31154,0,0,1,.28857.18994,1.64168,1.64168,0,0,1,.14746.44336,3.06178,3.06178,0,0,1,.05616.50244Q53.17688,56.00946,53.17688,56.12933Zm-.05615-2.3916a.306.306,0,0,1-.05274.17627.54476.54476,0,0,1-.1372.13672.67127.67127,0,0,1-.18311.0918.60029.60029,0,0,1-.18262.03125.43318.43318,0,0,1-.24609-.07032.24241.24241,0,0,1-.10547-.21777.3347.3347,0,0,1,.05274-.18652.46928.46928,0,0,1,.12988-.1333.60414.60414,0,0,1,.17578-.08106.70014.70014,0,0,1,.18994-.02832.4916.4916,0,0,1,.24609.06348A.22852.22852,0,0,1,53.12073,53.73773Z"/><path d="M55.01282,58.851a1.0535,1.0535,0,0,1-.626-.18994,1.65786,1.65786,0,0,1-.45019-.48535,2.31268,2.31268,0,0,1-.27442-.65771,2.90109,2.90109,0,0,1-.09131-.71387,3.42645,3.42645,0,0,1,.09131-.77,2.594,2.594,0,0,1,.28125-.72412,1.6667,1.6667,0,0,1,.48535-.53467,1.1949,1.1949,0,0,1,.70362-.20752,1.06828,1.06828,0,0,1,.67138.21436,1.62818,1.62818,0,0,1,.44678.53466,2.45256,2.45256,0,0,1,.23877.69971,2.93108,2.93108,0,0,1,.04932.71729,4.06747,4.06747,0,0,1-.11573.75244,2.48082,2.48082,0,0,1-.27783.68261,1.557,1.557,0,0,1-.46435.49219A1.16611,1.16611,0,0,1,55.01282,58.851Zm.07031-3.1792a.22943.22943,0,0,0-.18652.1128,1.00456,1.00456,0,0,0-.13379.27441,2.17172,2.17172,0,0,0-.08057.34082,2.02433,2.02433,0,0,0-.02832.313,2.32507,2.32507,0,0,0,.03174.36572,2.19912,2.19912,0,0,0,.08789.36231.99285.99285,0,0,0,.13721.27441.23058.23058,0,0,0,.18652.10889.23886.23886,0,0,0,.19336-.10547.83858.83858,0,0,0,.12988-.26758,1.952,1.952,0,0,0,.07031-.355,3.32336,3.32336,0,0,0,.021-.3623A2.32037,2.32037,0,0,0,55.484,56.393a2.19015,2.19015,0,0,0-.08106-.34815.88447.88447,0,0,0-.13378-.26758A.23186.23186,0,0,0,55.08313,55.67181Zm.79443-2.27832a.299.299,0,0,1-.042.15088.71.71,0,0,1-.102.13721,1.01338,1.01338,0,0,1-.12988.11621c-.04688.03516-.08936.0669-.127.09473-.03271.02343-.06884.05078-.10888.08105a1.20571,1.20571,0,0,1-.26026.15137.33654.33654,0,0,1-.12988.02783A.15791.15791,0,0,1,54.879,54.121a.11018.11018,0,0,1-.042-.09472.57337.57337,0,0,1,.08056-.25684,1.7839,1.7839,0,0,1,.20069-.29541,1.57513,1.57513,0,0,1,.25293-.24609.42027.42027,0,0,1,.24609-.102.25052.25052,0,0,1,.17969.081A.25656.25656,0,0,1,55.87756,53.39349Z"/><path d="M58.89465,58.84369a.21581.21581,0,0,1-.18945-.10889.8269.8269,0,0,1-.10547-.24951,1.6605,1.6605,0,0,1-.0459-.28516c-.00683-.0957-.01074-.16992-.01074-.22119a3.83576,3.83576,0,0,1,.02441-.42236c.01661-.14063.03516-.28125.05665-.42188s.04-.28125.05664-.42187a3.82018,3.82018,0,0,0,.02441-.42188c0-.05615-.00293-.11718-.00684-.1831a.93672.93672,0,0,0-.03222-.186.32057.32057,0,0,0-.08106-.14453.19912.19912,0,0,0-.14746-.05615c-.042,0-.08887.03418-.14062.102a1.51339,1.51339,0,0,0-.14356.23193,2.03074,2.03074,0,0,0-.11328.26026.65892.65892,0,0,0-.04492.19336c0,.10351.001.20752.00293.313s.00391.2124.00391.32031v.40771c-.00489.08448-.01172.17139-.02149.26026a2.45148,2.45148,0,0,1-.042.26025,1.3219,1.3219,0,0,1-.06348.24268.76768.76768,0,0,1-.10937.2041.56292.56292,0,0,1-.15821.144.40373.40373,0,0,1-.21777.05615.31386.31386,0,0,1-.23144-.0913.67693.67693,0,0,1-.14844-.23584,1.44222,1.44222,0,0,1-.08106-.32325q-.02343-.17945-.03515-.35156c-.00684-.11523-.00879-.2207-.00684-.31689.00293-.09571.00391-.17188.00391-.22852v-.33057c0-.17773-.00391-.354-.01075-.52734s-.01074-.34668-.01074-.52051c0-.09375.001-.21338.00391-.3584a1.93226,1.93226,0,0,1,.05273-.42578.93725.93725,0,0,1,.16114-.355.39057.39057,0,0,1,.331-.14795.27206.27206,0,0,1,.17578.06348.64632.64632,0,0,1,.13672.15479.93908.93908,0,0,1,.09863.19677c.02637.07032.0459.13135.05957.18311a1.35205,1.35205,0,0,1,.166-.18994,1.128,1.128,0,0,1,.48144-.27442,1.2255,1.2255,0,0,1,.3379-.042.82765.82765,0,0,1,.55859.17236,1.02449,1.02449,0,0,1,.2959.42871,2.00839,2.00839,0,0,1,.11621.55225q.0205.29517.02051.53418c0,.08008-.00684.19824-.02051.35547q-.022.23584-.06738.52051-.04542.28491-.123.58349a3.82845,3.82845,0,0,1-.18262.54492,1.35961,1.35961,0,0,1-.25.40088A.4354.4354,0,0,1,58.89465,58.84369Z"/><path d="M34.98987,61.47943a1.79529,1.79529,0,0,1-.165.74512,2.39988,2.39988,0,0,1-1.06543,1.13574,1.7448,1.7448,0,0,1-.72461.208q-.00732.126-.01025.31933c-.00245.12989-.01075.26465-.02491.40528s-.03418.28125-.05957.42187a1.73365,1.73365,0,0,1-.11279.37989.79008.79008,0,0,1-.18994.27343.40756.40756,0,0,1-.28467.10547.39728.39728,0,0,1-.313-.12988.8658.8658,0,0,1-.17578-.3125,1.85362,1.85362,0,0,1-.08105-.38379c-.01367-.13379-.02344-.24707-.02784-.34082q-.01464-.20361-.01757-.40137c-.00244-.13086-.00342-.26465-.00342-.40039V63.164c0-.167.001-.35644.00342-.57031.002-.21289.00586-.43555.01025-.668q.00732-.34717.02149-.64648.01391-.29883.03125-.50977a.65757.65757,0,0,1,.04589-.24707c.0044-.00391.01856-.01465.042-.03125s.04931-.03223.07763-.04883c.02783-.0166.05371-.03222.07715-.0459.02344-.01465.04-.02343.04932-.02832a4.25778,4.25778,0,0,1,.71045-.3164,2.34123,2.34123,0,0,1,.7666-.13379,1.29389,1.29389,0,0,1,.58691.13086,1.40812,1.40812,0,0,1,.4502.34375,1.50337,1.50337,0,0,1,.28515.5A1.78826,1.78826,0,0,1,34.98987,61.47943Zm-1.2168.16211a.45407.45407,0,0,0-.0664-.24707A.2428.2428,0,0,0,33.485,61.289a.72051.72051,0,0,0-.26709.05274c-.08936.03515-.17139.07226-.2461.10937.01367.16406.02686.32324.03858.47852a3.62759,3.62759,0,0,1,.00341.47851c.07471-.03808.15723-.08105.2461-.13086a1.69,1.69,0,0,0,.24609-.165.92824.92824,0,0,0,.18994-.207A.46634.46634,0,0,0,33.77307,61.64154Z"/><path d="M38.10559,63.997a.8372.8372,0,0,1-.15137.46777,1.74038,1.74038,0,0,1-.37939.40821,2.11122,2.11122,0,0,1-.48877.28808,1.25869,1.25869,0,0,1-.47852.10938,1.20927,1.20927,0,0,1-.66455-.18653,1.68239,1.68239,0,0,1-.48877-.47461,2.22809,2.22809,0,0,1-.29882-.63671,2.41257,2.41257,0,0,1-.10206-.67872A3.15474,3.15474,0,0,1,35.152,62.541a2.69942,2.69942,0,0,1,.29883-.73828,1.89232,1.89232,0,0,1,.50634-.5625,1.19275,1.19275,0,0,1,.728-.22461,1.30887,1.30887,0,0,1,.457.08008,1.181,1.181,0,0,1,.37988.22852,1.153,1.153,0,0,1,.26026.35254,1.03907,1.03907,0,0,1,.09814.457,1.38947,1.38947,0,0,1-.14062.61816,1.63767,1.63767,0,0,1-.37256.5,1.914,1.914,0,0,1-.53467.34082,1.756,1.756,0,0,1-.61865.14453.39717.39717,0,0,0,.165.29493.572.572,0,0,0,.32715.09179.58379.58379,0,0,0,.27441-.07031,2.51764,2.51764,0,0,0,.26025-.1582c.084-.0586.16749-.11133.24952-.15821a.4975.4975,0,0,1,.24951-.07031.39371.39371,0,0,1,.25342.09082A.29487.29487,0,0,1,38.10559,63.997Zm-1.13916-1.72266a.42832.42832,0,0,0-.04932-.19043.16306.16306,0,0,0-.15478-.09863.41665.41665,0,0,0-.26025.08106.674.674,0,0,0-.17579.2041,1.11954,1.11954,0,0,0-.10888.26367,1.27634,1.27634,0,0,0-.0459.26074c.06592-.01465.144-.0332.23584-.05664a1.36539,1.36539,0,0,0,.26025-.09473.7464.7464,0,0,0,.21094-.15136A.30316.30316,0,0,0,36.96643,62.27435Z"/><path d="M40.82727,62.61908a.452.452,0,0,1-.16894-.01758q-.07032-.0249-.14063-.05273c-.042-.01953-.08447-.03711-.12646-.05274a.30107.30107,0,0,0-.14063-.01758.4884.4884,0,0,0-.24951.07715.86956.86956,0,0,0-.19727.17578,1.14052,1.14052,0,0,0-.15088.23536,1.48,1.48,0,0,0-.09863.25683,1.55722,1.55722,0,0,0-.03174.25684c-.00683.11426-.01025.23828-.01025.36914q-.00732.20361-.00733.38672a2.217,2.217,0,0,1-.01416.28808,2.10174,2.10174,0,0,1-.03515.26367,1.22732,1.22732,0,0,1-.08789.28516.67122.67122,0,0,1-.15821.22461.35428.35428,0,0,1-.25292.0918.32149.32149,0,0,1-.20752-.07032.5718.5718,0,0,1-.148-.18652,1.23838,1.23838,0,0,1-.09815-.27051,2.82594,2.82594,0,0,1-.06006-.3164c-.01367-.11231-.02441-.22559-.03125-.33789-.00732-.11231-.0122-.21875-.01416-.32032-.00244-.10058-.00244-.19336,0-.27734.002-.084.00342-.15234.00342-.2041-.00488-.16406-.01318-.3291-.0249-.49609q-.01758-.249-.01758-.49512c0-.10352.00488-.21875.01416-.34473a1.23289,1.23289,0,0,1,.07764-.35547.7133.7133,0,0,1,.186-.27734.48639.48639,0,0,1,.34131-.11328.29212.29212,0,0,1,.2041.07812.59856.59856,0,0,1,.13721.18946,1.1494,1.1494,0,0,1,.08057.23925,1.539,1.539,0,0,1,.03515.23243,1.76225,1.76225,0,0,1,.37989-.44727.90827.90827,0,0,1,.54834-.18652,1.2857,1.2857,0,0,1,.33447.03222.95453.95453,0,0,1,.30224.127.72371.72371,0,0,1,.2251.22851.65236.65236,0,0,1,.09473.33008.38529.38529,0,0,1-.1333.34473A.58453.58453,0,0,1,40.82727,62.61908Z"/><path d="M43.48547,61.3808a.34706.34706,0,0,1-.1372.30273,2.54972,2.54972,0,0,1-.30567.18653,1.54562,1.54562,0,0,0-.30615.207.45107.45107,0,0,0-.13721.3584.39058.39058,0,0,0,.06006.21875.76838.76838,0,0,0,.14746.165c.0586.04883.12305.09961.19336.15137a1.2715,1.2715,0,0,1,.19385.17578.86354.86354,0,0,1,.14746.23926.87425.87425,0,0,1,.05957.34375,1.23041,1.23041,0,0,1-.15088.58106,1.9514,1.9514,0,0,1-.918.86132,1.41134,1.41134,0,0,1-.58349.13379,1.63851,1.63851,0,0,1-.23926-.01758.66444.66444,0,0,1-.21436-.06738.43494.43494,0,0,1-.1582-.13672.38008.38008,0,0,1-.06348-.22851.52709.52709,0,0,1,.07715-.30664.5585.5585,0,0,1,.19727-.17188,1.17238,1.17238,0,0,1,.25635-.09863,1.63635,1.63635,0,0,0,.25683-.08789.58549.58549,0,0,0,.19678-.13672.34079.34079,0,0,0,.07764-.23926.51847.51847,0,0,0-.11621-.30566c-.07715-.10547-.16309-.21875-.25684-.33789a3.088,3.088,0,0,1-.25635-.38379.88878.88878,0,0,1-.11621-.4502,1.27492,1.27492,0,0,1,.123-.55859,1.44428,1.44428,0,0,1,.33056-.44629,1.56366,1.56366,0,0,1,.47461-.29883,1.46581,1.46581,0,0,1,.563-.10937,1.11727,1.11727,0,0,1,.22119.02148.55314.55314,0,0,1,.19336.07324.4113.4113,0,0,1,.13721.14063A.42569.42569,0,0,1,43.48547,61.3808Z"/><path d="M45.10364,65.45306a1.05048,1.05048,0,0,1-.626-.19043,1.64575,1.64575,0,0,1-.45019-.48535,2.30949,2.30949,0,0,1-.27442-.65722,2.904,2.904,0,0,1-.09131-.71387,3.42226,3.42226,0,0,1,.09131-.76953,2.58548,2.58548,0,0,1,.28125-.72461,1.67859,1.67859,0,0,1,.48535-.53516,1.19808,1.19808,0,0,1,.70362-.207,1.0628,1.0628,0,0,1,.67138.21484,1.62653,1.62653,0,0,1,.44678.53418,2.45026,2.45026,0,0,1,.23877.7002,2.92668,2.92668,0,0,1,.04932.7168,4.07884,4.07884,0,0,1-.11573.75293,2.4745,2.4745,0,0,1-.27783.68164,1.54672,1.54672,0,0,1-.46435.49218A1.16268,1.16268,0,0,1,45.10364,65.45306Zm.07031-3.17871a.22882.22882,0,0,0-.18652.11231.99762.99762,0,0,0-.13379.27441,2.17172,2.17172,0,0,0-.08057.34082,2.01474,2.01474,0,0,0-.02832.31348,2.31917,2.31917,0,0,0,.03174.36523,2.21133,2.21133,0,0,0,.08789.36231.99982.99982,0,0,0,.13721.27441.23119.23119,0,0,0,.18652.1084.23886.23886,0,0,0,.19336-.10547.838.838,0,0,0,.12988-.2666,1.97538,1.97538,0,0,0,.07032-.35547,3.33013,3.33013,0,0,0,.021-.3623,2.32564,2.32564,0,0,0-.02783-.34082,2.2219,2.2219,0,0,0-.08106-.34864.884.884,0,0,0-.13378-.2666A.23186.23186,0,0,0,45.174,62.27435Z"/><path d="M48.98547,65.44623a.217.217,0,0,1-.18994-.10938.82457.82457,0,0,1-.10547-.25,1.70633,1.70633,0,0,1-.04589-.28418c-.00684-.09668-.01026-.16992-.01026-.22168a3.59269,3.59269,0,0,1,.02442-.42187c.01611-.14063.03515-.28125.05615-.42188s.04-.28125.05615-.42187a3.62474,3.62474,0,0,0,.0249-.42285c0-.05567-.00244-.11719-.00732-.18262a.94232.94232,0,0,0-.03125-.18652.319.319,0,0,0-.08106-.14356.19833.19833,0,0,0-.148-.05664q-.063,0-.14062.10254a1.5367,1.5367,0,0,0-.144.23145,2.06577,2.06577,0,0,0-.11231.26074.646.646,0,0,0-.0459.19336c0,.10254.001.207.00342.3125s.00342.21191.00342.32031v.4082c-.0044.084-.01172.1709-.021.25977a2.3209,2.3209,0,0,1-.042.25976,1.346,1.346,0,0,1-.06348.24317.76666.76666,0,0,1-.10888.2041.56716.56716,0,0,1-.15821.14355.40366.40366,0,0,1-.21826.05664.31234.31234,0,0,1-.23193-.09179.65746.65746,0,0,1-.14746-.23535,1.398,1.398,0,0,1-.08106-.32325q-.0249-.18016-.03515-.35156c-.00733-.11523-.00928-.2207-.00733-.3164.00244-.09668.00391-.17286.00391-.22852v-.331c0-.17774-.00391-.35352-.01074-.52735s-.01075-.34668-.01075-.52051c0-.09375.00147-.21289.00391-.35839a1.93168,1.93168,0,0,1,.05274-.42579.93587.93587,0,0,1,.16162-.35546.39126.39126,0,0,1,.33056-.14747.272.272,0,0,1,.17578.06348.67744.67744,0,0,1,.13721.1543,1.00586,1.00586,0,0,1,.09863.19726c.02539.07032.04541.13184.05957.18262a1.373,1.373,0,0,1,.165-.18945,1.158,1.158,0,0,1,.21485-.16211,1.14628,1.14628,0,0,1,.26709-.11231,1.22418,1.22418,0,0,1,.3374-.042.83536.83536,0,0,1,.55957.17188,1.02248,1.02248,0,0,1,.29492.42968,1.983,1.983,0,0,1,.11621.55176c.01416.19727.021.375.021.53418,0,.08008-.00684.19824-.021.35547s-.03613.33008-.06689.52051c-.03028.18945-.07129.38476-.123.584a3.82719,3.82719,0,0,1-.18262.54492,1.36663,1.36663,0,0,1-.25.40039A.43574.43574,0,0,1,48.98547,65.44623Z"/><path d="M53.339,64.25775c0,.084-.00391.19434-.01074.33008a2.02928,2.02928,0,0,1-.05957.39746.94041.94041,0,0,1-.15479.334.34822.34822,0,0,1-.29541.14063.49279.49279,0,0,1-.40088-.169.6074.6074,0,0,1-.13379-.42187,1.72636,1.72636,0,0,1-.50976.30957,1.56285,1.56285,0,0,1-.58008.1123.79707.79707,0,0,1-.38721-.09863,1.19981,1.19981,0,0,1-.32324-.25293,1.25482,1.25482,0,0,1-.2251-.34765A.95552.95552,0,0,1,50.174,64.208a.90616.90616,0,0,1,.20752-.59082,1.91694,1.91694,0,0,1,.50977-.43262,3.00307,3.00307,0,0,1,.64355-.28418,3.74893,3.74893,0,0,1,.6084-.14063.49791.49791,0,0,1,.00342-.06347.4982.4982,0,0,0,.00341-.06348.507.507,0,0,0-.11914-.35156.43126.43126,0,0,0-.33789-.13379.71439.71439,0,0,0-.30224.05957,2.05419,2.05419,0,0,0-.23926.13379c-.0752.0498-.1499.09375-.2251.13379a.52843.52843,0,0,1-.25293.05957.37482.37482,0,0,1-.26367-.09863.32438.32438,0,0,1-.10937-.25293.70629.70629,0,0,1,.1372-.42188,1.21671,1.21671,0,0,1,.34473-.32031,1.87217,1.87217,0,0,1,.45019-.2041,1.55336,1.55336,0,0,1,.44629-.07325,1.576,1.576,0,0,1,.37989.0459,1.40437,1.40437,0,0,1,.66455.37207,1.10509,1.10509,0,0,1,.22168.32032,3.05916,3.05916,0,0,1,.2041.55175,5.15686,5.15686,0,0,1,.11963.59766q.04174.30615.05615.6123Q53.33875,63.96919,53.339,64.25775Zm-1.12549-.22558-.021-.47852a.13621.13621,0,0,1-.02832-.00293.09122.09122,0,0,0-.02783-.00391.76359.76359,0,0,0-.229.0459,1.14821,1.14821,0,0,0-.26367.127,1.01887,1.01887,0,0,0-.21436.17871.30651.30651,0,0,0-.08789.2041.13562.13562,0,0,0,.07031.13379.35636.35636,0,0,0,.16162.03515.79791.79791,0,0,0,.33057-.08105Q52.07972,64.10981,52.2135,64.03217Z"/><path d="M55.07629,60.98724c0,.25293-.01074.50782-.03173.7627q-.0315.38379-.03174.77051,0,.4995.03174.998c.021.333.03173.66895.03173,1.00586,0,.085-.00488.17969-.01416.28516a1.05539,1.05539,0,0,1-.06689.292.56694.56694,0,0,1-.1582.22461.41168.41168,0,0,1-.28125.0918.35943.35943,0,0,1-.292-.165,1.42153,1.42153,0,0,1-.2041-.42285,4.23573,4.23573,0,0,1-.1333-.57227q-.05272-.31641-.07764-.61621c-.0166-.19922-.02783-.38184-.03515-.54785q-.01026-.25049-.01026-.36914c0-.08985.00342-.21875.01026-.3877.00732-.168.02246-.35156.0459-.54785q.03515-.29589.09472-.60156a3.21979,3.21979,0,0,1,.15821-.55567,1.40189,1.40189,0,0,1,.23584-.40722.41888.41888,0,0,1,.32715-.1582.28087.28087,0,0,1,.23535.10156.63224.63224,0,0,1,.11621.24609,1.57148,1.57148,0,0,1,.042.30176C55.07385,60.8222,55.07629,60.91205,55.07629,60.98724Z"/></svg>